<svg width="55" height="9" viewBox="0 0 55 9" fill="none" xmlns="http://www.w3.org/2000/svg">
<path d="M54.4942 5.77331C52.7367 7.59084 50.4279 8.5 48.1191 8.5C45.8087 8.5 43.4991 7.5908 41.7408 5.77075C41.7392 5.76908 41.7375 5.76573 41.7343 5.76405C40.6851 4.67889 39.292 4.07975 37.8081 4.07975L37.8064 4.07975C36.3307 4.07975 34.944 4.67221 33.8964 5.74564C33.8883 5.75486 33.8835 5.76408 33.8762 5.77162C32.1179 7.58999 29.8091 8.49918 27.5003 8.49918C25.1907 8.49918 22.8827 7.58916 21.1244 5.76912C21.122 5.7666 21.1204 5.76324 21.118 5.76073C20.0696 4.67641 18.6756 4.07811 17.1917 4.07811L17.1901 4.07811C15.7143 4.07811 14.3276 4.66968 13.2809 5.74227C13.2736 5.75148 13.2687 5.76074 13.2606 5.76912C11.5048 7.58749 9.19599 8.49668 6.88721 8.49668C4.57842 8.49668 2.26803 7.58749 0.507301 5.76912C-0.167851 5.0711 -0.16951 3.93814 0.504829 3.23928C1.17836 2.54043 2.27369 2.53959 2.94884 3.23678C5.11434 5.4758 8.6293 5.48338 10.7964 3.25943C10.8045 3.25105 10.8094 3.24183 10.8167 3.23345C12.5183 1.47038 14.7818 0.500008 17.1901 0.500008L17.1925 0.500008C19.6033 0.500846 21.8676 1.47206 23.5684 3.23764C23.5701 3.23932 23.5709 3.24183 23.5733 3.24434C25.7339 5.47583 29.2416 5.48166 31.4128 3.26107C31.4209 3.25185 31.4265 3.24347 31.4338 3.23509C33.1363 1.47202 35.3981 0.501694 37.8064 0.501694L37.8089 0.501694C40.2197 0.502531 42.4815 1.4737 44.1831 3.23928C44.1856 3.24096 44.1864 3.24434 44.1888 3.24685C46.36 5.48504 49.8839 5.48336 52.0518 3.24265C52.7262 2.5438 53.8198 2.5438 54.4949 3.24265C55.1685 3.94235 55.1685 5.07529 54.4942 5.77331Z" fill="#EC5F65"/>
</svg>
