<svg width="126" height="60" viewBox="0 0 126 60" fill="none" xmlns="http://www.w3.org/2000/svg">
<path d="M124.841 48.2308C120.813 44.1725 115.527 42.1451 110.236 42.1451C104.943 42.1451 99.6542 44.1743 95.6223 48.2345C95.6186 48.2401 95.6149 48.2457 95.6093 48.2532C93.2076 50.6751 90.0141 52.0105 86.6165 52.0105H86.6128C83.23 52.0105 80.0531 50.6883 77.6533 48.2906C77.6366 48.2719 77.6217 48.2513 77.6069 48.2345C73.5788 44.1761 68.2895 42.1469 63.0021 42.1469C57.7092 42.1469 52.42 44.178 48.3956 48.2401C48.39 48.2457 48.3863 48.2532 48.3789 48.2588C45.9772 50.6788 42.7818 52.0142 39.3861 52.0142H39.3804C36.0014 52.0142 32.8246 50.6939 30.4267 48.3C30.4062 48.2794 30.3933 48.2606 30.3784 48.2401C26.3577 44.1817 21.0666 42.1527 15.7792 42.1527C10.4863 42.1527 5.19512 44.1799 1.16142 48.2401C-0.385295 49.7961 -0.387132 52.3247 1.15587 53.8863C2.70073 55.4461 5.20627 55.4479 6.75299 53.8919C11.714 48.8966 19.7684 48.8798 24.7331 53.8415C24.7516 53.8602 24.7609 53.8806 24.7776 53.8993C28.6777 57.8343 33.8613 60 39.3824 60H39.3879C44.909 59.9981 50.0925 57.8287 53.9927 53.8901L54.0038 53.877C58.9536 48.8929 66.9913 48.8835 71.9653 53.8377C71.982 53.8583 71.995 53.877 72.0117 53.8957C75.91 57.8306 81.0917 59.9962 86.6109 59.9962H86.6183C92.1375 59.9944 97.3211 57.825 101.221 53.8863C101.225 53.8826 101.227 53.877 101.232 53.8714C106.204 48.876 114.281 48.8798 119.246 53.8807C120.793 55.4405 123.3 55.4404 124.843 53.8788C126.388 52.3134 126.384 49.7887 124.841 48.2308ZM86.622 38.9171H86.6147C81.0936 38.9171 75.9119 36.7515 72.0154 32.8166C71.995 32.7979 71.982 32.7773 71.969 32.7586C66.9951 27.8044 58.9574 27.8099 54.0075 32.7959C54.0038 32.8015 54.0001 32.8071 53.9964 32.8109C50.0962 36.7476 44.9127 38.919 39.3916 38.9209H39.3842C33.8649 38.9209 28.6815 36.7551 24.7813 32.8202C23.2365 31.2586 23.2401 28.7319 24.7831 27.1759C26.3298 25.6162 28.839 25.6181 30.3821 27.1778C32.7856 29.6016 35.9847 30.937 39.3842 30.937H39.3879C42.7855 30.937 45.9809 29.6035 48.3825 27.1834C48.39 27.1778 48.3937 27.1704 48.3993 27.1629C52.4237 23.1027 57.7129 21.0716 63.0059 21.0716C68.2933 21.0716 73.5825 23.0989 77.6106 27.1573C77.6292 27.1779 77.6422 27.1966 77.6571 27.2153C80.0569 29.6129 83.2338 30.9332 86.6147 30.9332H86.6202C90.0234 30.9332 93.2207 29.5961 95.6223 27.1667C96.3957 26.3868 97.4082 25.9958 98.4226 25.9958C99.4352 25.9958 100.45 26.3849 101.221 27.1629C102.768 28.717 102.77 31.2474 101.227 32.8072C97.3229 36.7477 92.1394 38.9152 86.622 38.9171ZM72.0173 11.7355C67.0414 6.7252 58.9611 6.72527 53.9927 11.7374C52.4515 13.2934 49.9423 13.2953 48.3956 11.7374C46.8507 10.1814 46.8488 7.65289 48.3956 6.09313C52.42 2.02917 57.7092 0 63.0021 0C68.2895 0 73.5788 2.02729 77.6069 6.08377C79.1536 7.64166 79.1555 10.172 77.6106 11.7299C76.0695 13.2915 73.564 13.2934 72.0173 11.7355Z" fill="white"/>
</svg>
