<svg width="27" height="27" viewBox="0 0 27 27" fill="none" xmlns="http://www.w3.org/2000/svg">
<path d="M9.1198 5.95184C9.07938 5.95495 9.0374 5.96422 8.99853 5.97822C7.75319 6.36068 6.87011 7.03852 6.39436 7.91849C5.91706 8.79847 5.85487 9.83081 6.0601 10.8818C6.47054 12.9776 7.9211 15.2335 9.75879 17.1116C11.5949 18.9897 13.8073 20.4932 15.9202 20.9316C16.9758 21.1509 18.0268 21.0933 18.9348 20.616C19.8427 20.1387 20.5672 19.2525 21.015 17.9869C21.1005 17.7413 21.0072 17.4708 20.788 17.3308L16.8017 14.8324L16.7939 14.8215C16.7722 14.8106 16.7535 14.7982 16.7317 14.7873C16.6742 14.75 16.6089 14.722 16.5405 14.7096C16.5343 14.7096 16.5265 14.7096 16.5219 14.7096C16.5063 14.7065 16.4923 14.7034 16.4799 14.7018C16.4768 14.7018 16.4737 14.7018 16.469 14.7018C16.3773 14.6972 16.284 14.7127 16.2 14.7547C16.1674 14.7687 16.1378 14.7858 16.1098 14.806C16.0927 14.8153 16.0772 14.8293 16.0585 14.8402C16.0523 14.8495 16.0477 14.8588 16.0414 14.8682C16.0166 14.8868 15.9979 14.907 15.9808 14.9303L15.1071 15.8119C13.5228 15.0143 12.3039 13.6757 11.2078 11.8707L12.0131 11.0762C12.0287 11.0622 12.0442 11.0482 12.0567 11.0311C12.0691 11.0217 12.0816 11.0094 12.0924 10.9969C12.0924 10.9938 12.0924 10.9907 12.0924 10.9891C12.1018 10.9767 12.1142 10.9674 12.1251 10.9534C12.1251 10.9502 12.1251 10.9487 12.1251 10.9471C12.1329 10.9362 12.136 10.9285 12.1422 10.9192C12.15 10.913 12.1546 10.9067 12.1608 10.902C12.1671 10.888 12.1748 10.8726 12.1779 10.8586C12.1779 10.8555 12.1779 10.8538 12.1779 10.8492C12.1811 10.8445 12.1842 10.8383 12.1888 10.8321C12.1935 10.8196 12.1982 10.8103 12.2059 10.7963C12.209 10.7823 12.2122 10.7684 12.2137 10.7544C12.2137 10.7513 12.2137 10.7497 12.2137 10.7451C12.2184 10.728 12.2215 10.7109 12.223 10.6922C12.223 10.6907 12.223 10.6875 12.223 10.6828C12.223 10.6688 12.223 10.6533 12.223 10.6393C12.223 10.6362 12.223 10.6347 12.223 10.6331C12.223 10.6175 12.223 10.602 12.223 10.588C12.223 10.5818 12.223 10.5772 12.223 10.5709C12.2199 10.5554 12.2184 10.5398 12.2137 10.5258C12.2137 10.5227 12.2137 10.5195 12.2137 10.518C12.2059 10.4853 12.1935 10.4528 12.1795 10.4217C12.1795 10.4201 12.1795 10.417 12.1795 10.4154C12.1686 10.3921 12.1577 10.3672 12.1453 10.3439L12.1375 10.3268C12.1329 10.3237 12.1313 10.3221 12.1282 10.319L9.63597 6.22854C9.53957 6.06685 9.36389 5.96422 9.17266 5.958C9.15556 5.95178 9.13535 5.95184 9.1198 5.95184ZM8.91768 7.18469L10.9575 10.5476L10.1086 11.3871C9.93137 11.5659 9.89561 11.8411 10.0215 12.0603C11.3151 14.3022 12.848 16.0435 14.9936 16.9904C15.2034 17.0852 15.4491 17.0385 15.6123 16.8784L16.5125 15.9767L19.7992 18.032C19.4354 18.8482 18.9612 19.338 18.4171 19.621C17.789 19.9506 17.0225 20.0112 16.1456 19.8309C14.3919 19.4671 12.2759 18.0895 10.5501 16.3265C8.82751 14.5634 7.492 12.4148 7.14996 10.6704C6.98205 9.79819 7.05512 9.04725 7.37851 8.45179C7.65836 7.93873 8.12944 7.49874 8.91768 7.18469Z" fill="white" stroke="white" stroke-width="0.5"/>
<path d="M17.0568 21.2488C16.6805 21.2488 16.2841 21.2068 15.8798 21.1228C13.8774 20.7062 11.6541 19.3318 9.61896 17.2485C7.62269 15.2087 6.25609 12.903 5.86896 10.9207C5.63731 9.72979 5.75547 8.6897 6.22344 7.82682C6.73183 6.88621 7.67089 6.18195 8.9411 5.79327C8.99085 5.77616 9.04838 5.76364 9.10435 5.76053H9.1712C9.4355 5.76986 9.66871 5.90674 9.80086 6.12596L12.3133 10.2475C12.3257 10.2724 12.3397 10.3003 12.3506 10.3268L12.3693 10.3735C12.3817 10.4061 12.3941 10.4387 12.4019 10.4729L12.4159 10.6922C12.4144 10.7295 12.4097 10.7559 12.4035 10.7792C12.4019 10.8072 12.3988 10.8228 12.3941 10.8383L12.3568 10.9316C12.3506 10.9549 12.346 10.9658 12.3413 10.9767L12.2869 11.0715L12.2293 11.1368C12.2122 11.1539 12.1951 11.171 12.178 11.185C12.1811 11.1834 12.1672 11.2005 12.1423 11.2223L11.4535 11.9033C12.5558 13.6866 13.711 14.8588 15.0683 15.5771L15.8425 14.7966C15.8503 14.7842 15.8705 14.764 15.8938 14.7422L15.9591 14.677L16.0851 14.8262L16.0104 14.6427C16.0322 14.624 16.0757 14.5992 16.1224 14.579C16.211 14.5355 16.3214 14.5106 16.4333 14.5106L16.4986 14.5121C16.5219 14.5137 16.5422 14.5183 16.567 14.5246C16.665 14.5401 16.7552 14.5774 16.8344 14.6271L16.9013 14.6738L16.9029 14.6707L20.8892 17.1707C21.1846 17.3589 21.3105 17.7211 21.1955 18.0538C20.7415 19.3365 19.9905 20.2848 19.0235 20.7917C18.4451 21.0933 17.7813 21.2488 17.0568 21.2488ZM9.16498 6.14617H9.11834C9.11057 6.14773 9.08569 6.15241 9.06081 6.16174C7.88389 6.52243 7.02257 7.16137 6.56392 8.01025C6.14104 8.79072 6.03532 9.74532 6.24987 10.8445C6.623 12.7537 7.95229 14.9894 9.89726 16.9748C11.8795 19.0037 14.0328 20.3408 15.9591 20.7419C17.0506 20.9658 18.0425 20.8647 18.8432 20.4449C19.7231 19.9816 20.4103 19.111 20.8301 17.9216C20.8861 17.7615 20.8254 17.5858 20.6824 17.4957L16.6261 14.9505C16.5872 14.9257 16.5437 14.9086 16.5017 14.8993L16.4349 14.8945C16.382 14.8945 16.3307 14.9055 16.2841 14.9273C16.2576 14.9382 16.2405 14.949 16.2265 14.9599L16.1193 15.064L15.1445 16.0466L15.0185 15.9829C13.5058 15.2211 12.2418 13.9462 11.0415 11.9686L10.9622 11.838L11.9837 10.8104V10.7621L12.0257 10.6922L12.0272 10.5864L12.0179 10.5569V10.5305C12.0179 10.5305 12.0101 10.5165 12.0039 10.5025L11.9837 10.4527C11.9806 10.4465 11.979 10.4419 11.9759 10.4372L11.979 10.4356L9.46971 6.32495C9.40441 6.21768 9.29091 6.15084 9.16498 6.14617ZM17.0661 20.1247C16.766 20.1247 16.4442 20.0905 16.1084 20.0206C14.3687 19.6599 12.2402 18.329 10.4134 16.4633C8.59284 14.5992 7.30397 12.449 6.96193 10.7077C6.78314 9.78262 6.8671 8.99128 7.21069 8.35851C7.53563 7.75527 8.07045 7.31216 8.84471 7.00277L8.99863 6.94214L11.2017 10.5771L10.244 11.5239C10.1305 11.639 10.1071 11.8194 10.1895 11.9608C11.6137 14.4282 13.1653 15.9689 15.0729 16.8101C15.2129 16.8738 15.373 16.8395 15.4772 16.7369L16.4846 15.7264L20.0465 17.9559L19.9781 18.1098C19.6205 18.9136 19.1386 19.4639 18.5089 19.792C18.0891 20.0127 17.604 20.1247 17.0661 20.1247ZM8.83849 7.42875C8.2337 7.69771 7.81237 8.06314 7.55273 8.54355C7.25267 9.09548 7.1827 9.7982 7.34284 10.6331C7.66467 12.2764 8.94732 14.4064 10.6902 16.1913C12.4657 18.0041 14.5195 19.2945 16.1861 19.6412C17.0241 19.8138 17.7533 19.7485 18.3285 19.45C18.8385 19.1826 19.2396 18.7425 19.5506 18.1051L16.5406 16.2239L15.7492 17.0152C15.5269 17.2313 15.188 17.2904 14.9112 17.1691C12.9259 16.2938 11.3167 14.7018 9.85062 12.1583C9.68115 11.8645 9.72935 11.4913 9.96722 11.2519L10.7088 10.518L8.83849 7.42875Z" fill="white" stroke="white" stroke-width="0.5"/>
<path d="M13.501 1.19432C6.71459 1.19432 1.19531 6.7089 1.19531 13.4999C1.19531 15.9689 1.92603 18.2745 3.21646 20.2537L1.84052 24.8448C1.75035 25.1417 1.91826 25.4527 2.21521 25.5413C2.32715 25.5739 2.44687 25.5724 2.55725 25.5335L7.05197 23.9834C8.92541 25.137 11.1393 25.8056 13.501 25.8056C20.2905 25.8056 25.8066 20.2894 25.8066 13.4999C25.8066 6.71046 20.2905 1.19432 13.501 1.19432ZM13.501 2.31216C19.6872 2.31216 24.6888 7.31369 24.6888 13.4999C24.6888 19.6862 19.6857 24.6877 13.501 24.6877C11.2591 24.6877 9.17261 24.0285 7.42977 22.8982C7.28362 22.8018 7.10483 22.7832 6.94314 22.8376L3.22579 24.1203L4.36229 20.3221C4.41049 20.1604 4.38406 19.9862 4.28766 19.8463C3.02523 17.9931 2.31472 15.832 2.31472 13.4999C2.31627 7.31369 7.31782 2.31216 13.501 2.31216Z" fill="white" stroke="white" stroke-width="0.5"/>
<path d="M13.5 25.9999C11.2099 25.9999 8.97419 25.378 7.02612 24.198L2.61847 25.7186C2.47077 25.7683 2.30752 25.7715 2.15827 25.7295C1.96393 25.6704 1.80535 25.5414 1.70896 25.3657C1.61412 25.1884 1.59391 24.9848 1.65143 24.7904L3.00093 20.2863C1.69185 18.2434 1 15.8989 1 13.5C1 6.60786 6.6079 1 13.5 1C20.3937 1 26 6.60786 26 13.5C26 20.3936 20.3937 25.9999 13.5 25.9999ZM7.07432 23.7705L7.15205 23.8187C9.05659 24.9925 11.2519 25.6112 13.5 25.6112C20.1791 25.6112 25.6113 20.1791 25.6113 13.5C25.6113 6.82242 20.1791 1.38868 13.5 1.38868C6.82245 1.38868 1.38868 6.82242 1.38868 13.5C1.38868 15.8538 2.07587 18.1517 3.37718 20.1465L3.42693 20.2226L2.02612 24.9008C1.99813 24.9956 2.00746 25.0936 2.0541 25.1791C2.10075 25.2646 2.17848 25.3283 2.27177 25.3548C2.34173 25.3781 2.42413 25.3765 2.49409 25.3501L7.07432 23.7705ZM13.5 24.8821C11.2954 24.8821 9.1592 24.2524 7.32307 23.06C7.22823 22.9993 7.10852 22.9869 7.0028 23.0211L2.92942 24.4266L4.17475 20.2646C4.2074 20.1604 4.18874 20.0469 4.12655 19.9552C2.81437 18.0304 2.1194 15.7963 2.1194 13.5C2.1194 7.22354 7.22357 2.11784 13.4984 2.11784C19.7749 2.11784 24.8806 7.22354 24.8806 13.5C24.8822 19.7764 19.7764 24.8821 13.5 24.8821ZM7.12407 22.6138C7.27021 22.6138 7.41325 22.6557 7.53451 22.7366C9.3069 23.8855 11.37 24.495 13.5 24.495C19.5619 24.495 24.4935 19.5634 24.4935 13.5015C24.4935 7.43961 19.5619 2.50804 13.5 2.50804C7.43968 2.50804 2.50964 7.43961 2.50964 13.5015C2.50964 15.7216 3.17973 17.8765 4.44838 19.7391C4.57743 19.9272 4.61318 20.1604 4.54789 20.3796L3.51866 23.8156L6.87687 22.6542C6.95927 22.6262 7.04011 22.6138 7.12407 22.6138Z" fill="white" stroke="white" stroke-width="0.5"/>
</svg>
