<svg width="9" height="18" viewBox="0 0 9 18" fill="none" xmlns="http://www.w3.org/2000/svg">
<path d="M8.11009 0.661796C8.23074 0.679814 8.3358 0.697715 8.42583 0.714524L8.11543 2.48666C8.11518 2.48661 8.11494 2.48656 8.11469 2.48652C7.80514 2.42796 7.3824 2.36629 6.96319 2.36629C6.54439 2.36629 6.08718 2.43633 5.71709 2.65601C5.31525 2.89453 5.04342 3.2975 5.04342 3.84852L5.04342 4.14126L5.04342 5.10527L5.04342 5.94918L5.04342 6.44918H5.54342H8.07719L7.94237 8.1396H5.54342L5.04342 8.1396L5.04342 8.6396L5.04342 17.488H2.42897L2.42897 8.63853L2.42897 8.13853H1.92897H0.5L0.5 6.4481H1.92897H2.42897L2.42897 5.9481L2.42897 5.1042L2.42897 4.27852L2.42897 4.14019C2.42897 3.74353 2.4351 3.27219 2.50869 2.81297C2.58304 2.34904 2.7191 1.94741 2.94336 1.66251L2.94385 1.66187C3.22421 1.3045 3.54342 1.02054 3.94506 0.822833C4.34728 0.624844 4.85935 0.5 5.54342 0.5C6.73681 0.5 7.57619 0.582064 8.11009 0.661796Z" fill="#EC5F65" stroke="#EC5F65"/>
</svg>
