<svg width="41" height="39" viewBox="0 0 41 39" fill="none" xmlns="http://www.w3.org/2000/svg">
<path d="M20.3857 8.99536C14.3303 8.99536 9.40234 13.709 9.40234 19.5012C9.40234 25.2934 14.3303 30.0046 20.3857 30.0046C26.4412 30.0046 31.3665 25.2934 31.3665 19.5012C31.3665 13.709 26.4412 8.99536 20.3857 8.99536ZM20.3857 27.0111C16.0555 27.0111 12.5345 23.6406 12.5345 19.5012C12.5345 15.3593 16.0555 11.9913 20.3857 11.9913C24.7133 11.9913 28.237 15.3593 28.237 19.5012C28.2344 23.6406 24.7133 27.0111 20.3857 27.0111Z" fill="#EC5F65"/>
<path d="M32.5648 10.012C33.3649 10.012 34.0134 9.39162 34.0134 8.62636C34.0134 7.86109 33.3649 7.24072 32.5648 7.24072C31.7648 7.24072 31.1162 7.86109 31.1162 8.62636C31.1162 9.39162 31.7648 10.012 32.5648 10.012Z" fill="#EC5F65"/>
<path d="M31.3215 0H9.44603C4.2284 0 0 4.04705 0 9.03783V29.9622C0 34.9529 4.23101 39 9.44603 39H31.3215C36.5391 39 40.7701 34.9529 40.7701 29.9622V9.04033C40.7701 4.04705 36.5391 0 31.3215 0ZM37.638 29.9622C37.638 33.2927 34.8034 36.004 31.3215 36.004H9.44603C5.96413 36.004 3.13215 33.2927 3.13215 29.9622V9.04033C3.13215 5.70981 5.96413 2.99846 9.44603 2.99846H31.3215C34.8034 2.99846 37.638 5.70732 37.638 9.04033V29.9622Z" fill="#EC5F65"/>
</svg>
