<svg width="242" height="115" viewBox="0 0 242 115" fill="none" xmlns="http://www.w3.org/2000/svg">
<path d="M239.774 22.5576C232.038 30.3361 221.886 34.2219 211.724 34.2219C201.558 34.2219 191.399 30.3327 183.656 22.5506C183.648 22.5398 183.641 22.529 183.631 22.5147C179.018 17.8727 172.884 15.3132 166.359 15.3132H166.351C159.854 15.3132 153.753 17.8475 149.144 22.4429C149.112 22.4788 149.083 22.5183 149.055 22.5506C141.318 30.3291 131.159 34.2184 121.004 34.2184C110.838 34.2184 100.68 30.3255 92.9502 22.5399C92.9395 22.5291 92.9325 22.5147 92.9182 22.504C88.3055 17.8655 82.1682 15.3062 75.6463 15.3062H75.6354C69.1455 15.3062 63.0441 17.8367 58.4385 22.425C58.3993 22.4644 58.3744 22.5004 58.3459 22.5399C50.6235 30.3184 40.4612 34.2074 30.3061 34.2074C20.1403 34.2074 9.97793 30.3219 2.23066 22.5399C-0.74001 19.5575 -0.743539 14.711 2.22001 11.7179C5.18712 8.72836 9.99935 8.72481 12.97 11.7072C22.4983 21.2815 37.9679 21.3137 47.5032 11.8039C47.5389 11.768 47.5566 11.7288 47.5887 11.6929C55.0795 4.15101 65.0352 0 75.6391 0H75.6498C86.2537 0.00358457 96.2094 4.16157 103.7 11.7107L103.722 11.7358C113.228 21.2887 128.666 21.3066 138.219 11.8111C138.251 11.7717 138.276 11.7358 138.308 11.6999C145.795 4.15802 155.748 0.00721989 166.348 0.00721989H166.362C176.963 0.0108045 186.918 4.16879 194.409 11.7179C194.416 11.7251 194.42 11.7358 194.43 11.7465C203.98 21.3209 219.492 21.3137 229.028 11.7286C231.998 8.73908 236.814 8.73921 239.778 11.7323C242.745 14.7326 242.738 19.5716 239.774 22.5576ZM166.369 40.4089H166.355C155.751 40.4089 145.799 44.5597 138.315 52.1016C138.276 52.1374 138.251 52.1769 138.226 52.2127C128.673 61.7083 113.236 61.6977 103.729 52.1412C103.722 52.1304 103.715 52.1197 103.707 52.1125C96.2166 44.567 86.2609 40.4052 75.6569 40.4016H75.6426C65.0422 40.4016 55.0867 44.5527 47.5959 52.0946C44.6287 55.0877 44.6358 59.9305 47.5993 62.9128C50.57 65.9024 55.3893 65.8987 58.3528 62.9091C62.9691 58.2635 69.1135 55.7041 75.6426 55.7041H75.6498C82.1753 55.7041 88.3124 58.26 92.9252 62.8984C92.9394 62.9092 92.9467 62.9234 92.9574 62.9378C100.687 70.7199 110.845 74.6128 121.011 74.6128C131.166 74.6128 141.325 70.727 149.062 62.9485C149.097 62.9091 149.122 62.8732 149.151 62.8374C153.76 58.2419 159.862 55.7113 166.355 55.7113H166.366C172.902 55.7113 179.043 58.2742 183.656 62.9306C185.141 64.4253 187.086 65.1746 189.034 65.1746C190.979 65.1746 192.927 64.429 194.409 62.9378C197.38 59.959 197.383 55.1091 194.42 52.1195C186.922 44.5669 176.966 40.4125 166.369 40.4089ZM138.319 92.507C128.762 102.11 113.243 102.11 103.7 92.5032C100.74 89.5209 95.9209 89.5173 92.9502 92.5032C89.9831 95.4856 89.9795 100.332 92.9502 103.321C100.68 111.111 110.838 115 121.004 115C131.159 115 141.318 111.114 149.055 103.339C152.025 100.353 152.029 95.5036 149.062 92.5177C146.102 89.5246 141.29 89.521 138.319 92.507Z" fill="white"/>
</svg>
