<svg width="249" height="299" viewBox="0 0 249 299" fill="none" xmlns="http://www.w3.org/2000/svg">
<path d="M21.4096 194.385H7.97538V207.713H0V170.245H22.9621V177.256H7.97538V187.373H21.4096V194.385Z" fill="white"/>
<path d="M60.2169 206.536V207.659H51.6531L43.9455 195.296H37.2548V207.659H29.2266V170.192C34.579 170.192 39.8785 170.139 45.2302 170.192C53.794 170.192 58.4516 176.401 58.4516 183.038C58.4516 187.802 56.0428 191.977 51.7609 194.064L60.2169 206.536ZM45.1766 188.712C48.548 188.712 50.7433 186.089 50.689 182.878C50.689 179.72 48.6023 177.204 45.1766 177.204H37.1476V188.712H45.1766Z" fill="white"/>
<path d="M89.1222 177.257H74.2427V184.858H88.1582V191.87H74.2427V200.434H89.5507V207.713H66.1602V170.245H89.1222V177.257Z" fill="white"/>
<path d="M119.74 177.257H104.859V184.858H118.776V191.87H104.859V200.434H120.168V207.713H96.7783V170.245H119.74V177.257Z" fill="white"/>
<path d="M141.365 170.3C153.301 170.3 159.724 179.345 159.724 188.873C159.885 198.454 153.461 207.714 141.365 207.714H127.449V170.3H141.365ZM141.258 200.488C148.163 200.488 151.749 194.921 151.749 188.926C151.749 182.932 148.055 177.525 141.258 177.525H135.424V200.488H141.258Z" fill="white"/>
<path d="M182.422 201.345V207.715H163.795V201.345H169.094V176.456H164.223V170.247H181.994V176.456H177.123V201.345H182.422Z" fill="white"/>
<path d="M202.976 194.333L206.937 182.344L211.968 170.248H220.479V171.425L204.529 208.036H201.21L185.099 171.425V170.248H193.609L198.641 182.291L202.816 194.333H202.976Z" fill="white"/>
<path d="M248.099 177.258H233.219V184.859H247.135V191.87H233.219V200.434H248.527V207.713H225.137V170.246H248.099V177.258Z" fill="white"/>
<path d="M58.5753 235.25C58.7081 237.343 60.9862 238.111 62.9986 238.111C64.9596 238.111 67.2905 237.529 67.2905 235.223C67.2905 232.787 64.7746 232.548 62.6279 232.336C59.2373 232.045 55.873 230.959 55.873 227.25C55.873 223.435 59.2372 221.634 62.84 221.634C66.3636 221.634 69.7007 223.224 69.7807 227.012H66.867C66.7342 225.025 64.6425 224.389 62.8136 224.389C61.119 224.389 58.9202 225.078 58.9202 227.171C58.9202 229.264 61.0133 229.528 63.1586 229.82C66.9206 230.244 70.3641 230.986 70.3641 235.25C70.3641 239.33 66.5228 240.866 63.0528 240.866C59.4236 240.945 55.6352 239.144 55.5566 235.25H58.5753Z" fill="white"/>
<path d="M87.4489 221.765C91.0781 221.765 94.8402 223.778 95.82 227.964H92.8534C91.9258 225.659 89.8605 224.6 87.4232 224.573C83.6354 224.573 81.1188 227.328 81.1188 231.275C81.1188 234.957 83.6354 237.898 87.4232 237.898C89.9669 237.898 92.1115 236.653 92.9334 234.19H95.9264C94.9995 238.719 91.1845 240.706 87.4232 240.706C82.39 240.706 78.0195 237.236 78.0195 231.275C78.0188 225.289 82.3893 221.765 87.4489 221.765Z" fill="white"/>
<path d="M116.058 240.522V232.257H107.581V240.522H104.508V221.979H107.581V229.423H116.058V221.979H119.157V240.522H116.058Z" fill="white"/>
<path d="M137.382 240.759C132.296 240.759 127.979 237.289 127.979 231.249C127.979 225.209 132.402 221.739 137.435 221.739C142.495 221.739 146.866 225.209 146.866 231.249C146.867 236.891 142.972 240.759 137.382 240.759ZM137.436 237.845C140.906 237.845 143.794 235.567 143.794 231.249C143.794 227.01 140.932 224.626 137.462 224.626C133.966 224.626 131.105 226.958 131.105 231.249C131.104 235.566 133.939 237.845 137.436 237.845Z" fill="white"/>
<path d="M163.978 240.759C158.892 240.759 154.574 237.289 154.574 231.249C154.574 225.209 158.997 221.739 164.031 221.739C169.09 221.739 173.462 225.209 173.462 231.249C173.462 236.891 169.567 240.759 163.978 240.759ZM164.031 237.845C167.501 237.845 170.389 235.567 170.389 231.249C170.389 227.01 167.527 224.626 164.057 224.626C160.561 224.626 157.7 226.958 157.7 231.249C157.7 235.566 160.534 237.845 164.031 237.845Z" fill="white"/>
<path d="M185.382 237.741H193.355V240.522H182.282V221.979H185.382V237.741Z" fill="white"/>
<path d="M165.138 265.941C162.367 268.711 158.726 270.094 155.086 270.094C151.445 270.094 147.803 268.71 145.03 265.938C145.027 265.934 145.024 265.93 145.02 265.926C143.368 264.275 141.169 263.363 138.831 263.363H138.828C136.5 263.363 134.314 264.265 132.663 265.901C132.65 265.916 132.643 265.929 132.63 265.942C129.857 268.712 126.218 270.095 122.578 270.095C118.935 270.095 115.296 268.71 112.525 265.937C112.522 265.934 112.519 265.929 112.514 265.925C110.862 264.273 108.663 263.363 106.325 263.363H106.322C103.994 263.363 101.81 264.264 100.158 265.899C100.146 265.913 100.139 265.927 100.125 265.94C97.3572 268.71 93.7173 270.094 90.0766 270.094C86.436 270.094 82.794 268.71 80.0175 265.94C78.9527 264.879 78.9512 263.154 80.0131 262.088C81.0757 261.023 82.8004 261.022 83.8651 262.084C87.2801 265.492 92.8225 265.504 96.2396 262.119C96.2532 262.107 96.2596 262.092 96.2732 262.079C98.9561 259.394 102.525 257.916 106.322 257.916H106.326C110.125 257.917 113.695 259.398 116.377 262.085C116.38 262.088 116.382 262.091 116.385 262.094C119.792 265.496 125.325 265.501 128.748 262.119C128.76 262.105 128.766 262.091 128.78 262.079C131.463 259.394 135.031 257.916 138.828 257.916H138.832C142.629 257.917 146.199 259.398 148.882 262.085C148.885 262.088 148.887 262.092 148.89 262.094C152.312 265.504 157.87 265.502 161.286 262.089C162.35 261.025 164.074 261.025 165.14 262.089C166.202 263.154 166.202 264.879 165.138 265.941ZM138.833 272.296H138.829C135.033 272.296 131.464 273.775 128.781 276.459C128.767 276.472 128.761 276.486 128.748 276.499C125.325 279.882 119.794 279.876 116.387 276.475C116.384 276.472 116.382 276.468 116.379 276.465C113.696 273.778 110.127 272.297 106.327 272.296H106.323C102.526 272.296 98.9568 273.775 96.2739 276.46C95.2112 277.523 95.2119 279.248 96.2746 280.311C97.3393 281.374 99.0639 281.373 100.128 280.309C101.781 278.656 103.981 277.743 106.325 277.743H106.327C108.665 277.743 110.864 278.654 112.517 280.305C112.521 280.309 112.524 280.315 112.527 280.319C115.298 283.091 118.94 284.475 122.58 284.475C126.221 284.475 129.859 283.091 132.632 280.323C132.645 280.309 132.652 280.296 132.665 280.283C134.316 278.645 136.502 277.743 138.83 277.743H138.834C141.175 277.743 143.375 278.657 145.031 280.314C145.562 280.846 146.26 281.112 146.957 281.112C147.654 281.112 148.349 280.848 148.881 280.318C149.945 279.256 149.946 277.531 148.885 276.465C146.201 273.779 142.632 272.297 138.833 272.296ZM128.782 290.849C125.359 294.267 119.795 294.267 116.378 290.847C115.316 289.786 113.592 289.785 112.527 290.847C111.462 291.909 111.462 293.633 112.525 294.699C115.296 297.471 118.937 298.857 122.578 298.857C126.218 298.857 129.857 297.472 132.63 294.703C133.694 293.641 133.695 291.916 132.632 290.852C131.571 289.788 129.847 289.786 128.782 290.849Z" fill="#08B0A0"/>
<path d="M146.795 43.9394C147.366 43.3667 147.682 42.6062 147.682 41.7971C147.682 41.0029 147.377 40.2567 146.825 39.6889C138.799 32.2484 128.392 28.1507 117.523 28.1507C102.921 28.1507 89.4159 35.4513 81.3977 47.6779C80.5728 48.9369 78.884 49.2868 77.6271 48.4634C76.3695 47.6379 76.0182 45.949 76.8423 44.6921C85.8717 30.9244 101.078 22.7048 117.523 22.7048C129.793 22.7048 141.531 27.3331 150.574 35.7369C150.597 35.7598 150.62 35.7826 150.645 35.8055C152.247 37.4059 153.129 39.5354 153.129 41.7999C153.128 44.0623 152.248 46.189 150.647 47.7915C148.994 49.4432 146.823 50.2688 144.653 50.2688C142.484 50.2688 140.314 49.444 138.662 47.7907C137.599 46.7274 137.599 45.0028 138.662 43.9394C139.726 42.8761 141.45 42.8761 142.514 43.9402C143.695 45.1185 145.614 45.1178 146.795 43.9394ZM170.339 119.776C172.197 121.636 172.197 124.66 170.34 126.518C168.48 128.377 165.452 128.377 163.593 126.519C162.53 125.456 160.805 125.457 159.741 126.521C158.679 127.585 158.679 129.31 159.743 130.373C163.727 134.351 170.206 134.351 174.19 130.37C178.173 126.389 178.172 119.909 174.19 115.924C170.207 111.942 163.726 111.943 159.793 115.875C148.324 126.76 133.312 132.755 117.523 132.755C86.4894 132.755 60.8314 110.209 56.6666 79.8316H71.4785C72.9831 79.8316 74.2021 78.6119 74.2021 77.1079V65.5247C74.2021 64.0215 72.9831 62.8025 71.4785 62.8025H56.6666C60.8314 32.4255 86.4894 9.87829 117.523 9.87829C133.312 9.87829 148.325 15.8727 159.743 26.7075C163.726 30.6895 170.206 30.6888 174.19 26.7075C176.119 24.7793 177.181 22.2135 177.181 19.4855C177.181 16.7568 176.119 14.1916 174.189 12.2621C170.207 8.28293 163.728 8.28151 159.743 12.2599C158.679 13.3233 158.678 15.0472 159.74 16.1119C160.803 17.1753 162.527 17.176 163.593 16.1141C165.452 14.2559 168.479 14.2559 170.338 16.1141C171.239 17.016 171.734 18.2122 171.734 19.4862C171.734 20.7588 171.239 21.9571 170.338 22.8562C168.479 24.7143 165.453 24.7151 163.542 22.8069C151.057 10.9581 134.713 4.43305 117.521 4.43305C100.707 4.43305 84.6363 10.6953 72.2676 22.0656C59.9738 33.3667 52.3876 48.7155 50.9057 65.2841C50.8365 66.0461 51.0921 66.8009 51.6077 67.3651C52.1233 67.9292 52.8532 68.2506 53.6166 68.2506H68.754V74.3857H53.6166C52.8532 74.3857 52.1226 74.707 51.6077 75.2712C51.0907 75.8346 50.8365 76.5895 50.9057 77.3507C52.3876 93.9185 59.9738 109.267 72.2676 120.569C84.6363 131.94 100.707 138.202 117.521 138.202C134.713 138.202 151.057 131.676 163.593 119.778C165.453 117.918 168.478 117.918 170.339 119.776ZM117.523 114.483C102.921 114.483 89.4159 107.182 81.3977 94.9554C80.5735 93.6972 78.8833 93.3458 77.6271 94.1713C76.3695 94.9962 76.0182 96.6844 76.8423 97.9419C85.8717 111.709 101.078 119.929 117.523 119.929C129.793 119.929 141.531 115.3 150.574 106.897C150.597 106.875 150.62 106.851 150.645 106.828C152.247 105.227 153.129 103.099 153.129 100.835C153.128 98.5725 152.248 96.4444 150.645 94.8405C147.34 91.5383 141.965 91.5391 138.663 94.8426C137.6 95.906 137.6 97.6306 138.663 98.6953C139.727 99.758 141.451 99.7587 142.515 98.6946C143.696 97.5163 145.616 97.5142 146.793 98.6925C147.367 99.2652 147.682 100.027 147.682 100.836C147.682 101.63 147.378 102.377 146.826 102.944C138.798 110.386 128.392 114.483 117.523 114.483ZM180.74 109.286C184.43 112.977 186.465 117.883 186.465 123.102C186.465 128.323 184.43 133.23 180.74 136.921C176.93 140.728 171.924 142.634 166.919 142.634C161.915 142.634 156.913 140.73 153.103 136.925C152.039 135.862 152.038 134.137 153.101 133.072C154.163 132.01 155.887 132.01 156.953 133.07C162.449 138.563 171.392 138.562 176.888 133.067C179.551 130.406 181.016 126.867 181.016 123.102C181.016 119.339 179.55 115.799 176.888 113.138C171.392 107.646 162.449 107.647 156.953 113.138C156.933 113.157 156.913 113.178 156.894 113.196C146.157 123.293 132.175 128.852 117.521 128.852C104.928 128.852 92.9687 124.858 82.9366 117.301C73.2352 109.995 65.9611 99.6009 62.4525 88.037C62.2026 87.2114 62.3583 86.3174 62.8718 85.6246C63.3859 84.9305 64.1965 84.5234 65.0591 84.5234H87.0536C88.2519 80.2122 92.2018 77.0351 96.8879 77.0351C101.574 77.0351 105.522 80.2122 106.721 84.5234H115.39C128.238 84.5234 140.368 79.7374 149.081 71.317C140.368 62.8953 128.238 58.1092 115.39 58.1092H106.721C105.522 62.4204 101.574 65.5976 96.8879 65.5976C92.2018 65.5976 88.2512 62.4204 87.0536 58.1092H65.0591C64.1965 58.1092 63.3845 57.7014 62.8718 57.0087C62.359 56.316 62.2026 55.4212 62.4525 54.5964C65.9596 43.0318 73.2352 32.639 82.9366 25.3313C92.9687 17.7751 104.928 13.781 117.521 13.781C132.175 13.781 146.158 19.3405 156.894 29.4369C156.913 29.4554 156.933 29.4762 156.953 29.4947C162.449 34.9864 171.392 34.9864 176.889 29.4947C179.551 26.8339 181.016 23.2947 181.016 19.5305C181.016 15.7663 179.55 12.2271 176.888 9.56623C171.393 4.07314 162.451 4.07171 156.953 9.56265C155.889 10.6253 154.165 10.6246 153.101 9.56052C152.038 8.49646 152.039 6.77255 153.103 5.70921C160.723 -1.90485 173.121 -1.90272 180.739 5.71348C184.429 9.40339 186.463 14.3102 186.463 19.5305C186.463 24.7508 184.429 29.6576 180.739 33.3482C173.13 40.9508 160.756 40.9629 153.133 33.3796C143.416 24.2537 130.77 19.2284 117.521 19.2284C95.6511 19.2284 76.5394 32.5177 68.8668 52.664H87.0507C88.2447 48.3471 92.1975 45.1649 96.8886 45.1649C101.579 45.1649 105.532 48.3471 106.724 52.664H115.389C130.668 52.664 145.067 58.7912 154.892 69.4739C154.931 69.5146 154.957 69.5624 154.992 69.6053C155.051 69.6781 155.106 69.7488 155.156 69.8259C155.206 69.9009 155.25 69.9788 155.291 70.058C155.332 70.1352 155.37 70.2144 155.403 70.2951C155.437 70.3787 155.464 70.4622 155.489 70.5479C155.513 70.6308 155.535 70.7129 155.552 70.7979C155.569 70.8843 155.58 70.9714 155.588 71.0592C155.597 71.1456 155.603 71.2306 155.603 71.317C155.603 71.4042 155.597 71.4899 155.588 71.5763C155.58 71.6641 155.57 71.7498 155.552 71.8362C155.537 71.9212 155.513 72.004 155.489 72.0883C155.464 72.1726 155.437 72.2554 155.404 72.3382C155.37 72.4211 155.33 72.5011 155.289 72.5796C155.248 72.6582 155.206 72.7339 155.156 72.8089C155.105 72.886 155.049 72.9588 154.989 73.0317C154.955 73.0745 154.93 73.1209 154.892 73.1623C145.065 83.845 130.666 89.9715 115.388 89.9715H106.724C105.53 94.2877 101.578 97.4706 96.8872 97.4706C92.1968 97.4706 88.2433 94.2877 87.05 89.9715H68.8661C76.5387 110.119 95.6503 123.406 117.521 123.406C130.769 123.406 143.415 118.382 153.132 109.256C160.757 101.672 173.13 101.681 180.74 109.286ZM101.657 55.3769C101.657 52.7489 99.5195 50.6101 96.8894 50.6101C94.2599 50.6101 92.1196 52.7489 92.1196 55.3769C92.1196 58.0099 94.2599 60.1502 96.8894 60.1502C99.5195 60.1502 101.657 58.0099 101.657 55.3769ZM92.1196 87.255C92.1196 89.8844 94.2599 92.0232 96.8894 92.0232C99.5195 92.0232 101.657 89.8844 101.657 87.255C101.657 84.6227 99.5195 82.4818 96.8894 82.4818C94.2606 82.4818 92.1196 84.6227 92.1196 87.255Z" fill="#08B0A0"/>
</svg>
