<svg width="54" height="77" viewBox="0 0 54 77" fill="none" xmlns="http://www.w3.org/2000/svg">
<path d="M19.7792 44.8879C17.9016 44.8879 16.3747 46.4137 16.3747 48.2894C16.3747 50.1667 17.902 51.6928 19.7792 51.6928C21.6545 51.6928 23.1799 50.1663 23.1799 48.2894C23.1799 46.4137 21.6545 44.8879 19.7792 44.8879ZM19.7792 49.3492C19.1942 49.3492 18.7182 48.8745 18.7182 48.2898C18.7182 47.7059 19.1938 47.2315 19.7792 47.2315C20.3619 47.2315 20.8363 47.7063 20.8363 48.2898C20.8363 48.8741 20.3619 49.3492 19.7792 49.3492ZM6.66427 15.1237C6.66427 14.4764 7.18899 13.9517 7.83625 13.9517C10.133 13.9517 12.0017 15.8201 12.0017 18.1164V54.5119C12.0017 55.5168 12.8172 56.3342 13.8191 56.3342C14.8232 56.3342 15.6406 55.5168 15.6406 54.5119C15.6406 53.8647 16.1653 53.3403 16.8126 53.3403C17.4602 53.3403 17.9842 53.8647 17.9842 54.5119C17.9842 56.8094 16.1162 58.6782 13.8191 58.6782C11.5243 58.6782 9.65741 56.8098 9.65741 54.5119V18.1164C9.65741 17.1123 8.84036 16.2957 7.83625 16.2957C7.18899 16.2957 6.66427 15.7713 6.66427 15.1237ZM11.0898 72.8545C4.97487 72.8545 0 67.88 0 61.7654C0 61.1182 0.524731 60.5935 1.17199 60.5935C1.81925 60.5935 2.34397 61.1182 2.34397 61.7654C2.34397 66.5878 6.26746 70.5109 11.0902 70.5109C15.9129 70.5109 19.8364 66.5878 19.8364 61.7654V60.3472C18.3057 61.9429 16.1526 62.9374 13.7718 62.9374C9.13384 62.9374 5.36015 59.1649 5.36015 54.5269V41.6067C5.36015 40.7755 4.6837 40.099 3.85244 40.099C3.0208 40.099 2.34435 40.7755 2.34435 41.6067C2.34435 42.254 1.82001 42.7787 1.17236 42.7787C0.525106 42.7787 0.000386849 42.254 0.000386849 41.6067C0.000386849 39.4829 1.7282 37.7551 3.85206 37.7551C5.97552 37.7551 7.70334 39.4829 7.70334 41.6067V54.5269C7.70334 57.8719 10.4257 60.5935 13.7714 60.5935C17.1157 60.5935 19.8361 57.8719 19.8361 54.5269C19.8361 53.8797 20.3608 53.3553 21.0084 53.3553C21.6561 53.3553 22.1804 53.8797 22.1804 54.5269V61.7654C22.18 67.88 17.2052 72.8545 11.0898 72.8545ZM37.3116 48.2898C37.3116 46.4137 35.7844 44.8883 33.9071 44.8883C32.0318 44.8883 30.5064 46.4141 30.5064 48.2898C30.5064 50.167 32.0318 51.6932 33.9071 51.6932C35.7844 51.6932 37.3116 50.167 37.3116 48.2898ZM33.9067 49.3492C33.324 49.3492 32.8496 48.8745 32.8496 48.2898C32.8496 47.7059 33.324 47.2315 33.9067 47.2315C34.4918 47.2315 34.9681 47.7063 34.9681 48.2898C34.9681 48.8741 34.4921 49.3492 33.9067 49.3492ZM17.6381 9.05252C19.8549 5.85157 22.7351 3.06932 26.1976 0.783367C26.5891 0.524848 27.0973 0.524848 27.4883 0.783367C30.9512 3.06932 33.8314 5.85157 36.0479 9.05252C36.4166 9.58454 36.2841 10.3148 35.7517 10.6832C35.5485 10.8241 35.3153 10.8921 35.0856 10.8921C34.7142 10.8921 34.3489 10.7154 34.1211 10.3874C32.2139 7.63317 29.7677 5.21045 26.843 3.17687C23.9178 5.21045 21.4717 7.63317 19.5645 10.3874C19.1957 10.9186 18.4659 11.0515 17.9339 10.6835C17.4018 10.3152 17.2693 9.58454 17.6381 9.05252ZM38.0457 54.5119C38.0457 55.5168 38.8631 56.3342 39.8673 56.3342C40.8691 56.3342 41.6846 55.5168 41.6846 54.5119V18.1164C41.6846 15.8201 43.553 13.9517 45.8497 13.9517C46.4977 13.9517 47.022 14.4764 47.022 15.1237C47.022 15.7713 46.4977 16.2957 45.8497 16.2957C44.846 16.2957 44.0289 17.1123 44.0289 18.1164V54.5119C44.0289 56.8094 42.162 58.6782 39.8673 58.6782C37.5705 58.6782 35.7018 56.8098 35.7018 54.5119C35.7018 53.8647 36.2261 53.3403 36.8737 53.3403C37.521 53.3403 38.0457 53.8651 38.0457 54.5119ZM53.6863 61.7654C53.6863 67.88 48.7114 72.8545 42.5965 72.8545C36.4812 72.8545 31.5063 67.88 31.5063 61.7654V54.5269C31.5063 53.8797 32.0306 53.3553 32.6787 53.3553C33.3259 53.3553 33.8506 53.8797 33.8506 54.5269C33.8506 57.8719 36.571 60.5935 39.9153 60.5935C43.261 60.5935 45.9834 57.8719 45.9834 54.5269V41.6067C45.9834 39.4829 47.7112 37.7551 49.8354 37.7551C51.9585 37.7551 53.6863 39.4829 53.6863 41.6067C53.6863 42.254 53.162 42.7787 52.5147 42.7787C51.8675 42.7787 51.3428 42.254 51.3428 41.6067C51.3428 40.7755 50.6663 40.099 49.835 40.099C49.0034 40.099 48.3266 40.7755 48.3266 41.6067V54.5269C48.3266 59.1645 44.5533 62.9374 39.9149 62.9374C37.5341 62.9374 35.3814 61.9429 33.8503 60.3472V61.7654C33.8503 66.5878 37.7737 70.5109 42.5965 70.5109C47.4196 70.5109 51.3431 66.5878 51.3431 61.7654C51.3431 61.1182 51.8679 60.5935 52.5151 60.5935C53.1624 60.5935 53.6863 61.1182 53.6863 61.7654ZM15.5419 43.1052V27.2568C15.5419 18.7418 19.3966 10.8211 26.1177 5.52544C26.543 5.18972 27.143 5.18972 27.5682 5.52544C34.2893 10.8207 38.144 18.7414 38.144 27.2568V43.1052C38.144 43.5243 37.9209 43.9111 37.5586 44.1205C37.1964 44.3298 36.7497 44.3298 36.3867 44.1208C35.5996 43.6664 34.7687 43.4367 33.9175 43.4367C32.0345 43.4367 30.3347 44.4977 29.4812 46.2059C29.2756 46.6169 28.8619 46.8543 28.4317 46.8543C28.2558 46.8543 28.0772 46.8144 27.9089 46.7306C27.33 46.4414 27.0954 45.7376 27.3846 45.1584C28.6376 42.6508 31.1406 41.0928 33.9179 41.0928C34.5578 41.0928 35.187 41.1784 35.8009 41.3482V27.2568C35.8009 19.7759 32.5477 12.7955 26.8434 7.95929C21.1383 12.7955 17.8858 19.7763 17.8858 27.2568V41.3482C18.4997 41.1784 19.1289 41.0928 19.7688 41.0928C22.5453 41.0928 25.0487 42.6508 26.3017 45.1584C26.591 45.7376 26.3563 46.4414 25.7774 46.7306C25.1981 47.0203 24.4944 46.7852 24.2048 46.2059C23.3516 44.4977 21.6518 43.4367 19.7688 43.4367C18.9172 43.4367 18.0867 43.6668 17.2993 44.1208C16.9367 44.3298 16.4899 44.3298 16.1273 44.1205C15.7654 43.9111 15.5419 43.5243 15.5419 43.1052ZM40.7681 75.3121C40.7681 75.9594 40.2433 76.4841 39.5961 76.4841C33.2103 76.4841 28.0146 71.2892 28.0146 64.9042V54.5273C28.0146 53.8812 27.4891 53.3557 26.8434 53.3557C26.1973 53.3557 25.6717 53.8812 25.6717 54.5273V64.9042C25.6717 71.2892 20.476 76.4841 14.0903 76.4841C13.443 76.4841 12.9183 75.9594 12.9183 75.3121C12.9183 74.6645 13.443 74.1398 14.0903 74.1398C19.1838 74.1398 23.3278 69.997 23.3278 64.9038V54.5269C23.3278 52.5886 24.905 51.0117 26.8434 51.0117C28.7813 51.0117 30.3585 52.5886 30.3585 54.5269V64.9038C30.3585 69.997 34.5021 74.1398 39.5961 74.1398C40.2433 74.1398 40.7681 74.6645 40.7681 75.3121Z" fill="#EC5F65"/>
</svg>
