<svg width="135" height="39" viewBox="0 0 135 39" fill="none" xmlns="http://www.w3.org/2000/svg">
<path d="M12.1621 13.7663H4.93544V20.9353H0.645874V0.781555H12.9972V4.55294H4.93582V9.99452H12.1625V13.7663H12.1621Z" fill="white"/>
<path d="M33.0363 20.302V20.9062H28.4298L24.2839 14.2558H20.685V20.9062H16.3662V0.752837C19.2453 0.752837 22.0959 0.724412 24.9749 0.752837C29.5814 0.752837 32.0863 4.09246 32.0863 7.66256C32.0863 10.2251 30.7907 12.4711 28.4874 13.5935L33.0363 20.302ZM24.9461 10.7145C26.76 10.7145 27.9404 9.30356 27.9116 7.57613C27.9116 5.87751 26.7888 4.52423 24.9461 4.52423H20.6274V10.7145H24.9461Z" fill="white"/>
<path d="M48.5844 4.55302H40.5807V8.6417H48.0662V12.4131H40.5807V17.0196H48.8149V20.935H36.2335V0.78125H48.5848V4.55302H48.5844Z" fill="white"/>
<path d="M65.0536 4.55302H57.0498V8.6417H64.5354V12.4131H57.0498V17.0196H65.284V20.935H52.7026V0.78125H65.0539V4.55302H65.0536Z" fill="white"/>
<path d="M76.6862 0.810455C83.1066 0.810455 86.5614 5.67584 86.5614 10.8009C86.6478 15.9544 83.1926 20.9354 76.6862 20.9354H69.2007V0.810455H76.6862ZM76.6286 17.0484C80.3427 17.0484 82.2714 14.0541 82.2714 10.8297C82.2714 7.60531 80.2847 4.69707 76.6286 4.69707H73.4903V17.0484H76.6286Z" fill="white"/>
<path d="M98.7412 17.5099V20.936H88.7219V17.5099H91.5722V4.12188H88.9524V0.782257H98.5111V4.12188H95.8909V17.5099H98.7412Z" fill="white"/>
<path d="M109.797 13.7372L111.928 7.28806L114.634 0.781677H119.212V1.4151L110.633 21.1079H108.847L100.181 1.4151V0.781677H104.759L107.465 7.25964L109.711 13.7372H109.797Z" fill="white"/>
<path d="M134.069 4.55302H126.065V8.6417H133.551V12.4131H126.065V17.0196H134.299V20.935H121.718V0.78125H134.069V4.55302Z" fill="white"/>
<path d="M5.10114 37.2441V38.5835H0.284912V37.2441H1.86637V29.9345H0.41283V28.6096H4.97244V29.9345H3.5193V37.2441H5.10114Z" fill="white"/>
<path d="M11.1141 31.8005L11.2282 34.9638V38.583H9.58948V28.5803H10.1879L16.2438 35.2918L16.1297 32.2426V28.6091H17.7826V38.5977H17.2129L11.1141 31.8005Z" fill="white"/>
<path d="M24.8072 31.8005L24.9213 34.9638V38.583H23.2826V28.5803H23.8811L29.9369 35.2918L29.8228 32.2426V28.6091H31.4757V38.5977H30.906L24.8072 31.8005Z" fill="white"/>
<path d="M134.657 30.4164C133.464 31.6088 131.897 32.2038 130.331 32.2038C128.764 32.2038 127.197 31.608 126.003 30.4153C126.001 30.4137 126 30.4118 125.999 30.4107C125.287 29.6989 124.342 29.3075 123.335 29.3075H123.334C122.333 29.3075 121.391 29.6954 120.681 30.3999C120.676 30.4053 120.672 30.4114 120.667 30.4168C119.474 31.6092 117.907 32.2042 116.341 32.2042C114.774 32.2042 113.207 31.6076 112.015 30.4149C112.013 30.4134 112.012 30.4115 112.011 30.4099C111.299 29.6985 110.354 29.3075 109.347 29.3075H109.346C108.345 29.3075 107.403 29.6951 106.694 30.3984C106.689 30.4042 106.685 30.4107 106.679 30.4164C105.489 31.608 103.922 32.2038 102.355 32.2038C100.788 32.2038 99.2211 31.6084 98.0264 30.4161C97.5686 29.9589 97.5678 29.2168 98.0245 28.7585C98.4816 28.301 99.2238 28.3003 99.6816 28.757C101.152 30.2244 103.537 30.229 105.008 28.7716C105.013 28.7662 105.016 28.7605 105.021 28.7551C106.175 27.5996 107.711 26.9635 109.346 26.9635H109.347C110.982 26.9639 112.518 27.6012 113.673 28.7574C113.674 28.7585 113.675 28.7605 113.676 28.7616C115.142 30.2251 117.523 30.2271 118.995 28.772C119.001 28.7666 119.004 28.7605 119.01 28.7547C120.164 27.5996 121.7 26.9635 123.333 26.9635H123.336C124.97 26.9639 126.506 27.6012 127.66 28.7574C127.662 28.7589 127.662 28.7605 127.664 28.762C129.136 30.2286 131.529 30.2278 132.998 28.7593C133.457 28.3014 134.199 28.3014 134.656 28.7597C135.115 29.2172 135.115 29.9597 134.657 30.4164ZM123.337 33.1518H123.335C121.701 33.1518 120.166 33.7879 119.011 34.943C119.005 34.9484 119.002 34.9549 118.997 34.9603C117.524 36.4158 115.144 36.4131 113.677 34.9496C113.676 34.9484 113.675 34.9469 113.674 34.9457C112.52 33.7895 110.983 33.1522 109.349 33.1518H109.347C107.713 33.1518 106.177 33.788 105.023 34.9434C104.565 35.4005 104.565 36.143 105.023 36.6002C105.481 37.0577 106.223 37.0577 106.68 36.5998C107.392 35.8876 108.339 35.4954 109.347 35.4954H109.347C110.354 35.4954 111.3 35.8876 112.011 36.5978C112.013 36.5994 112.015 36.6021 112.016 36.6036C113.208 37.796 114.774 38.3925 116.342 38.3925C117.908 38.3925 119.475 37.7967 120.668 36.6052C120.673 36.5998 120.677 36.5936 120.682 36.5882C121.392 35.8841 122.333 35.4954 123.335 35.4954H123.336C124.344 35.4954 125.291 35.8884 126.002 36.6013C126.231 36.831 126.532 36.9455 126.832 36.9455C127.131 36.9455 127.431 36.8318 127.659 36.6032C128.117 36.1457 128.118 35.404 127.66 34.9457C126.507 33.7891 124.971 33.1522 123.337 33.1518Z" fill="#EC5F65"/>
</svg>
