<svg width="249" height="326" viewBox="0 0 249 326" fill="none" xmlns="http://www.w3.org/2000/svg">
<path d="M21.4096 221.528H7.97468V234.856H0V197.388H22.9621V204.4H7.97538V214.516H21.4103V221.528H21.4096Z" fill="white"/>
<path d="M60.2167 233.679V234.803H51.6529L43.9452 222.439H37.2545V234.803H29.2256V197.335C34.578 197.335 39.8776 197.282 45.23 197.335C53.7938 197.335 58.4507 203.544 58.4507 210.181C58.4507 214.945 56.0419 219.12 51.76 221.207L60.2167 233.679ZM45.1757 215.855C48.5478 215.855 50.7423 213.232 50.6888 210.021C50.6888 206.863 48.6014 204.347 45.1757 204.347H37.1467V215.855H45.1757Z" fill="white"/>
<path d="M89.1223 204.4H74.242V212.001H88.1582V219.013H74.242V227.577H89.55V234.856H66.1602V197.388H89.1223V204.4Z" fill="white"/>
<path d="M119.74 204.4H104.86V212.001H118.776V219.013H104.86V227.577H120.168V234.856H96.7783V197.388H119.74V204.4H119.74Z" fill="white"/>
<path d="M141.365 197.443C153.301 197.443 159.724 206.488 159.724 216.016C159.885 225.597 153.461 234.857 141.365 234.857H127.449V197.443H141.365ZM141.258 227.631C148.163 227.631 151.749 222.064 151.749 216.07C151.749 210.075 148.055 204.668 141.258 204.668H135.424V227.631H141.258Z" fill="white"/>
<path d="M182.367 228.489V234.858H163.74V228.489H169.039V203.599H164.169V197.391H181.939V203.599H177.068V228.489H182.367Z" fill="white"/>
<path d="M202.92 221.476L206.881 209.486L211.913 197.39H220.423V198.568L204.473 235.178H201.154L185.043 198.568V197.39H193.553L198.584 209.433L202.759 221.476H202.92Z" fill="white"/>
<path d="M248.045 204.4H233.166V212.001H247.082V219.013H233.166V227.577H248.474V234.856H225.083V197.388H248.045V204.4Z" fill="white"/>
<path d="M100.194 265.173V267.663H91.2402V265.173H94.1803V251.584H91.478V249.121H99.9548V251.584H97.2532V265.173H100.194Z" fill="white"/>
<path d="M111.373 255.054L111.586 260.935V267.663H108.539V249.067H109.652L120.91 261.545L120.698 255.876V249.121H123.771V267.69H122.712L111.373 255.054Z" fill="white"/>
<path d="M136.83 255.054L137.043 260.935V267.663H133.996V249.067H135.109L146.367 261.545L146.155 255.876V249.121H149.228V267.69H148.169L136.83 255.054Z" fill="white"/>
<path d="M163.645 293.085C160.875 295.854 157.234 297.237 153.594 297.237C149.952 297.237 146.311 295.853 143.538 293.081C143.534 293.077 143.531 293.073 143.528 293.069C141.875 291.418 139.677 290.506 137.338 290.506H137.336C135.008 290.506 132.822 291.408 131.171 293.044C131.158 293.059 131.15 293.072 131.138 293.085C128.365 295.855 124.725 297.238 121.085 297.238C117.443 297.238 113.803 295.853 111.033 293.08C111.029 293.077 111.027 293.072 111.023 293.068C109.369 291.416 107.171 290.506 104.833 290.506H104.83C102.503 290.506 100.318 291.407 98.6675 293.041C98.6547 293.055 98.6468 293.07 98.6333 293.084C95.8653 295.853 92.2254 297.237 88.5854 297.237C84.9434 297.237 81.302 295.853 78.5262 293.083C77.4614 292.022 77.46 290.297 78.5219 289.231C79.5838 288.166 81.3084 288.165 82.3732 289.227C85.7903 292.637 91.332 292.647 94.7498 289.261C94.7612 289.248 94.7691 289.234 94.7812 289.222C97.4635 286.537 101.033 285.059 104.83 285.059H104.835C108.634 285.061 112.204 286.541 114.886 289.228C114.889 289.231 114.891 289.234 114.894 289.237C118.3 292.639 123.832 292.644 127.255 289.262C127.268 289.248 127.275 289.234 127.288 289.222C129.971 286.537 133.539 285.059 137.336 285.059H137.34C141.138 285.061 144.707 286.541 147.39 289.228C147.393 289.231 147.395 289.235 147.398 289.237C150.82 292.647 156.378 292.645 159.795 289.232C160.859 288.168 162.583 288.168 163.647 289.232C164.71 290.297 164.709 292.022 163.645 293.085ZM137.34 299.439H137.336C133.539 299.439 129.971 300.918 127.288 303.602C127.275 303.615 127.268 303.629 127.255 303.642C123.832 307.024 118.3 307.019 114.894 303.618C114.891 303.615 114.889 303.611 114.886 303.608C112.204 300.921 108.634 299.44 104.835 299.439H104.83C101.033 299.439 97.4635 300.918 94.7812 303.603C93.7179 304.666 93.7186 306.391 94.7819 307.454C95.8467 308.517 97.5713 308.516 98.6339 307.452C100.288 305.799 102.488 304.886 104.831 304.886H104.834C107.172 304.886 109.37 305.797 111.023 307.448C111.028 307.452 111.03 307.458 111.033 307.462C113.804 310.234 117.445 311.618 121.086 311.618C124.725 311.618 128.366 310.234 131.139 307.466C131.151 307.452 131.159 307.439 131.172 307.426C132.822 305.788 135.009 304.886 137.336 304.886H137.339C139.681 304.886 141.882 305.8 143.537 307.457C144.068 307.989 144.766 308.255 145.463 308.255C146.16 308.255 146.856 307.991 147.388 307.461C148.452 306.399 148.453 304.674 147.39 303.608C144.708 300.922 141.139 299.44 137.34 299.439ZM127.289 317.992C123.866 321.41 118.303 321.41 114.885 317.99C113.823 316.929 112.098 316.928 111.033 317.99C109.97 319.052 109.969 320.776 111.032 321.842C113.803 324.614 117.443 326 121.085 326C124.724 326 128.365 324.615 131.138 321.846C132.202 320.784 132.202 319.06 131.14 317.995C130.078 316.931 128.352 316.929 127.289 317.992Z" fill="#EC5F65"/>
<path d="M104.669 102.943C100.307 102.943 96.7582 106.49 96.7582 110.848C96.7582 115.21 100.307 118.758 104.669 118.758C109.028 118.758 112.572 115.21 112.572 110.848C112.573 106.49 109.028 102.943 104.669 102.943ZM104.669 113.312C103.31 113.312 102.205 112.207 102.205 110.849C102.205 109.494 103.31 108.391 104.669 108.391C106.023 108.391 107.125 109.494 107.125 110.849C107.127 112.207 106.025 113.312 104.669 113.312ZM74.1924 33.7766C74.1924 32.2719 75.4114 31.0529 76.9154 31.0529C82.2528 31.0529 86.5947 35.3948 86.5947 40.7315V125.309C86.5947 127.645 88.49 129.544 90.8188 129.544C93.1526 129.544 95.0514 127.645 95.0514 125.309C95.0514 123.806 96.2705 122.587 97.7752 122.587C99.2784 122.587 100.497 123.806 100.497 125.309C100.497 130.649 96.1555 134.992 90.8181 134.992C85.4857 134.992 81.1473 130.649 81.1473 125.309V40.7308C81.1473 38.397 79.2485 36.4988 76.9147 36.4988C75.4115 36.4988 74.1924 35.2805 74.1924 33.7766ZM84.4766 167.934C70.2661 167.934 58.7051 156.374 58.7051 142.165C58.7051 140.66 59.9241 139.441 61.428 139.441C62.932 139.441 64.151 140.66 64.151 142.165C64.151 153.37 73.269 162.488 84.4759 162.488C95.6827 162.488 104.801 153.37 104.801 142.165V138.869C101.243 142.576 96.2405 144.888 90.7074 144.888C79.929 144.888 71.1595 136.121 71.1595 125.344V95.3189C71.1595 93.3871 69.5877 91.8153 67.6553 91.8153C65.7243 91.8153 64.1518 93.3871 64.1518 95.3189C64.1518 96.8235 62.9327 98.0425 61.4287 98.0425C59.9248 98.0425 58.7058 96.8235 58.7058 95.3189C58.7058 90.3835 62.7213 86.3687 67.656 86.3687C72.5913 86.3687 76.6069 90.3835 76.6069 95.3189V125.344C76.6069 133.117 82.9326 139.441 90.7081 139.441C98.4792 139.441 104.802 133.117 104.802 125.344C104.802 123.84 106.021 122.621 107.524 122.621C109.029 122.621 110.248 123.84 110.248 125.344V142.166C110.25 156.373 98.6871 167.934 84.4766 167.934ZM145.413 110.848C145.413 106.489 141.863 102.943 137.501 102.943C133.142 102.943 129.597 106.49 129.597 110.848C129.597 115.21 133.142 118.758 137.501 118.758C141.863 118.759 145.413 115.211 145.413 110.848ZM137.501 113.312C136.146 113.312 135.044 112.207 135.044 110.849C135.044 109.494 136.146 108.391 137.501 108.391C138.859 108.391 139.966 109.494 139.966 110.849C139.966 112.207 138.859 113.312 137.501 113.312ZM99.6933 19.6668C104.846 12.2284 111.538 5.76196 119.585 0.450973C120.494 -0.150324 121.676 -0.150324 122.585 0.450973C130.632 5.76267 137.324 12.2284 142.477 19.6668C143.333 20.9022 143.025 22.599 141.788 23.4559C141.316 23.7837 140.775 23.9416 140.24 23.9416C139.377 23.9416 138.528 23.5317 137.999 22.769C133.567 16.3689 127.881 10.738 121.084 6.01333C114.287 10.738 108.603 16.3689 104.17 22.769C103.314 24.0037 101.616 24.3129 100.38 23.4559C99.1448 22.5997 98.8363 20.9029 99.6933 19.6668ZM147.119 125.308C147.119 127.644 149.018 129.543 151.352 129.543C153.682 129.543 155.576 127.644 155.576 125.308V40.7308C155.576 35.3941 159.918 31.0522 165.255 31.0522C166.76 31.0522 167.979 32.2712 167.979 33.7759C167.979 35.2791 166.76 36.4981 165.255 36.4981C162.922 36.4981 161.023 38.3963 161.023 40.7301V125.308C161.023 130.647 156.684 134.989 151.352 134.989C146.015 134.989 141.673 130.647 141.673 125.308C141.673 123.804 142.892 122.586 144.395 122.586C145.9 122.586 147.119 123.805 147.119 125.308ZM183.465 142.165C183.465 156.373 171.905 167.934 157.694 167.934C143.484 167.934 131.921 156.374 131.921 142.165V125.343C131.921 123.84 133.14 122.621 134.645 122.621C136.148 122.621 137.367 123.84 137.367 125.343C137.367 133.117 143.69 139.441 151.461 139.441C159.237 139.441 165.562 133.117 165.562 125.343V95.3182C165.562 90.3828 169.578 86.368 174.513 86.368C179.449 86.368 183.464 90.3828 183.464 95.3182C183.464 96.8228 182.245 98.0418 180.741 98.0418C179.237 98.0418 178.018 96.8228 178.018 95.3182C178.018 93.3864 176.447 91.8146 174.514 91.8146C172.582 91.8146 171.01 93.3864 171.01 95.3182V125.343C171.01 136.12 162.24 144.887 151.462 144.887C145.929 144.887 140.926 142.576 137.368 138.868V142.164C137.368 153.369 146.487 162.487 157.694 162.487C168.901 162.487 178.018 153.369 178.018 142.164C178.018 140.66 179.237 139.441 180.742 139.441C182.246 139.441 183.465 140.66 183.465 142.165ZM94.8229 98.8002V61.9711C94.8229 42.1833 103.781 23.7773 119.4 11.47C120.389 10.6902 121.782 10.6902 122.771 11.47C138.391 23.7759 147.349 42.1826 147.349 61.9711V98.8002C147.349 99.7736 146.829 100.672 145.987 101.159C145.145 101.647 144.107 101.646 143.265 101.16C141.436 100.104 139.505 99.5694 137.526 99.5694C133.15 99.5694 129.201 102.036 127.217 106.005C126.74 106.96 125.778 107.513 124.779 107.513C124.369 107.513 123.954 107.42 123.563 107.224C122.218 106.553 121.673 104.917 122.344 103.572C125.256 97.744 131.074 94.1234 137.526 94.1234C139.014 94.1234 140.476 94.3227 141.903 94.7176V61.9719C141.903 44.5864 134.343 28.3635 121.086 17.1259C107.83 28.3635 100.271 44.5864 100.271 61.9719V94.7176C101.697 94.3227 103.159 94.1234 104.647 94.1234C111.099 94.1234 116.917 97.744 119.829 103.572C120.501 104.917 119.956 106.553 118.61 107.224C117.264 107.898 115.629 107.352 114.956 106.005C112.973 102.036 109.023 99.5694 104.647 99.5694C102.668 99.5694 100.737 100.104 98.9085 101.16C98.0658 101.646 97.0274 101.647 96.1855 101.159C95.3421 100.672 94.8229 99.7743 94.8229 98.8002ZM153.444 173.645C153.444 175.148 152.225 176.367 150.721 176.367C135.881 176.367 123.808 164.295 123.808 149.458V125.342C123.808 123.841 122.585 122.62 121.085 122.62C119.585 122.62 118.363 123.841 118.363 125.342V149.458C118.363 164.295 106.289 176.367 91.4487 176.367C89.9454 176.367 88.7264 175.148 88.7264 173.645C88.7264 172.141 89.9454 170.922 91.4487 170.922C103.286 170.922 112.916 161.293 112.916 149.458V125.343C112.916 120.839 116.581 117.175 121.085 117.175C125.591 117.175 129.254 120.84 129.254 125.343V149.458C129.254 161.292 138.883 170.922 150.721 170.922C152.225 170.921 153.444 172.141 153.444 173.645Z" fill="#EC5F65"/>
</svg>
