<svg width="200" height="77" viewBox="0 0 200 77" fill="none" xmlns="http://www.w3.org/2000/svg">
<path d="M77.1617 39.7663H69.9351V46.9353H65.6455V26.7816H77.9968V30.5529H69.9355V35.9945H77.1621V39.7663H77.1617Z" fill="white"/>
<path d="M98.0363 46.302V46.9062H93.4298L89.2839 40.2558H85.685V46.9062H81.3662V26.7528C84.2453 26.7528 87.0959 26.7244 89.9749 26.7528C94.5814 26.7528 97.0863 30.0925 97.0863 33.6626C97.0863 36.2251 95.7907 38.4711 93.4874 39.5935L98.0363 46.302ZM89.9461 36.7145C91.76 36.7145 92.9404 35.3036 92.9116 33.5761C92.9116 31.8775 91.7888 30.5242 89.9461 30.5242H85.6274V36.7145H89.9461Z" fill="white"/>
<path d="M113.584 30.553H105.581V34.6417H113.066V38.4131H105.581V43.0196H113.815V46.935H101.233V26.7812H113.585V30.553H113.584Z" fill="white"/>
<path d="M130.053 30.553H122.049V34.6417H129.535V38.4131H122.049V43.0196H130.284V46.935H117.702V26.7812H130.053V30.553H130.053Z" fill="white"/>
<path d="M141.687 26.8105C148.107 26.8105 151.562 31.6758 151.562 36.8009C151.648 41.9544 148.193 46.9354 141.687 46.9354H134.201V26.8105H141.687ZM141.629 43.0484C145.343 43.0484 147.272 40.0541 147.272 36.8297C147.272 33.6053 145.285 30.6971 141.629 30.6971H138.491V43.0484H141.629Z" fill="white"/>
<path d="M163.741 43.5099V46.936H153.722V43.5099H156.572V30.1219H153.952V26.7823H163.511V30.1219H160.891V43.5099H163.741Z" fill="white"/>
<path d="M174.797 39.7372L176.927 33.2881L179.634 26.7817H184.212V27.4151L175.632 47.1079H173.847L165.181 27.4151V26.7817H169.758L172.465 33.2596L174.71 39.7372H174.797Z" fill="white"/>
<path d="M199.069 30.553H191.065V34.6417H198.551V38.4131H191.065V43.0196H199.3V46.935H186.718V26.7812H199.069V30.553Z" fill="white"/>
<path d="M70.1014 63.2441V64.5835H65.2852V63.2441H66.8666V55.9345H65.4131V54.6096H69.9727V55.9345H68.5195V63.2441H70.1014Z" fill="white"/>
<path d="M76.1145 57.8005L76.2285 60.9638V64.583H74.5898V54.5803H75.1883L81.2441 61.2918L81.13 58.2426V54.6091H82.7829V64.5977H82.2133L76.1145 57.8005Z" fill="white"/>
<path d="M89.8068 57.8005L89.9209 60.9638V64.583H88.2822V54.5803H88.8807L94.9365 61.2918L94.8224 58.2426V54.6091H96.4753V64.5977H95.9057L89.8068 57.8005Z" fill="white"/>
<path d="M199.657 56.4164C198.464 57.6088 196.898 58.2038 195.331 58.2038C193.764 58.2038 192.197 57.608 191.003 56.4153C191.002 56.4137 191 56.4118 190.999 56.4107C190.287 55.6989 189.342 55.3075 188.335 55.3075H188.334C187.333 55.3075 186.391 55.6954 185.681 56.3999C185.676 56.4053 185.672 56.4114 185.667 56.4168C184.474 57.6092 182.907 58.2042 181.341 58.2042C179.774 58.2042 178.207 57.6076 177.015 56.4149C177.013 56.4134 177.012 56.4115 177.011 56.4099C176.299 55.6985 175.354 55.3075 174.347 55.3075H174.346C173.345 55.3075 172.404 55.6951 171.694 56.3984C171.689 56.4042 171.685 56.4107 171.679 56.4164C170.489 57.608 168.922 58.2038 167.355 58.2038C165.788 58.2038 164.221 57.6084 163.027 56.4161C162.569 55.9589 162.568 55.2168 163.025 54.7585C163.482 54.301 164.224 54.3003 164.682 54.757C166.152 56.2244 168.537 56.229 170.008 54.7716C170.013 54.7662 170.016 54.7605 170.021 54.7551C171.175 53.5996 172.712 52.9635 174.346 52.9635H174.347C175.982 52.9639 177.519 53.6012 178.673 54.7574C178.674 54.7585 178.675 54.7605 178.676 54.7616C180.142 56.2251 182.523 56.2271 183.995 54.772C184.001 54.7666 184.004 54.7605 184.01 54.7547C185.164 53.5996 186.7 52.9635 188.333 52.9635H188.336C189.97 52.9639 191.506 53.6012 192.66 54.7574C192.662 54.7589 192.663 54.7605 192.664 54.762C194.136 56.2286 196.529 56.2278 197.998 54.7593C198.457 54.3014 199.199 54.3014 199.656 54.7597C200.115 55.2172 200.115 55.9597 199.657 56.4164ZM188.337 59.1518H188.335C186.701 59.1518 185.166 59.7879 184.011 60.943C184.005 60.9484 184.002 60.9549 183.997 60.9603C182.524 62.4158 180.144 62.4131 178.678 60.9496C178.676 60.9484 178.676 60.9469 178.674 60.9457C177.52 59.7895 175.984 59.1522 174.349 59.1518H174.347C172.713 59.1518 171.177 59.788 170.023 60.9434C169.565 61.4005 169.565 62.143 170.023 62.6002C170.481 63.0577 171.224 63.0577 171.68 62.5998C172.392 61.8876 173.339 61.4954 174.347 61.4954H174.348C175.354 61.4954 176.3 61.8876 177.012 62.5978C177.013 62.5994 177.015 62.6021 177.016 62.6036C178.208 63.796 179.775 64.3925 181.342 64.3925C182.908 64.3925 184.475 63.7967 185.668 62.6052C185.673 62.5998 185.677 62.5936 185.682 62.5882C186.392 61.8841 187.333 61.4954 188.335 61.4954H188.336C189.344 61.4954 190.291 61.8884 191.002 62.6013C191.231 62.831 191.532 62.9455 191.832 62.9455C192.131 62.9455 192.431 62.8318 192.659 62.6032C193.117 62.1457 193.118 61.404 192.661 60.9457C191.507 59.7891 189.971 59.1522 188.337 59.1518Z" fill="#EC5F65"/>
<path d="M19.7792 44.8879C17.9016 44.8879 16.3747 46.4137 16.3747 48.2894C16.3747 50.1667 17.902 51.6928 19.7792 51.6928C21.6545 51.6928 23.1799 50.1663 23.1799 48.2894C23.1799 46.4137 21.6545 44.8879 19.7792 44.8879ZM19.7792 49.3492C19.1942 49.3492 18.7182 48.8745 18.7182 48.2898C18.7182 47.7059 19.1938 47.2315 19.7792 47.2315C20.3619 47.2315 20.8363 47.7063 20.8363 48.2898C20.8363 48.8741 20.3619 49.3492 19.7792 49.3492ZM6.66427 15.1237C6.66427 14.4764 7.18899 13.9517 7.83625 13.9517C10.133 13.9517 12.0017 15.8201 12.0017 18.1164V54.5119C12.0017 55.5168 12.8172 56.3342 13.8191 56.3342C14.8232 56.3342 15.6406 55.5168 15.6406 54.5119C15.6406 53.8647 16.1653 53.3403 16.8126 53.3403C17.4602 53.3403 17.9842 53.8647 17.9842 54.5119C17.9842 56.8094 16.1162 58.6782 13.8191 58.6782C11.5243 58.6782 9.65741 56.8098 9.65741 54.5119V18.1164C9.65741 17.1123 8.84036 16.2957 7.83625 16.2957C7.18899 16.2957 6.66427 15.7713 6.66427 15.1237ZM11.0898 72.8545C4.97487 72.8545 0 67.88 0 61.7654C0 61.1182 0.524731 60.5935 1.17199 60.5935C1.81925 60.5935 2.34397 61.1182 2.34397 61.7654C2.34397 66.5878 6.26746 70.5109 11.0902 70.5109C15.9129 70.5109 19.8364 66.5878 19.8364 61.7654V60.3472C18.3057 61.9429 16.1526 62.9374 13.7718 62.9374C9.13384 62.9374 5.36015 59.1649 5.36015 54.5269V41.6067C5.36015 40.7755 4.6837 40.099 3.85244 40.099C3.0208 40.099 2.34435 40.7755 2.34435 41.6067C2.34435 42.254 1.82001 42.7787 1.17236 42.7787C0.525106 42.7787 0.000386849 42.254 0.000386849 41.6067C0.000386849 39.4829 1.7282 37.7551 3.85206 37.7551C5.97552 37.7551 7.70334 39.4829 7.70334 41.6067V54.5269C7.70334 57.8719 10.4257 60.5935 13.7714 60.5935C17.1157 60.5935 19.8361 57.8719 19.8361 54.5269C19.8361 53.8797 20.3608 53.3553 21.0084 53.3553C21.6561 53.3553 22.1804 53.8797 22.1804 54.5269V61.7654C22.18 67.88 17.2052 72.8545 11.0898 72.8545ZM37.3116 48.2898C37.3116 46.4137 35.7844 44.8883 33.9071 44.8883C32.0318 44.8883 30.5064 46.4141 30.5064 48.2898C30.5064 50.167 32.0318 51.6932 33.9071 51.6932C35.7844 51.6932 37.3116 50.167 37.3116 48.2898ZM33.9067 49.3492C33.324 49.3492 32.8496 48.8745 32.8496 48.2898C32.8496 47.7059 33.324 47.2315 33.9067 47.2315C34.4918 47.2315 34.9681 47.7063 34.9681 48.2898C34.9681 48.8741 34.4921 49.3492 33.9067 49.3492ZM17.6381 9.05252C19.8549 5.85157 22.7351 3.06932 26.1976 0.783367C26.5891 0.524848 27.0973 0.524848 27.4883 0.783367C30.9512 3.06932 33.8314 5.85157 36.0479 9.05252C36.4166 9.58454 36.2841 10.3148 35.7517 10.6832C35.5485 10.8241 35.3153 10.8921 35.0856 10.8921C34.7142 10.8921 34.3489 10.7154 34.1211 10.3874C32.2139 7.63317 29.7677 5.21045 26.843 3.17687C23.9178 5.21045 21.4717 7.63317 19.5645 10.3874C19.1957 10.9186 18.4659 11.0515 17.9339 10.6835C17.4018 10.3152 17.2693 9.58454 17.6381 9.05252ZM38.0457 54.5119C38.0457 55.5168 38.8631 56.3342 39.8673 56.3342C40.8691 56.3342 41.6846 55.5168 41.6846 54.5119V18.1164C41.6846 15.8201 43.553 13.9517 45.8497 13.9517C46.4977 13.9517 47.022 14.4764 47.022 15.1237C47.022 15.7713 46.4977 16.2957 45.8497 16.2957C44.846 16.2957 44.0289 17.1123 44.0289 18.1164V54.5119C44.0289 56.8094 42.162 58.6782 39.8673 58.6782C37.5705 58.6782 35.7018 56.8098 35.7018 54.5119C35.7018 53.8647 36.2261 53.3403 36.8737 53.3403C37.521 53.3403 38.0457 53.8651 38.0457 54.5119ZM53.6863 61.7654C53.6863 67.88 48.7114 72.8545 42.5965 72.8545C36.4812 72.8545 31.5063 67.88 31.5063 61.7654V54.5269C31.5063 53.8797 32.0306 53.3553 32.6787 53.3553C33.3259 53.3553 33.8506 53.8797 33.8506 54.5269C33.8506 57.8719 36.571 60.5935 39.9153 60.5935C43.261 60.5935 45.9834 57.8719 45.9834 54.5269V41.6067C45.9834 39.4829 47.7112 37.7551 49.8354 37.7551C51.9585 37.7551 53.6863 39.4829 53.6863 41.6067C53.6863 42.254 53.162 42.7787 52.5147 42.7787C51.8675 42.7787 51.3428 42.254 51.3428 41.6067C51.3428 40.7755 50.6663 40.099 49.835 40.099C49.0034 40.099 48.3266 40.7755 48.3266 41.6067V54.5269C48.3266 59.1645 44.5533 62.9374 39.9149 62.9374C37.5341 62.9374 35.3814 61.9429 33.8503 60.3472V61.7654C33.8503 66.5878 37.7737 70.5109 42.5965 70.5109C47.4196 70.5109 51.3431 66.5878 51.3431 61.7654C51.3431 61.1182 51.8679 60.5935 52.5151 60.5935C53.1624 60.5935 53.6863 61.1182 53.6863 61.7654ZM15.5419 43.1052V27.2568C15.5419 18.7418 19.3966 10.8211 26.1177 5.52544C26.543 5.18972 27.143 5.18972 27.5682 5.52544C34.2893 10.8207 38.144 18.7414 38.144 27.2568V43.1052C38.144 43.5243 37.9209 43.9111 37.5586 44.1205C37.1964 44.3298 36.7497 44.3298 36.3867 44.1208C35.5996 43.6664 34.7687 43.4367 33.9175 43.4367C32.0345 43.4367 30.3347 44.4977 29.4812 46.2059C29.2756 46.6169 28.8619 46.8543 28.4317 46.8543C28.2558 46.8543 28.0772 46.8144 27.9089 46.7306C27.33 46.4414 27.0954 45.7376 27.3846 45.1584C28.6376 42.6508 31.1406 41.0928 33.9179 41.0928C34.5578 41.0928 35.187 41.1784 35.8009 41.3482V27.2568C35.8009 19.7759 32.5477 12.7955 26.8434 7.95929C21.1383 12.7955 17.8858 19.7763 17.8858 27.2568V41.3482C18.4997 41.1784 19.1289 41.0928 19.7688 41.0928C22.5453 41.0928 25.0487 42.6508 26.3017 45.1584C26.591 45.7376 26.3563 46.4414 25.7774 46.7306C25.1981 47.0203 24.4944 46.7852 24.2048 46.2059C23.3516 44.4977 21.6518 43.4367 19.7688 43.4367C18.9172 43.4367 18.0867 43.6668 17.2993 44.1208C16.9367 44.3298 16.4899 44.3298 16.1273 44.1205C15.7654 43.9111 15.5419 43.5243 15.5419 43.1052ZM40.7681 75.3121C40.7681 75.9594 40.2433 76.4841 39.5961 76.4841C33.2103 76.4841 28.0146 71.2892 28.0146 64.9042V54.5273C28.0146 53.8812 27.4891 53.3557 26.8434 53.3557C26.1973 53.3557 25.6717 53.8812 25.6717 54.5273V64.9042C25.6717 71.2892 20.476 76.4841 14.0903 76.4841C13.443 76.4841 12.9183 75.9594 12.9183 75.3121C12.9183 74.6645 13.443 74.1398 14.0903 74.1398C19.1838 74.1398 23.3278 69.997 23.3278 64.9038V54.5269C23.3278 52.5886 24.905 51.0117 26.8434 51.0117C28.7813 51.0117 30.3585 52.5886 30.3585 54.5269V64.9038C30.3585 69.997 34.5021 74.1398 39.5961 74.1398C40.2433 74.1398 40.7681 74.6645 40.7681 75.3121Z" fill="#EC5F65"/>
</svg>
