<svg width="34" height="50" viewBox="0 0 34 50" fill="none" xmlns="http://www.w3.org/2000/svg">
<path d="M16.5752 12.1422C14.4072 12.1422 12.6426 13.9063 12.6426 16.0743C12.6426 18.2423 14.4067 20.0059 16.5752 20.0059C18.7427 20.0059 20.5062 18.2428 20.5062 16.0743C20.5062 13.9068 18.7427 12.1422 16.5752 12.1422Z" fill="#EC5F65"/>
<path d="M16.5744 0C7.42043 0 0 7.42095 0 16.575C0 25.729 16.5744 50 16.5744 50C16.5744 50 33.1494 25.729 33.1494 16.575C33.1494 7.42095 25.7284 0 16.5744 0ZM16.5755 25.0613C11.6199 25.0613 7.58851 21.0289 7.58851 16.0743C7.58851 11.1188 11.6199 7.08737 16.5755 7.08737C21.5305 7.08737 25.5619 11.1188 25.5619 16.0743C25.5619 21.0289 21.53 25.0613 16.5755 25.0613Z" fill="#EC5F65"/>
</svg>
