<svg width="27" height="27" viewBox="0 0 27 27" fill="none" xmlns="http://www.w3.org/2000/svg">
<path d="M9.1198 5.95215C9.07938 5.95526 9.0374 5.96454 8.99853 5.97853C7.75319 6.36099 6.87011 7.03883 6.39436 7.91881C5.91706 8.79878 5.85487 9.83113 6.0601 10.8821C6.47054 12.9779 7.9211 15.2338 9.75879 17.1119C11.5949 18.9901 13.8073 20.4935 15.9202 20.932C16.9758 21.1512 18.0268 21.0936 18.9348 20.6163C19.8427 20.139 20.5672 19.2528 21.015 17.9872C21.1005 17.7416 21.0072 17.4711 20.788 17.3311L16.8017 14.8327L16.7939 14.8218C16.7722 14.8109 16.7535 14.7985 16.7317 14.7876C16.6742 14.7503 16.6089 14.7224 16.5405 14.7099C16.5343 14.7099 16.5265 14.7099 16.5219 14.7099C16.5063 14.7068 16.4923 14.7037 16.4799 14.7021C16.4768 14.7021 16.4737 14.7021 16.469 14.7021C16.3773 14.6975 16.284 14.713 16.2 14.755C16.1674 14.769 16.1378 14.7861 16.1098 14.8063C16.0927 14.8157 16.0772 14.8296 16.0585 14.8405C16.0523 14.8498 16.0477 14.8592 16.0414 14.8685C16.0166 14.8871 15.9979 14.9073 15.9808 14.9306L15.1071 15.8122C13.5228 15.0146 12.3039 13.676 11.2078 11.871L12.0131 11.0765C12.0287 11.0625 12.0442 11.0485 12.0567 11.0314C12.0691 11.0221 12.0816 11.0097 12.0924 10.9972C12.0924 10.9941 12.0924 10.991 12.0924 10.9894C12.1018 10.977 12.1142 10.9677 12.1251 10.9537C12.1251 10.9506 12.1251 10.949 12.1251 10.9474C12.1329 10.9365 12.136 10.9288 12.1422 10.9195C12.15 10.9133 12.1546 10.907 12.1608 10.9023C12.1671 10.8883 12.1748 10.8729 12.1779 10.8589C12.1779 10.8558 12.1779 10.8541 12.1779 10.8495C12.1811 10.8448 12.1842 10.8386 12.1888 10.8324C12.1935 10.82 12.1982 10.8106 12.2059 10.7966C12.209 10.7826 12.2122 10.7687 12.2137 10.7547C12.2137 10.7516 12.2137 10.75 12.2137 10.7454C12.2184 10.7283 12.2215 10.7112 12.223 10.6925C12.223 10.691 12.223 10.6878 12.223 10.6831C12.223 10.6691 12.223 10.6536 12.223 10.6396C12.223 10.6365 12.223 10.635 12.223 10.6334C12.223 10.6179 12.223 10.6023 12.223 10.5883C12.223 10.5821 12.223 10.5775 12.223 10.5713C12.2199 10.5557 12.2184 10.5401 12.2137 10.5261C12.2137 10.523 12.2137 10.5199 12.2137 10.5183C12.2059 10.4857 12.1935 10.4531 12.1795 10.422C12.1795 10.4204 12.1795 10.4173 12.1795 10.4157C12.1686 10.3924 12.1577 10.3675 12.1453 10.3442L12.1375 10.3271C12.1329 10.324 12.1313 10.3224 12.1282 10.3193L9.63597 6.22886C9.53957 6.06716 9.36389 5.96454 9.17266 5.95832C9.15556 5.9521 9.13535 5.95215 9.1198 5.95215ZM8.91768 7.185L10.9575 10.5479L10.1086 11.3874C9.93137 11.5662 9.89561 11.8414 10.0215 12.0606C11.3151 14.3025 12.848 16.0438 14.9936 16.9907C15.2034 17.0855 15.4491 17.0388 15.6123 16.8787L16.5125 15.977L19.7992 18.0323C19.4354 18.8485 18.9612 19.3383 18.4171 19.6213C17.789 19.9509 17.0225 20.0115 16.1456 19.8312C14.3919 19.4674 12.2759 18.0899 10.5501 16.3268C8.82751 14.5637 7.492 12.4151 7.14996 10.6707C6.98205 9.7985 7.05512 9.04756 7.37851 8.4521C7.65836 7.93904 8.12944 7.49905 8.91768 7.185Z" fill="white" stroke="white" stroke-width="0.5"/>
<path d="M17.0568 21.249C16.6805 21.249 16.2841 21.207 15.8798 21.1231C13.8774 20.7064 11.6541 19.332 9.61896 17.2487C7.62269 15.2089 6.25609 12.9032 5.86896 10.9209C5.63731 9.73001 5.75547 8.68991 6.22344 7.82704C6.73183 6.88643 7.67089 6.18216 8.9411 5.79348C8.99085 5.77638 9.04838 5.76385 9.10435 5.76074H9.1712C9.4355 5.77007 9.66871 5.90696 9.80086 6.12618L12.3133 10.2478C12.3257 10.2726 12.3397 10.3006 12.3506 10.327L12.3693 10.3737C12.3817 10.4063 12.3941 10.4389 12.4019 10.4731L12.4159 10.6924C12.4144 10.7297 12.4097 10.7561 12.4035 10.7794C12.4019 10.8074 12.3988 10.823 12.3941 10.8386L12.3568 10.9318C12.3506 10.9552 12.346 10.966 12.3413 10.9769L12.2869 11.0717L12.2293 11.137C12.2122 11.1541 12.1951 11.1712 12.178 11.1852C12.1811 11.1836 12.1672 11.2007 12.1423 11.2225L11.4535 11.9035C12.5558 13.6868 13.711 14.859 15.0683 15.5773L15.8425 14.7968C15.8503 14.7844 15.8705 14.7642 15.8938 14.7425L15.9591 14.6772L16.0851 14.8264L16.0104 14.6429C16.0322 14.6243 16.0757 14.5995 16.1224 14.5792C16.211 14.5357 16.3214 14.5108 16.4333 14.5108L16.4986 14.5123C16.5219 14.5139 16.5422 14.5186 16.567 14.5248C16.665 14.5403 16.7552 14.5776 16.8344 14.6274L16.9013 14.674L16.9029 14.6709L20.8892 17.171C21.1846 17.3591 21.3105 17.7213 21.1955 18.054C20.7415 19.3367 19.9905 20.285 19.0235 20.7919C18.4451 21.0935 17.7813 21.249 17.0568 21.249ZM9.16498 6.14639H9.11834C9.11057 6.14794 9.08569 6.15262 9.06081 6.16195C7.88389 6.52265 7.02257 7.16158 6.56392 8.01046C6.14104 8.79094 6.03532 9.74554 6.24987 10.8447C6.623 12.7539 7.95229 14.9896 9.89726 16.975C11.8795 19.0039 14.0328 20.341 15.9591 20.7422C17.0506 20.966 18.0425 20.8649 18.8432 20.4451C19.7231 19.9818 20.4103 19.1112 20.8301 17.9218C20.8861 17.7617 20.8254 17.586 20.6824 17.4959L16.6261 14.9507C16.5872 14.9259 16.5437 14.9088 16.5017 14.8995L16.4349 14.8948C16.382 14.8948 16.3307 14.9057 16.2841 14.9275C16.2576 14.9384 16.2405 14.9493 16.2265 14.9601L16.1193 15.0642L15.1445 16.0469L15.0185 15.9831C13.5058 15.2213 12.2418 13.9464 11.0415 11.9688L10.9622 11.8383L11.9837 10.8106V10.7624L12.0257 10.6924L12.0272 10.5866L12.0179 10.5571V10.5307C12.0179 10.5307 12.0101 10.5167 12.0039 10.5027L11.9837 10.4529C11.9806 10.4467 11.979 10.4421 11.9759 10.4374L11.979 10.4358L9.46971 6.32517C9.40441 6.21789 9.29091 6.15105 9.16498 6.14639ZM17.0661 20.1249C16.766 20.1249 16.4442 20.0907 16.1084 20.0208C14.3687 19.6601 12.2402 18.3292 10.4134 16.4635C8.59284 14.5994 7.30397 12.4492 6.96193 10.7079C6.78314 9.78283 6.8671 8.9915 7.21069 8.35872C7.53563 7.75549 8.07045 7.31238 8.84471 7.00299L8.99863 6.94235L11.2017 10.5773L10.244 11.5242C10.1305 11.6392 10.1071 11.8196 10.1895 11.961C11.6137 14.4284 13.1653 15.9692 15.0729 16.8103C15.2129 16.874 15.373 16.8397 15.4772 16.7371L16.4846 15.7266L20.0465 17.9561L19.9781 18.11C19.6205 18.9138 19.1386 19.4641 18.5089 19.7922C18.0891 20.013 17.604 20.1249 17.0661 20.1249ZM8.83849 7.42896C8.2337 7.69793 7.81237 8.06335 7.55273 8.54376C7.25267 9.09569 7.1827 9.79842 7.34284 10.6333C7.66467 12.2767 8.94732 14.4066 10.6902 16.1915C12.4657 18.0043 14.5195 19.2947 16.1861 19.6414C17.0241 19.814 17.7533 19.7487 18.3285 19.4502C18.8385 19.1828 19.2396 18.7427 19.5506 18.1053L16.5406 16.2241L15.7492 17.0154C15.5269 17.2315 15.188 17.2906 14.9112 17.1693C12.9259 16.294 11.3167 14.7021 9.85062 12.1585C9.68115 11.8647 9.72935 11.4915 9.96722 11.2521L10.7088 10.5182L8.83849 7.42896Z" fill="white" stroke="white" stroke-width="0.5"/>
<path d="M13.501 1.19434C6.71459 1.19434 1.19531 6.70892 1.19531 13.5C1.19531 15.9689 1.92603 18.2745 3.21646 20.2537L1.84052 24.8448C1.75035 25.1417 1.91826 25.4527 2.21521 25.5413C2.32715 25.574 2.44687 25.5724 2.55725 25.5335L7.05197 23.9835C8.92541 25.1371 11.1393 25.8056 13.501 25.8056C20.2905 25.8056 25.8066 20.2895 25.8066 13.5C25.8066 6.71047 20.2905 1.19434 13.501 1.19434ZM13.501 2.31218C19.6872 2.31218 24.6888 7.3137 24.6888 13.5C24.6888 19.6862 19.6857 24.6877 13.501 24.6877C11.2591 24.6877 9.17261 24.0285 7.42977 22.8983C7.28362 22.8019 7.10483 22.7832 6.94314 22.8376L3.22579 24.1203L4.36229 20.3221C4.41049 20.1604 4.38406 19.9862 4.28766 19.8463C3.02523 17.9931 2.31472 15.8321 2.31472 13.5C2.31627 7.3137 7.31782 2.31218 13.501 2.31218Z" fill="white" stroke="white" stroke-width="0.5"/>
<path d="M13.5 25.9999C11.2099 25.9999 8.97419 25.378 7.02612 24.198L2.61847 25.7186C2.47077 25.7683 2.30752 25.7715 2.15827 25.7295C1.96393 25.6704 1.80535 25.5414 1.70896 25.3657C1.61412 25.1884 1.59391 24.9848 1.65143 24.7904L3.00093 20.2863C1.69185 18.2434 1 15.8989 1 13.5C1 6.60786 6.6079 1 13.5 1C20.3937 1 26 6.60786 26 13.5C26 20.3936 20.3937 25.9999 13.5 25.9999ZM7.07432 23.7705L7.15205 23.8187C9.05659 24.9925 11.2519 25.6112 13.5 25.6112C20.1791 25.6112 25.6113 20.1791 25.6113 13.5C25.6113 6.82242 20.1791 1.38868 13.5 1.38868C6.82245 1.38868 1.38868 6.82242 1.38868 13.5C1.38868 15.8538 2.07587 18.1517 3.37718 20.1465L3.42693 20.2226L2.02612 24.9008C1.99813 24.9956 2.00746 25.0936 2.0541 25.1791C2.10075 25.2646 2.17848 25.3283 2.27177 25.3548C2.34173 25.3781 2.42413 25.3765 2.49409 25.3501L7.07432 23.7705ZM13.5 24.8821C11.2954 24.8821 9.1592 24.2524 7.32307 23.06C7.22823 22.9993 7.10852 22.9869 7.0028 23.0211L2.92942 24.4266L4.17475 20.2646C4.2074 20.1604 4.18874 20.0469 4.12655 19.9552C2.81437 18.0304 2.1194 15.7963 2.1194 13.5C2.1194 7.22354 7.22357 2.11784 13.4984 2.11784C19.7749 2.11784 24.8806 7.22354 24.8806 13.5C24.8822 19.7764 19.7764 24.8821 13.5 24.8821ZM7.12407 22.6138C7.27021 22.6138 7.41325 22.6557 7.53451 22.7366C9.3069 23.8855 11.37 24.495 13.5 24.495C19.5619 24.495 24.4935 19.5634 24.4935 13.5015C24.4935 7.43961 19.5619 2.50804 13.5 2.50804C7.43968 2.50804 2.50964 7.43961 2.50964 13.5015C2.50964 15.7216 3.17973 17.8765 4.44838 19.7391C4.57743 19.9272 4.61318 20.1604 4.54789 20.3796L3.51866 23.8156L6.87687 22.6542C6.95927 22.6262 7.04011 22.6138 7.12407 22.6138Z" fill="white" stroke="white" stroke-width="0.5"/>
</svg>
