<svg width="27" height="24" viewBox="0 0 27 24" fill="none" xmlns="http://www.w3.org/2000/svg">
<path d="M21.283 24C21.0765 24 20.8714 23.938 20.6954 23.8169L14.048 19.2406L10.4827 21.8443C10.203 22.0483 9.84262 22.0997 9.51793 21.9819C9.19366 21.8638 8.94739 21.5912 8.85948 21.2532L7.06928 14.3678L0.672709 11.8855C0.270019 11.7291 0.00295453 11.3382 2.43494e-05 10.9006C-0.00290583 10.463 0.258857 10.0683 0.659593 9.90647L24.9817 0.0843474C25.0921 0.0367661 25.2089 0.00929355 25.3266 0.00192979C25.3688 -0.000619207 25.4111 -0.00061913 25.4531 0.00178825C25.697 0.0165158 25.9365 0.117343 26.1235 0.303419C26.1429 0.322678 26.1613 0.342362 26.1788 0.362896C26.3337 0.542458 26.4188 0.761388 26.4348 0.984425C26.4387 1.0405 26.4384 1.09729 26.4336 1.15408C26.4302 1.19458 26.4245 1.23493 26.4164 1.27501L22.3109 23.1367C22.2449 23.4879 22.0094 23.7819 21.684 23.9189C21.555 23.9732 21.4186 24 21.283 24ZM14.6316 17.0757L20.553 21.1519L23.7474 4.14107L12.2099 15.4085L14.6037 17.0565C14.6134 17.0626 14.6226 17.0691 14.6316 17.0757ZM9.7024 16.1692L10.4952 19.2181L12.2034 17.9706L9.96667 16.4308C9.86272 16.3594 9.7737 16.2705 9.7024 16.1692ZM3.9259 10.8735L8.3181 12.5778C8.63274 12.6999 8.87022 12.9684 8.95618 13.2989L9.51319 15.4413C9.53872 15.1942 9.64909 14.9617 9.82839 14.7865L20.822 4.05044L3.9259 10.8735Z" fill="white"/>
</svg>
