<svg width="30" height="4" viewBox="0 0 30 4" fill="none" xmlns="http://www.w3.org/2000/svg">
<path d="M29.7241 2.63665C28.7655 3.54542 27.5061 4 26.2468 4C24.9866 4 23.7268 3.5454 22.7677 2.63537C22.7668 2.63454 22.7659 2.63286 22.7642 2.63202C22.1919 2.08945 21.432 1.78987 20.6226 1.78987L20.6217 1.78987C19.8167 1.78987 19.0604 2.08611 18.489 2.62282C18.4846 2.62743 18.4819 2.63204 18.4779 2.63581C17.5188 3.54499 16.2595 3.99959 15.0002 3.99959C13.7404 3.99959 12.4815 3.54458 11.5224 2.63456C11.5211 2.6333 11.5202 2.63162 11.5189 2.63036C10.9471 2.0882 10.1867 1.78905 9.37731 1.78905L9.37642 1.78905C8.57146 1.78905 7.81507 2.08484 7.24413 2.62113C7.24015 2.62574 7.23749 2.63037 7.23308 2.63456C6.27533 3.54374 5.016 3.99834 3.75666 3.99834C2.49732 3.99834 1.23711 3.54374 0.276709 2.63455C-0.0915564 2.28554 -0.0924623 1.71907 0.27536 1.36964C0.642741 1.02021 1.24019 1.01979 1.60846 1.36838C2.78964 2.4879 4.70689 2.49168 5.88896 1.37971C5.89337 1.37552 5.89603 1.37091 5.90001 1.36672C6.82817 0.485189 8.06278 7.04791e-07 9.37643 8.19634e-07L9.37775 8.1975e-07C10.6927 0.000419836 11.9278 0.486029 12.8555 1.36882C12.8564 1.36966 12.8568 1.37091 12.8582 1.37217C14.0367 2.48791 15.95 2.49083 17.1342 1.38053C17.1386 1.37592 17.1417 1.37173 17.1457 1.36754C18.0743 0.486008 19.308 0.000845451 20.6217 0.000845566L20.623 0.000845566C21.938 0.00126482 23.1717 0.486849 24.0999 1.36964C24.1012 1.37048 24.1017 1.37217 24.103 1.37342C25.2873 2.49252 27.2094 2.49168 28.3919 1.37133C28.7597 1.0219 29.3563 1.0219 29.7245 1.37133C30.0919 1.72118 30.0919 2.28764 29.7241 2.63665Z" fill="#08B0A0"/>
</svg>
