<svg width="1134" height="33" viewBox="0 0 1134 33" fill="none" xmlns="http://www.w3.org/2000/svg">
<path d="M0.625644 25.793C2.79664 23.624 5.64764 22.539 8.50064 22.539C11.3546 22.539 14.2066 23.624 16.3796 25.796C16.3816 25.798 16.3837 25.802 16.3857 25.804C17.6827 27.099 19.4047 27.814 21.2367 27.814H21.2386C23.0626 27.814 24.7756 27.107 26.0686 25.826C26.0786 25.815 26.0856 25.804 26.0926 25.795C28.2666 23.625 31.1177 22.54 33.9687 22.54C36.8227 22.54 39.6746 23.626 41.8446 25.798C41.8476 25.801 41.8506 25.805 41.8536 25.808C43.1496 27.102 44.8716 27.816 46.7036 27.816H46.7057C48.5287 27.816 50.2416 27.11 51.5346 25.83C51.5446 25.819 51.5496 25.808 51.5606 25.798C53.7286 23.628 56.5806 22.543 59.4316 22.543C62.2856 22.543 65.1376 23.628 67.3136 25.798C68.1486 26.631 68.1497 27.983 67.3177 28.817C66.4847 29.651 65.1326 29.652 64.2986 28.82C61.6236 26.148 57.2816 26.139 54.6046 28.793C54.5936 28.803 54.5876 28.814 54.5796 28.824C52.4766 30.928 49.6807 32.086 46.7057 32.086H46.7026C43.7246 32.085 40.9286 30.926 38.8276 28.819C38.8246 28.817 38.8236 28.814 38.8216 28.811C36.1526 26.148 31.8187 26.141 29.1357 28.791C29.1267 28.802 29.1207 28.812 29.1117 28.822C27.0077 30.926 24.2136 32.084 21.2386 32.084H21.2356C18.2586 32.083 15.4637 30.924 13.3617 28.817C13.3597 28.815 13.3576 28.811 13.3556 28.808C10.6726 26.137 6.31961 26.139 3.64261 28.813C2.80861 29.647 1.45761 29.647 0.624606 28.813C-0.208394 27.979 -0.208356 26.626 0.625644 25.793ZM21.2347 20.815H21.2376C24.2126 20.815 27.0076 19.658 29.1106 17.553C29.1206 17.543 29.1266 17.532 29.1346 17.522C31.8176 14.873 36.1517 14.876 38.8207 17.543C38.8227 17.545 38.8236 17.548 38.8266 17.55C40.9276 19.654 43.7246 20.816 46.7016 20.817H46.7046C49.6796 20.817 52.4756 19.66 54.5786 17.554C55.4116 16.721 55.4106 15.37 54.5776 14.537C53.7436 13.704 52.3917 13.704 51.5597 14.538C50.2627 15.835 48.5386 16.548 46.7046 16.548H46.7026C44.8706 16.548 43.1486 15.835 41.8526 14.541C41.8496 14.538 41.8476 14.534 41.8446 14.53C39.6736 12.359 36.8226 11.273 33.9676 11.273C31.1166 11.273 28.2656 12.358 26.0926 14.527C26.0836 14.538 26.0767 14.548 26.0677 14.557C24.7747 15.84 23.0616 16.546 21.2376 16.546H21.2356C19.4006 16.546 17.6756 15.831 16.3806 14.533C15.9636 14.115 15.4176 13.906 14.8706 13.906C14.3256 13.906 13.7796 14.114 13.3636 14.529C12.5296 15.362 12.5286 16.714 13.3606 17.548C15.4616 19.654 18.2577 20.814 21.2347 20.815ZM29.1086 6.27899C31.7906 3.59999 36.1496 3.59997 38.8276 6.27997C39.6596 7.11297 41.0107 7.11298 41.8437 6.28198C42.6777 5.44898 42.6776 4.09602 41.8446 3.26202C39.6746 1.09002 36.8237 0.00500488 33.9687 0.00500488C31.1177 0.00500488 28.2656 1.08897 26.0926 3.25897C25.2596 4.09097 25.2586 5.44402 26.0916 6.27802C26.9226 7.11202 28.2756 7.11199 29.1086 6.27899Z" fill="#EC5F65"/>
<path d="M584.626 25.793C586.797 23.624 589.648 22.539 592.501 22.539C595.355 22.539 598.207 23.624 600.38 25.796C600.382 25.798 600.384 25.802 600.386 25.804C601.683 27.099 603.405 27.814 605.237 27.814H605.239C607.063 27.814 608.776 27.107 610.069 25.826C610.079 25.815 610.086 25.804 610.093 25.795C612.267 23.625 615.118 22.54 617.969 22.54C620.823 22.54 623.675 23.626 625.845 25.798C625.848 25.801 625.851 25.805 625.854 25.808C627.15 27.102 628.872 27.816 630.704 27.816H630.706C632.529 27.816 634.242 27.11 635.535 25.83C635.545 25.819 635.55 25.808 635.561 25.798C637.729 23.628 640.581 22.543 643.432 22.543C646.286 22.543 649.138 23.628 651.314 25.798C652.149 26.631 652.15 27.983 651.318 28.817C650.485 29.651 649.133 29.652 648.299 28.82C645.624 26.148 641.282 26.139 638.605 28.793C638.594 28.803 638.588 28.814 638.58 28.824C636.477 30.928 633.681 32.086 630.706 32.086H630.703C627.725 32.085 624.929 30.926 622.828 28.819C622.825 28.817 622.824 28.814 622.822 28.811C620.153 26.148 615.819 26.141 613.136 28.791C613.127 28.802 613.121 28.812 613.112 28.822C611.008 30.926 608.214 32.084 605.239 32.084H605.236C602.259 32.083 599.464 30.924 597.362 28.817C597.36 28.815 597.358 28.811 597.356 28.808C594.673 26.137 590.32 26.139 587.643 28.813C586.809 29.647 585.458 29.647 584.625 28.813C583.792 27.979 583.792 26.626 584.626 25.793ZM605.235 20.815H605.238C608.213 20.815 611.008 19.658 613.111 17.553C613.121 17.543 613.127 17.532 613.135 17.522C615.818 14.873 620.152 14.876 622.821 17.543C622.823 17.545 622.824 17.548 622.827 17.55C624.928 19.654 627.725 20.816 630.702 20.817H630.705C633.68 20.817 636.476 19.66 638.579 17.554C639.412 16.721 639.411 15.37 638.578 14.537C637.744 13.704 636.392 13.704 635.56 14.538C634.263 15.835 632.539 16.548 630.705 16.548H630.703C628.871 16.548 627.149 15.835 625.853 14.541C625.85 14.538 625.848 14.534 625.845 14.53C623.674 12.359 620.823 11.273 617.968 11.273C615.117 11.273 612.266 12.358 610.093 14.527C610.084 14.538 610.077 14.548 610.068 14.557C608.775 15.84 607.062 16.546 605.238 16.546H605.236C603.401 16.546 601.676 15.831 600.381 14.533C599.964 14.115 599.418 13.906 598.871 13.906C598.326 13.906 597.78 14.114 597.364 14.529C596.53 15.362 596.529 16.714 597.361 17.548C599.462 19.654 602.258 20.814 605.235 20.815ZM613.109 6.27899C615.791 3.59999 620.15 3.59997 622.828 6.27997C623.66 7.11297 625.011 7.11298 625.844 6.28198C626.678 5.44898 626.678 4.09602 625.845 3.26202C623.675 1.09002 620.824 0.00500488 617.969 0.00500488C615.118 0.00500488 612.266 1.08897 610.093 3.25897C609.26 4.09097 609.259 5.44402 610.092 6.27802C610.923 7.11202 612.276 7.11199 613.109 6.27899Z" fill="#EC5F65"/>
<path d="M165.546 6.29297C163.375 8.46297 160.525 9.547 157.671 9.547C154.819 9.547 151.965 8.46202 149.792 6.29102C149.79 6.28802 149.789 6.28501 149.786 6.28101C148.49 4.98601 146.768 4.27197 144.936 4.27197H144.934C143.11 4.27197 141.397 4.97899 140.104 6.26099C140.093 6.27099 140.087 6.28202 140.079 6.29102C137.906 8.46102 135.054 9.54602 132.203 9.54602C129.349 9.54602 126.498 8.46002 124.327 6.28802C124.324 6.28503 124.322 6.28101 124.319 6.27802C123.023 4.98401 121.301 4.27002 119.468 4.27002H119.466C117.644 4.27002 115.931 4.97598 114.638 6.25598C114.627 6.26698 114.622 6.27702 114.613 6.28802C112.444 8.45802 109.592 9.54297 106.74 9.54297C103.886 9.54297 101.034 8.45902 98.859 6.28802C98.025 5.45603 98.0231 4.10398 98.8561 3.26898C99.6881 2.43498 101.039 2.43399 101.873 3.26599C104.549 5.93699 108.892 5.94597 111.568 3.29297C111.578 3.28297 111.584 3.27202 111.593 3.26202C113.696 1.15802 116.491 0 119.466 0H119.47C122.447 0.001 125.243 1.16097 127.345 3.26697C127.348 3.26897 127.349 3.27199 127.351 3.27399C130.021 5.93899 134.354 5.94398 137.036 3.29498C137.045 3.28398 137.051 3.27398 137.062 3.26398C139.164 1.15998 141.958 0.00201416 144.934 0.00201416H144.937C147.913 0.00301416 150.708 1.16298 152.811 3.26898C152.814 3.27098 152.815 3.27398 152.817 3.27698C155.499 5.94798 159.853 5.94597 162.53 3.27197C163.364 2.43797 164.714 2.43801 165.547 3.27301C166.38 4.10801 166.379 5.45997 165.546 6.29297ZM144.937 11.273H144.934C141.958 11.273 139.163 12.431 137.062 14.535C137.05 14.545 137.044 14.556 137.036 14.566C134.354 17.215 130.021 17.212 127.351 14.546C127.349 14.543 127.347 14.54 127.345 14.538C125.243 12.433 122.447 11.272 119.469 11.271H119.466C116.491 11.271 113.695 12.429 111.593 14.533C110.76 15.368 110.76 16.719 111.594 17.551C112.427 18.385 113.78 18.384 114.613 17.55C115.909 16.254 117.632 15.54 119.467 15.54H119.469C121.302 15.54 123.024 16.253 124.32 17.547C124.323 17.55 124.325 17.554 124.328 17.558C126.499 19.729 129.35 20.815 132.204 20.815C135.055 20.815 137.907 19.731 140.08 17.561C140.089 17.55 140.095 17.54 140.105 17.53C141.398 16.248 143.111 15.542 144.935 15.542H144.937C146.772 15.542 148.497 16.257 149.792 17.556C150.208 17.973 150.754 18.182 151.301 18.182C151.846 18.182 152.393 17.974 152.809 17.558C153.644 16.727 153.645 15.374 152.812 14.54C150.709 12.433 147.913 11.274 144.937 11.273ZM137.063 25.807C134.38 28.486 130.022 28.486 127.344 25.806C126.511 24.974 125.161 24.973 124.327 25.806C123.493 26.638 123.493 27.99 124.326 28.824C126.497 30.997 129.348 32.082 132.202 32.082C135.053 32.082 137.905 30.998 140.078 28.829C140.912 27.996 140.912 26.643 140.08 25.81C139.248 24.975 137.896 24.974 137.063 25.807Z" fill="white"/>
<path d="M747.546 6.29297C745.375 8.46297 742.525 9.547 739.671 9.547C736.819 9.547 733.965 8.46202 731.792 6.29102C731.79 6.28802 731.789 6.28501 731.786 6.28101C730.49 4.98601 728.768 4.27197 726.936 4.27197H726.934C725.11 4.27197 723.397 4.97899 722.104 6.26099C722.093 6.27099 722.087 6.28202 722.079 6.29102C719.906 8.46102 717.054 9.54602 714.203 9.54602C711.349 9.54602 708.498 8.46002 706.327 6.28802C706.324 6.28503 706.322 6.28101 706.319 6.27802C705.023 4.98401 703.301 4.27002 701.468 4.27002H701.466C699.644 4.27002 697.931 4.97598 696.638 6.25598C696.627 6.26698 696.622 6.27702 696.613 6.28802C694.444 8.45802 691.592 9.54297 688.74 9.54297C685.886 9.54297 683.034 8.45902 680.859 6.28802C680.025 5.45603 680.023 4.10398 680.856 3.26898C681.688 2.43498 683.039 2.43399 683.873 3.26599C686.549 5.93699 690.892 5.94597 693.568 3.29297C693.578 3.28297 693.584 3.27202 693.593 3.26202C695.696 1.15802 698.491 0 701.466 0H701.47C704.447 0.001 707.243 1.16097 709.345 3.26697C709.348 3.26897 709.349 3.27199 709.351 3.27399C712.021 5.93899 716.354 5.94398 719.036 3.29498C719.045 3.28398 719.051 3.27398 719.062 3.26398C721.164 1.15998 723.958 0.00201416 726.934 0.00201416H726.937C729.913 0.00301416 732.708 1.16298 734.811 3.26898C734.814 3.27098 734.815 3.27398 734.817 3.27698C737.499 5.94798 741.853 5.94597 744.53 3.27197C745.364 2.43797 746.714 2.43801 747.547 3.27301C748.38 4.10801 748.379 5.45997 747.546 6.29297ZM726.937 11.273H726.934C723.958 11.273 721.163 12.431 719.062 14.535C719.05 14.545 719.044 14.556 719.036 14.566C716.354 17.215 712.021 17.212 709.351 14.546C709.349 14.543 709.347 14.54 709.345 14.538C707.243 12.433 704.447 11.272 701.469 11.271H701.466C698.491 11.271 695.695 12.429 693.593 14.533C692.76 15.368 692.76 16.719 693.594 17.551C694.427 18.385 695.78 18.384 696.613 17.55C697.909 16.254 699.632 15.54 701.467 15.54H701.469C703.302 15.54 705.024 16.253 706.32 17.547C706.323 17.55 706.325 17.554 706.328 17.558C708.499 19.729 711.35 20.815 714.204 20.815C717.055 20.815 719.907 19.731 722.08 17.561C722.089 17.55 722.095 17.54 722.105 17.53C723.398 16.248 725.111 15.542 726.935 15.542H726.937C728.772 15.542 730.497 16.257 731.792 17.556C732.208 17.973 732.754 18.182 733.301 18.182C733.846 18.182 734.393 17.974 734.809 17.558C735.644 16.727 735.645 15.374 734.812 14.54C732.709 12.433 729.913 11.274 726.937 11.273ZM719.063 25.807C716.38 28.486 712.022 28.486 709.344 25.806C708.511 24.974 707.161 24.973 706.327 25.806C705.493 26.638 705.493 27.99 706.326 28.824C708.497 30.997 711.348 32.082 714.202 32.082C717.053 32.082 719.905 30.998 722.078 28.829C722.912 27.996 722.912 26.643 722.08 25.81C721.248 24.975 719.896 24.974 719.063 25.807Z" fill="white"/>
<path d="M197.087 25.793C199.258 23.624 202.11 22.539 204.962 22.539C207.816 22.539 210.669 23.624 212.841 25.796C212.843 25.798 212.845 25.802 212.849 25.804C214.145 27.099 215.866 27.814 217.699 27.814H217.701C219.524 27.814 221.237 27.107 222.531 25.826C222.541 25.815 222.547 25.804 222.556 25.795C224.728 23.625 227.58 22.54 230.432 22.54C233.285 22.54 236.136 23.626 238.308 25.798C238.311 25.801 238.313 25.805 238.316 25.808C239.611 27.102 241.333 27.816 243.166 27.816H243.168C244.991 27.816 246.704 27.11 247.997 25.83C248.006 25.819 248.012 25.808 248.022 25.798C250.191 23.628 253.043 22.543 255.895 22.543C258.747 22.543 261.601 23.628 263.776 25.798C264.61 26.631 264.612 27.983 263.779 28.817C262.947 29.651 261.594 29.652 260.76 28.82C258.085 26.148 253.743 26.139 251.066 28.793C251.056 28.803 251.05 28.814 251.041 28.824C248.939 30.928 246.143 32.086 243.168 32.086H243.165C240.187 32.085 237.39 30.926 235.289 28.819C235.287 28.817 235.286 28.814 235.283 28.811C232.614 26.148 228.281 26.141 225.599 28.791C225.589 28.802 225.582 28.812 225.573 28.822C223.47 30.926 220.676 32.084 217.701 32.084H217.698C214.72 32.083 211.926 30.924 209.824 28.817C209.821 28.815 209.82 28.811 209.817 28.808C207.135 26.137 202.782 26.139 200.104 28.813C199.271 29.647 197.92 29.647 197.086 28.813C196.254 27.978 196.254 26.626 197.087 25.793ZM217.698 20.815H217.701C220.676 20.815 223.471 19.658 225.573 17.553C225.583 17.543 225.59 17.532 225.599 17.522C228.281 14.873 232.614 14.876 235.283 17.543C235.286 17.545 235.287 17.548 235.289 17.55C237.391 19.654 240.187 20.816 243.165 20.817H243.168C246.143 20.817 248.939 19.66 251.041 17.554C251.874 16.721 251.874 15.37 251.04 14.537C250.206 13.704 248.855 13.704 248.022 14.538C246.726 15.835 245.002 16.548 243.168 16.548H243.166C241.333 16.548 239.611 15.835 238.316 14.541C238.313 14.538 238.311 14.534 238.308 14.53C236.136 12.359 233.285 11.273 230.432 11.273C227.58 11.273 224.728 12.358 222.556 14.527C222.546 14.538 222.54 14.548 222.531 14.557C221.237 15.84 219.524 16.546 217.701 16.546H217.699C215.864 16.546 214.138 15.831 212.843 14.533C212.427 14.115 211.881 13.906 211.334 13.906C210.789 13.906 210.243 14.114 209.826 14.529C208.992 15.362 208.991 16.714 209.824 17.548C211.925 19.654 214.72 20.814 217.698 20.815ZM225.572 6.27899C228.254 3.59999 232.613 3.59997 235.29 6.27997C236.123 7.11297 237.473 7.11298 238.308 6.28198C239.141 5.44898 239.142 4.09602 238.309 3.26202C236.137 1.09002 233.286 0.00500488 230.433 0.00500488C227.581 0.00500488 224.729 1.08897 222.557 3.25897C221.723 4.09097 221.721 5.44402 222.555 6.27802C223.385 7.11202 224.738 7.11199 225.572 6.27899Z" fill="#EC5F65"/>
<path d="M778.087 25.793C780.258 23.624 783.11 22.539 785.962 22.539C788.816 22.539 791.669 23.624 793.841 25.796C793.843 25.798 793.845 25.802 793.849 25.804C795.145 27.099 796.866 27.814 798.699 27.814H798.701C800.524 27.814 802.237 27.107 803.531 25.826C803.541 25.815 803.547 25.804 803.556 25.795C805.728 23.625 808.58 22.54 811.432 22.54C814.285 22.54 817.136 23.626 819.308 25.798C819.311 25.801 819.313 25.805 819.316 25.808C820.611 27.102 822.333 27.816 824.166 27.816H824.168C825.991 27.816 827.704 27.11 828.997 25.83C829.006 25.819 829.012 25.808 829.022 25.798C831.191 23.628 834.043 22.543 836.895 22.543C839.747 22.543 842.601 23.628 844.776 25.798C845.61 26.631 845.612 27.983 844.779 28.817C843.947 29.651 842.594 29.652 841.76 28.82C839.085 26.148 834.743 26.139 832.066 28.793C832.056 28.803 832.05 28.814 832.041 28.824C829.939 30.928 827.143 32.086 824.168 32.086H824.165C821.187 32.085 818.39 30.926 816.289 28.819C816.287 28.817 816.286 28.814 816.283 28.811C813.614 26.148 809.281 26.141 806.599 28.791C806.589 28.802 806.582 28.812 806.573 28.822C804.47 30.926 801.676 32.084 798.701 32.084H798.698C795.72 32.083 792.926 30.924 790.824 28.817C790.821 28.815 790.82 28.811 790.817 28.808C788.135 26.137 783.782 26.139 781.104 28.813C780.271 29.647 778.92 29.647 778.086 28.813C777.254 27.978 777.254 26.626 778.087 25.793ZM798.698 20.815H798.701C801.676 20.815 804.471 19.658 806.573 17.553C806.583 17.543 806.59 17.532 806.599 17.522C809.281 14.873 813.614 14.876 816.283 17.543C816.286 17.545 816.287 17.548 816.289 17.55C818.391 19.654 821.187 20.816 824.165 20.817H824.168C827.143 20.817 829.939 19.66 832.041 17.554C832.874 16.721 832.874 15.37 832.04 14.537C831.206 13.704 829.855 13.704 829.022 14.538C827.726 15.835 826.002 16.548 824.168 16.548H824.166C822.333 16.548 820.611 15.835 819.316 14.541C819.313 14.538 819.311 14.534 819.308 14.53C817.136 12.359 814.285 11.273 811.432 11.273C808.58 11.273 805.728 12.358 803.556 14.527C803.546 14.538 803.54 14.548 803.531 14.557C802.237 15.84 800.524 16.546 798.701 16.546H798.699C796.864 16.546 795.138 15.831 793.843 14.533C793.427 14.115 792.881 13.906 792.334 13.906C791.789 13.906 791.243 14.114 790.826 14.529C789.992 15.362 789.991 16.714 790.824 17.548C792.925 19.654 795.72 20.814 798.698 20.815ZM806.572 6.27899C809.254 3.59999 813.613 3.59997 816.29 6.27997C817.123 7.11297 818.473 7.11298 819.308 6.28198C820.141 5.44898 820.142 4.09602 819.309 3.26202C817.137 1.09002 814.286 0.00500488 811.433 0.00500488C808.581 0.00500488 805.729 1.08897 803.557 3.25897C802.723 4.09097 802.721 5.44402 803.555 6.27802C804.385 7.11202 805.738 7.11199 806.572 6.27899Z" fill="#EC5F65"/>
<path d="M362.008 6.29297C359.836 8.46297 356.986 9.547 354.133 9.547C351.279 9.547 348.427 8.46202 346.253 6.29102C346.251 6.28802 346.249 6.28501 346.246 6.28101C344.951 4.98601 343.229 4.27197 341.397 4.27197H341.395C339.571 4.27197 337.858 4.97899 336.564 6.26099C336.555 6.27099 336.547 6.28202 336.539 6.29102C334.367 8.46102 331.515 9.54602 328.664 9.54602C325.81 9.54602 322.958 8.46002 320.788 6.28802C320.785 6.28503 320.783 6.28101 320.779 6.27802C319.484 4.98401 317.761 4.27002 315.93 4.27002H315.927C314.105 4.27002 312.392 4.97598 311.099 6.25598C311.088 6.26698 311.081 6.27702 311.073 6.28802C308.905 8.45802 306.052 9.54297 303.201 9.54297C300.347 9.54297 297.494 8.45902 295.319 6.28802C294.485 5.45603 294.484 4.10398 295.316 3.26898C296.149 2.43498 297.5 2.43399 298.334 3.26599C301.009 5.93699 305.352 5.94597 308.029 3.29297C308.039 3.28297 308.044 3.27202 308.053 3.26202C310.156 1.15802 312.951 0 315.928 0H315.931C318.908 0.001 321.703 1.16097 323.806 3.26697L323.812 3.27399C326.481 5.93899 330.815 5.94398 333.497 3.29498C333.506 3.28398 333.513 3.27398 333.522 3.26398C335.624 1.15998 338.418 0.00201416 341.394 0.00201416H341.398C344.374 0.00301416 347.169 1.16298 349.272 3.26898C349.274 3.27098 349.275 3.27398 349.278 3.27698C351.959 5.94798 356.314 5.94597 358.991 3.27197C359.825 2.43797 361.177 2.43801 362.009 3.27301C362.842 4.11001 362.84 5.45997 362.008 6.29297ZM341.4 11.273H341.396C338.419 11.273 335.625 12.431 333.524 14.535C333.513 14.545 333.506 14.556 333.499 14.566C330.817 17.215 326.483 17.212 323.814 14.546C323.812 14.543 323.81 14.54 323.808 14.538C321.705 12.433 318.91 11.272 315.933 11.271H315.929C312.953 11.271 310.158 12.429 308.055 14.533C307.222 15.368 307.224 16.719 308.056 17.551C308.89 18.385 310.243 18.384 311.075 17.55C312.371 16.254 314.096 15.54 315.929 15.54H315.931C317.763 15.54 319.486 16.253 320.781 17.547C320.785 17.55 320.787 17.554 320.79 17.558C322.96 19.729 325.812 20.815 328.666 20.815C331.517 20.815 334.369 19.731 336.541 17.561C336.551 17.55 336.558 17.54 336.566 17.53C337.86 16.248 339.573 15.542 341.396 15.542H341.399C343.234 15.542 344.958 16.257 346.253 17.556C346.67 17.973 347.216 18.182 347.763 18.182C348.309 18.182 348.856 17.974 349.272 17.558C350.106 16.727 350.107 15.374 349.275 14.54C347.17 12.433 344.375 11.274 341.4 11.273ZM333.525 25.807C330.842 28.486 326.485 28.486 323.806 25.806C322.975 24.974 321.622 24.973 320.788 25.806C319.955 26.638 319.954 27.99 320.788 28.824C322.958 30.997 325.81 32.082 328.664 32.082C331.515 32.082 334.367 30.998 336.539 28.829C337.373 27.996 337.374 26.643 336.541 25.81C335.71 24.975 334.359 24.974 333.525 25.807Z" fill="white"/>
<path d="M555.315 6.29297C553.143 8.46297 550.293 9.547 547.44 9.547C544.586 9.547 541.734 8.46202 539.56 6.29102C539.558 6.28802 539.556 6.28501 539.553 6.28101C538.258 4.98601 536.536 4.27197 534.704 4.27197H534.702C532.878 4.27197 531.165 4.97899 529.871 6.26099C529.862 6.27099 529.854 6.28202 529.846 6.29102C527.674 8.46102 524.822 9.54602 521.971 9.54602C519.117 9.54602 516.265 8.46002 514.095 6.28802C514.092 6.28503 514.09 6.28101 514.086 6.27802C512.791 4.98401 511.068 4.27002 509.237 4.27002H509.234C507.412 4.27002 505.699 4.97598 504.406 6.25598C504.395 6.26698 504.388 6.27702 504.38 6.28802C502.212 8.45802 499.359 9.54297 496.508 9.54297C493.654 9.54297 490.801 8.45902 488.626 6.28802C487.792 5.45603 487.791 4.10398 488.623 3.26898C489.456 2.43498 490.807 2.43399 491.641 3.26599C494.316 5.93699 498.659 5.94597 501.336 3.29297C501.346 3.28297 501.351 3.27202 501.36 3.26202C503.463 1.15802 506.258 0 509.235 0H509.238C512.215 0.001 515.01 1.16097 517.113 3.26697L517.119 3.27399C519.788 5.93899 524.122 5.94398 526.804 3.29498C526.813 3.28398 526.82 3.27398 526.829 3.26398C528.931 1.15998 531.725 0.00201416 534.701 0.00201416H534.705C537.681 0.00301416 540.476 1.16298 542.579 3.26898C542.581 3.27098 542.582 3.27398 542.585 3.27698C545.266 5.94798 549.621 5.94597 552.298 3.27197C553.132 2.43797 554.484 2.43801 555.316 3.27301C556.149 4.11001 556.147 5.45997 555.315 6.29297ZM534.707 11.273H534.703C531.726 11.273 528.932 12.431 526.831 14.535C526.82 14.545 526.813 14.556 526.806 14.566C524.124 17.215 519.79 17.212 517.121 14.546C517.119 14.543 517.117 14.54 517.115 14.538C515.012 12.433 512.217 11.272 509.24 11.271H509.236C506.26 11.271 503.465 12.429 501.362 14.533C500.529 15.368 500.531 16.719 501.363 17.551C502.197 18.385 503.55 18.384 504.382 17.55C505.678 16.254 507.403 15.54 509.236 15.54H509.238C511.07 15.54 512.793 16.253 514.088 17.547C514.092 17.55 514.094 17.554 514.097 17.558C516.267 19.729 519.119 20.815 521.973 20.815C524.824 20.815 527.676 19.731 529.848 17.561C529.858 17.55 529.865 17.54 529.873 17.53C531.167 16.248 532.88 15.542 534.703 15.542H534.706C536.541 15.542 538.265 16.257 539.56 17.556C539.977 17.973 540.523 18.182 541.07 18.182C541.616 18.182 542.163 17.974 542.579 17.558C543.413 16.727 543.414 15.374 542.582 14.54C540.477 12.433 537.682 11.274 534.707 11.273ZM526.832 25.807C524.149 28.486 519.792 28.486 517.113 25.806C516.282 24.974 514.929 24.973 514.095 25.806C513.262 26.638 513.261 27.99 514.095 28.824C516.265 30.997 519.117 32.082 521.971 32.082C524.822 32.082 527.674 30.998 529.846 28.829C530.68 27.996 530.681 26.643 529.848 25.81C529.017 24.975 527.666 24.974 526.832 25.807Z" fill="white"/>
<path d="M942.008 6.29297C939.836 8.46297 936.986 9.547 934.133 9.547C931.279 9.547 928.427 8.46202 926.253 6.29102C926.251 6.28802 926.249 6.28501 926.246 6.28101C924.951 4.98601 923.229 4.27197 921.397 4.27197H921.395C919.571 4.27197 917.858 4.97899 916.564 6.26099C916.555 6.27099 916.547 6.28202 916.539 6.29102C914.367 8.46102 911.515 9.54602 908.664 9.54602C905.81 9.54602 902.958 8.46002 900.788 6.28802C900.785 6.28503 900.783 6.28101 900.779 6.27802C899.484 4.98401 897.761 4.27002 895.93 4.27002H895.927C894.105 4.27002 892.392 4.97598 891.099 6.25598C891.088 6.26698 891.081 6.27702 891.073 6.28802C888.905 8.45802 886.052 9.54297 883.201 9.54297C880.347 9.54297 877.494 8.45902 875.319 6.28802C874.485 5.45603 874.484 4.10398 875.316 3.26898C876.149 2.43498 877.5 2.43399 878.334 3.26599C881.009 5.93699 885.352 5.94597 888.029 3.29297C888.039 3.28297 888.044 3.27202 888.053 3.26202C890.156 1.15802 892.951 0 895.928 0H895.931C898.908 0.001 901.703 1.16097 903.806 3.26697L903.812 3.27399C906.481 5.93899 910.815 5.94398 913.497 3.29498C913.506 3.28398 913.513 3.27398 913.522 3.26398C915.624 1.15998 918.418 0.00201416 921.394 0.00201416H921.398C924.374 0.00301416 927.169 1.16298 929.272 3.26898C929.274 3.27098 929.275 3.27398 929.278 3.27698C931.959 5.94798 936.314 5.94597 938.991 3.27197C939.825 2.43797 941.177 2.43801 942.009 3.27301C942.842 4.11001 942.84 5.45997 942.008 6.29297ZM921.4 11.273H921.396C918.419 11.273 915.625 12.431 913.524 14.535C913.513 14.545 913.506 14.556 913.499 14.566C910.817 17.215 906.483 17.212 903.814 14.546C903.812 14.543 903.81 14.54 903.808 14.538C901.705 12.433 898.91 11.272 895.933 11.271H895.929C892.953 11.271 890.158 12.429 888.055 14.533C887.222 15.368 887.224 16.719 888.056 17.551C888.89 18.385 890.243 18.384 891.075 17.55C892.371 16.254 894.096 15.54 895.929 15.54H895.931C897.763 15.54 899.486 16.253 900.781 17.547C900.785 17.55 900.787 17.554 900.79 17.558C902.96 19.729 905.812 20.815 908.666 20.815C911.517 20.815 914.369 19.731 916.541 17.561C916.551 17.55 916.558 17.54 916.566 17.53C917.86 16.248 919.573 15.542 921.396 15.542H921.399C923.234 15.542 924.958 16.257 926.253 17.556C926.67 17.973 927.216 18.182 927.763 18.182C928.309 18.182 928.856 17.974 929.272 17.558C930.106 16.727 930.107 15.374 929.275 14.54C927.17 12.433 924.375 11.274 921.4 11.273ZM913.525 25.807C910.842 28.486 906.485 28.486 903.806 25.806C902.975 24.974 901.622 24.973 900.788 25.806C899.955 26.638 899.954 27.99 900.788 28.824C902.958 30.997 905.81 32.082 908.664 32.082C911.515 32.082 914.367 30.998 916.539 28.829C917.373 27.996 917.374 26.643 916.541 25.81C915.71 24.975 914.359 24.974 913.525 25.807Z" fill="white"/>
<path d="M1133.32 6.29297C1131.14 8.46297 1128.29 9.547 1125.44 9.547C1122.59 9.547 1119.73 8.46202 1117.56 6.29102C1117.56 6.28802 1117.56 6.28501 1117.55 6.28101C1116.26 4.98601 1114.54 4.27197 1112.7 4.27197H1112.7C1110.88 4.27197 1109.17 4.97899 1107.87 6.26099C1107.86 6.27099 1107.85 6.28202 1107.85 6.29102C1105.67 8.46102 1102.82 9.54602 1099.97 9.54602C1097.12 9.54602 1094.27 8.46002 1092.1 6.28802C1092.09 6.28503 1092.09 6.28101 1092.09 6.27802C1090.79 4.98401 1089.07 4.27002 1087.24 4.27002H1087.23C1085.41 4.27002 1083.7 4.97598 1082.41 6.25598C1082.4 6.26698 1082.39 6.27702 1082.38 6.28802C1080.21 8.45802 1077.36 9.54297 1074.51 9.54297C1071.65 9.54297 1068.8 8.45902 1066.63 6.28802C1065.79 5.45603 1065.79 4.10398 1066.62 3.26898C1067.46 2.43498 1068.81 2.43399 1069.64 3.26599C1072.32 5.93699 1076.66 5.94597 1079.34 3.29297C1079.35 3.28297 1079.35 3.27202 1079.36 3.26202C1081.46 1.15802 1084.26 0 1087.24 0H1087.24C1090.22 0.001 1093.01 1.16097 1095.11 3.26697L1095.12 3.27399C1097.79 5.93899 1102.12 5.94398 1104.8 3.29498C1104.81 3.28398 1104.82 3.27398 1104.83 3.26398C1106.93 1.15998 1109.73 0.00201416 1112.7 0.00201416H1112.71C1115.68 0.00301416 1118.48 1.16298 1120.58 3.26898C1120.58 3.27098 1120.58 3.27398 1120.59 3.27698C1123.27 5.94798 1127.62 5.94597 1130.3 3.27197C1131.13 2.43797 1132.48 2.43801 1133.32 3.27301C1134.15 4.11001 1134.15 5.45997 1133.32 6.29297ZM1112.71 11.273H1112.7C1109.73 11.273 1106.93 12.431 1104.83 14.535C1104.82 14.545 1104.81 14.556 1104.81 14.566C1102.12 17.215 1097.79 17.212 1095.12 14.546C1095.12 14.543 1095.12 14.54 1095.12 14.538C1093.01 12.433 1090.22 11.272 1087.24 11.271H1087.24C1084.26 11.271 1081.47 12.429 1079.36 14.533C1078.53 15.368 1078.53 16.719 1079.36 17.551C1080.2 18.385 1081.55 18.384 1082.38 17.55C1083.68 16.254 1085.4 15.54 1087.24 15.54H1087.24C1089.07 15.54 1090.79 16.253 1092.09 17.547C1092.09 17.55 1092.09 17.554 1092.1 17.558C1094.27 19.729 1097.12 20.815 1099.97 20.815C1102.82 20.815 1105.68 19.731 1107.85 17.561C1107.86 17.55 1107.87 17.54 1107.87 17.53C1109.17 16.248 1110.88 15.542 1112.7 15.542H1112.71C1114.54 15.542 1116.27 16.257 1117.56 17.556C1117.98 17.973 1118.52 18.182 1119.07 18.182C1119.62 18.182 1120.16 17.974 1120.58 17.558C1121.41 16.727 1121.41 15.374 1120.58 14.54C1118.48 12.433 1115.68 11.274 1112.71 11.273ZM1104.83 25.807C1102.15 28.486 1097.79 28.486 1095.11 25.806C1094.28 24.974 1092.93 24.973 1092.1 25.806C1091.26 26.638 1091.26 27.99 1092.1 28.824C1094.27 30.997 1097.12 32.082 1099.97 32.082C1102.82 32.082 1105.67 30.998 1107.85 28.829C1108.68 27.996 1108.68 26.643 1107.85 25.81C1107.02 24.975 1105.67 24.974 1104.83 25.807Z" fill="white"/>
<path d="M393.549 25.793C395.722 23.624 398.571 22.539 401.424 22.539C404.278 22.539 407.13 23.624 409.304 25.796C409.306 25.798 409.308 25.802 409.312 25.804C410.607 27.099 412.329 27.814 414.161 27.814H414.163C415.987 27.814 417.7 27.107 418.993 25.826C419.003 25.815 419.01 25.804 419.019 25.795C421.191 23.625 424.041 22.54 426.894 22.54C429.748 22.54 432.599 23.626 434.77 25.798C434.773 25.801 434.775 25.805 434.778 25.808C436.074 27.102 437.796 27.816 439.628 27.816H439.63C441.453 27.816 443.166 27.11 444.459 25.83C444.469 25.819 444.475 25.808 444.485 25.798C446.653 23.628 449.505 22.543 452.357 22.543C455.211 22.543 458.064 23.628 460.239 25.798C461.073 26.631 461.074 27.983 460.242 28.817C459.409 29.651 458.058 29.652 457.224 28.82C454.547 26.148 450.205 26.139 447.529 28.793C447.519 28.803 447.511 28.814 447.504 28.824C445.401 30.928 442.607 32.086 439.63 32.086H439.627C436.65 32.085 433.855 30.926 431.752 28.819C431.75 28.817 431.748 28.814 431.746 28.811C429.077 26.148 424.743 26.141 422.06 28.791C422.05 28.802 422.044 28.812 422.036 28.822C419.932 30.926 417.138 32.084 414.164 32.084H414.16C411.182 32.083 408.388 30.924 406.286 28.817C406.284 28.815 406.282 28.811 406.28 28.808C403.596 26.137 399.244 26.139 396.567 28.813C395.733 29.647 394.381 29.647 393.548 28.813C392.715 27.979 392.716 26.626 393.549 25.793ZM414.16 20.815H414.164C417.139 20.815 419.935 19.658 422.036 17.553C422.046 17.543 422.052 17.532 422.061 17.522C424.743 14.873 429.077 14.876 431.746 17.543C431.748 17.545 431.75 17.548 431.752 17.55C433.855 19.654 436.65 20.816 439.627 20.817H439.63C442.607 20.817 445.401 19.66 447.504 17.554C448.337 16.721 448.336 15.37 447.503 14.537C446.669 13.704 445.317 13.704 444.485 14.538C443.189 15.835 441.464 16.548 439.631 16.548H439.629C437.797 16.548 436.074 15.835 434.778 14.541C434.775 14.538 434.773 14.534 434.77 14.53C432.599 12.359 429.748 11.273 426.894 11.273C424.041 11.273 421.191 12.358 419.019 14.527C419.009 14.538 419.001 14.548 418.993 14.557C417.7 15.84 415.987 16.546 414.163 16.546H414.161C412.326 16.546 410.602 15.831 409.307 14.533C408.889 14.115 408.343 13.906 407.797 13.906C407.251 13.906 406.704 14.114 406.288 14.529C405.454 15.362 405.453 16.714 406.285 17.548C408.386 19.654 411.183 20.814 414.16 20.815ZM422.034 6.27899C424.716 3.59999 429.075 3.59997 431.753 6.27997C432.585 7.11297 433.938 7.11298 434.771 6.28198C435.605 5.44898 435.606 4.09602 434.772 3.26202C432.6 1.09002 429.75 0.00500488 426.896 0.00500488C424.043 0.00500488 421.193 1.08897 419.021 3.25897C418.187 4.09097 418.184 5.44402 419.019 6.27802C419.849 7.11202 421.201 7.11199 422.034 6.27899Z" fill="#EC5F65"/>
<path d="M972.549 25.793C974.722 23.624 977.571 22.539 980.424 22.539C983.278 22.539 986.13 23.624 988.304 25.796C988.306 25.798 988.308 25.802 988.312 25.804C989.607 27.099 991.329 27.814 993.161 27.814H993.163C994.987 27.814 996.7 27.107 997.993 25.826C998.003 25.815 998.01 25.804 998.019 25.795C1000.19 23.625 1003.04 22.54 1005.89 22.54C1008.75 22.54 1011.6 23.626 1013.77 25.798C1013.77 25.801 1013.78 25.805 1013.78 25.808C1015.07 27.102 1016.8 27.816 1018.63 27.816H1018.63C1020.45 27.816 1022.17 27.11 1023.46 25.83C1023.47 25.819 1023.48 25.808 1023.49 25.798C1025.65 23.628 1028.51 22.543 1031.36 22.543C1034.21 22.543 1037.06 23.628 1039.24 25.798C1040.07 26.631 1040.07 27.983 1039.24 28.817C1038.41 29.651 1037.06 29.652 1036.22 28.82C1033.55 26.148 1029.21 26.139 1026.53 28.793C1026.52 28.803 1026.51 28.814 1026.5 28.824C1024.4 30.928 1021.61 32.086 1018.63 32.086H1018.63C1015.65 32.085 1012.86 30.926 1010.75 28.819C1010.75 28.817 1010.75 28.814 1010.75 28.811C1008.08 26.148 1003.74 26.141 1001.06 28.791C1001.05 28.802 1001.04 28.812 1001.04 28.822C998.932 30.926 996.138 32.084 993.164 32.084H993.16C990.182 32.083 987.388 30.924 985.286 28.817C985.284 28.815 985.282 28.811 985.28 28.808C982.596 26.137 978.244 26.139 975.567 28.813C974.733 29.647 973.381 29.647 972.548 28.813C971.715 27.979 971.716 26.626 972.549 25.793ZM993.16 20.815H993.164C996.139 20.815 998.935 19.658 1001.04 17.553C1001.05 17.543 1001.05 17.532 1001.06 17.522C1003.74 14.873 1008.08 14.876 1010.75 17.543C1010.75 17.545 1010.75 17.548 1010.75 17.55C1012.86 19.654 1015.65 20.816 1018.63 20.817H1018.63C1021.61 20.817 1024.4 19.66 1026.5 17.554C1027.34 16.721 1027.34 15.37 1026.5 14.537C1025.67 13.704 1024.32 13.704 1023.49 14.538C1022.19 15.835 1020.46 16.548 1018.63 16.548H1018.63C1016.8 16.548 1015.07 15.835 1013.78 14.541C1013.78 14.538 1013.77 14.534 1013.77 14.53C1011.6 12.359 1008.75 11.273 1005.89 11.273C1003.04 11.273 1000.19 12.358 998.019 14.527C998.009 14.538 998.001 14.548 997.993 14.557C996.7 15.84 994.987 16.546 993.163 16.546H993.161C991.326 16.546 989.602 15.831 988.307 14.533C987.889 14.115 987.343 13.906 986.797 13.906C986.251 13.906 985.704 14.114 985.288 14.529C984.454 15.362 984.453 16.714 985.285 17.548C987.386 19.654 990.183 20.814 993.16 20.815ZM1001.03 6.27899C1003.72 3.59999 1008.08 3.59997 1010.75 6.27997C1011.59 7.11297 1012.94 7.11298 1013.77 6.28198C1014.61 5.44898 1014.61 4.09602 1013.77 3.26202C1011.6 1.09002 1008.75 0.00500488 1005.9 0.00500488C1003.04 0.00500488 1000.19 1.08897 998.021 3.25897C997.187 4.09097 997.184 5.44402 998.019 6.27802C998.849 7.11202 1000.2 7.11199 1001.03 6.27899Z" fill="#EC5F65"/>
</svg>
