<svg width="358" height="507" viewBox="0 0 358 507" fill="none" xmlns="http://www.w3.org/2000/svg">
<path d="M131.893 295.396C119.376 295.396 109.194 305.574 109.194 318.081C109.194 330.597 119.376 340.778 131.893 340.778C144.401 340.778 154.571 330.597 154.571 318.081C154.576 305.574 144.401 295.396 131.893 295.396ZM131.893 325.15C127.995 325.15 124.823 321.98 124.823 318.083C124.823 314.195 127.995 311.029 131.893 311.029C135.78 311.029 138.942 314.195 138.942 318.083C138.946 321.978 135.784 325.15 131.893 325.15ZM44.4411 96.9223C44.4411 92.6046 47.9391 89.1065 52.2547 89.1065C67.5705 89.1065 80.0296 101.566 80.0296 116.879V359.577C80.0296 366.28 85.4682 371.729 92.1507 371.729C98.8475 371.729 104.296 366.28 104.296 359.577C104.296 355.263 107.794 351.765 112.112 351.765C116.426 351.765 119.923 355.263 119.923 359.577C119.923 374.899 107.464 387.36 92.1486 387.36C76.8472 387.36 64.3983 374.899 64.3983 359.577V116.877C64.3983 110.181 58.9495 104.734 52.2527 104.734C47.9391 104.734 44.4411 101.238 44.4411 96.9223ZM73.9517 481.89C33.1746 481.89 0 448.717 0 407.944C0 403.627 3.49797 400.129 7.81359 400.129C12.1292 400.129 15.6272 403.627 15.6272 407.944C15.6272 440.096 41.7914 466.261 73.9496 466.261C106.108 466.261 132.274 440.096 132.274 407.944V398.485C122.063 409.125 107.708 415.758 91.831 415.758C60.9023 415.758 35.7381 390.6 35.7381 359.675V273.519C35.7381 267.975 31.2279 263.465 25.6827 263.465C20.1417 263.465 15.6293 267.975 15.6293 273.519C15.6293 277.836 12.1312 281.334 7.81559 281.334C3.49997 281.334 0.00200118 277.836 0.00200118 273.519C0.00200118 259.356 11.5247 247.836 25.6847 247.836C39.8468 247.836 51.3694 259.356 51.3694 273.519V359.675C51.3694 381.981 69.5212 400.129 91.833 400.129C114.132 400.129 132.276 381.981 132.276 359.675C132.276 355.362 135.774 351.864 140.088 351.864C144.405 351.864 147.903 355.362 147.903 359.675V407.946C147.908 448.715 114.729 481.89 73.9517 481.89ZM248.808 318.081C248.808 305.572 238.622 295.396 226.105 295.396C213.597 295.396 203.427 305.574 203.427 318.081C203.427 330.597 213.599 340.778 226.105 340.778C238.622 340.78 248.808 330.599 248.808 318.081ZM226.105 325.15C222.218 325.15 219.056 321.98 219.056 318.083C219.056 314.195 222.218 311.029 226.105 311.029C230.003 311.029 233.179 314.195 233.179 318.083C233.179 321.978 230.003 325.15 226.105 325.15ZM117.616 56.434C132.401 35.0895 151.604 16.534 174.695 1.29407C177.303 -0.431357 180.695 -0.431357 183.305 1.29407C206.396 16.5361 225.599 35.0895 240.384 56.434C242.841 59.9792 241.958 64.8481 238.408 67.3071C237.052 68.2477 235.501 68.7006 233.966 68.7006C231.488 68.7006 229.052 67.5244 227.535 65.3358C214.816 46.9709 198.502 30.8129 178.998 17.2553C159.494 30.8129 143.182 46.9709 130.463 65.3358C128.006 68.8789 123.135 69.7662 119.587 67.3071C116.042 64.8501 115.157 59.9812 117.616 56.434ZM253.706 359.573C253.706 366.276 259.155 371.725 265.851 371.725C272.538 371.725 277.972 366.276 277.972 359.573V116.877C277.972 101.564 290.432 89.1045 305.747 89.1045C310.065 89.1045 313.563 92.6025 313.563 96.9202C313.563 101.234 310.065 104.732 305.747 104.732C299.051 104.732 293.602 110.179 293.602 116.875V359.573C293.602 374.893 281.153 387.354 265.851 387.354C250.536 387.354 238.077 374.893 238.077 359.573C238.077 355.257 241.575 351.761 245.888 351.761C250.206 351.761 253.706 355.259 253.706 359.573ZM358 407.944C358 448.715 324.828 481.89 284.048 481.89C243.273 481.89 210.095 448.717 210.095 407.944V359.673C210.095 355.36 213.593 351.862 217.91 351.862C222.224 351.862 225.722 355.36 225.722 359.673C225.722 381.981 243.866 400.127 266.165 400.127C288.477 400.127 306.629 381.981 306.629 359.673V273.517C306.629 259.354 318.151 247.834 332.313 247.834C346.477 247.834 357.996 259.354 357.996 273.517C357.996 277.834 354.5 281.332 350.184 281.332C345.867 281.332 342.369 277.834 342.369 273.517C342.369 267.973 337.86 263.463 332.315 263.463C326.772 263.463 322.26 267.973 322.26 273.517V359.673C322.26 390.598 297.096 415.756 266.167 415.756C250.29 415.756 235.935 409.125 225.724 398.483V407.942C225.724 440.094 251.89 466.258 284.048 466.258C316.209 466.258 342.371 440.094 342.371 407.942C342.371 403.625 345.869 400.127 350.186 400.127C354.502 400.127 358 403.625 358 407.944ZM103.641 283.508V177.827C103.641 121.045 129.346 68.2293 174.164 32.9133C177.002 30.6756 181 30.6756 183.838 32.9133C228.658 68.2252 254.364 121.043 254.364 177.827V283.508C254.364 286.301 252.872 288.879 250.458 290.277C248.04 291.677 245.062 291.675 242.644 290.281C237.396 287.25 231.855 285.715 226.177 285.715C213.621 285.715 202.289 292.793 196.595 304.183C195.226 306.923 192.465 308.509 189.599 308.509C188.424 308.509 187.234 308.242 186.111 307.681C182.25 305.755 180.687 301.062 182.613 297.201C190.969 280.478 207.664 270.088 226.177 270.088C230.447 270.088 234.642 270.66 238.736 271.793V177.829C238.736 127.941 217.043 81.3893 179.004 49.143C140.965 81.3893 119.274 127.941 119.274 177.829V271.793C123.366 270.66 127.561 270.088 131.831 270.088C150.346 270.088 167.041 280.478 175.395 297.201C177.324 301.062 175.76 305.755 171.898 307.681C168.037 309.613 163.344 308.048 161.414 304.183C155.723 292.793 144.387 285.715 131.831 285.715C126.153 285.715 120.612 287.25 115.364 290.281C112.946 291.675 109.966 291.677 107.55 290.277C105.13 288.879 103.641 286.304 103.641 283.508ZM271.856 498.275C271.856 502.589 268.358 506.087 264.042 506.087C221.458 506.087 186.814 471.447 186.814 428.871V359.671C186.814 355.364 183.305 351.86 179 351.86C174.695 351.86 171.188 355.364 171.188 359.671V428.871C171.188 471.445 136.543 506.087 93.9581 506.087C89.6445 506.087 86.1465 502.589 86.1465 498.275C86.1465 493.96 89.6445 490.462 93.9581 490.462C127.926 490.462 155.559 462.832 155.559 428.873V359.673C155.559 346.749 166.076 336.234 179 336.234C191.928 336.234 202.441 346.751 202.441 359.673V428.873C202.441 462.83 230.072 490.462 264.042 490.462C268.358 490.46 271.856 493.96 271.856 498.275Z" fill="#EC5F65"/>
</svg>
