<svg width="8" height="55" viewBox="0 0 8 55" fill="none" xmlns="http://www.w3.org/2000/svg">
<path d="M2.72669 54.4942C0.909158 52.7367 -1.99854e-07 50.4279 -3.00774e-07 48.1191C-4.01765e-07 45.8087 0.909201 43.4991 2.72925 41.7408C2.73092 41.7392 2.73427 41.7375 2.73595 41.7343C3.82111 40.6851 4.42026 39.292 4.42026 37.8081L4.42026 37.8064C4.42026 36.3307 3.82779 34.944 2.75436 33.8964C2.74514 33.8883 2.73592 33.8835 2.72838 33.8762C0.910007 32.1179 0.000817219 29.8091 0.000817118 27.5003C0.000817017 25.1907 0.910837 22.8827 2.73088 21.1244C2.7334 21.122 2.73676 21.1204 2.73927 21.118C3.82359 20.0696 4.42189 18.6756 4.42189 17.1917L4.42189 17.1901C4.42189 15.7143 3.83032 14.3276 2.75774 13.2809C2.74852 13.2736 2.73926 13.2687 2.73088 13.2606C0.912512 11.5048 0.00332242 9.19599 0.00332232 6.88721C0.00332222 4.57842 0.912512 2.26803 2.73088 0.507301C3.4289 -0.167851 4.56186 -0.16951 5.26072 0.504829C5.95958 1.17836 5.96041 2.27369 5.26323 2.94884C3.0242 5.11434 3.01662 8.6293 5.24057 10.7964C5.24895 10.8045 5.25817 10.8094 5.26655 10.8167C7.02962 12.5183 7.99999 14.7818 7.99999 17.1901L7.99999 17.1925C7.99916 19.6033 7.02794 21.8676 5.26236 23.5684C5.26068 23.5701 5.25817 23.5709 5.25566 23.5733C3.02417 25.7339 3.01834 29.2416 5.23893 31.4128C5.24815 31.4209 5.25653 31.4265 5.26491 31.4338C7.02798 33.1363 7.99831 35.3981 7.99831 37.8064L7.99831 37.8089C7.99747 40.2197 7.0263 42.4815 5.26072 44.1831C5.25905 44.1856 5.25567 44.1864 5.25315 44.1888C3.01496 46.36 3.01664 49.8839 5.25735 52.0518C5.9562 52.7262 5.9562 53.8198 5.25735 54.4949C4.55765 55.1685 3.42471 55.1685 2.72669 54.4942Z" fill="#08B0A0"/>
</svg>
