<svg width="55" height="8" viewBox="0 0 55 8" fill="none" xmlns="http://www.w3.org/2000/svg">
<path d="M54.4942 5.27331C52.7367 7.09084 50.4279 8 48.1191 8C45.8087 8 43.4991 7.0908 41.7408 5.27075C41.7392 5.26907 41.7375 5.26573 41.7343 5.26405C40.6851 4.17889 39.292 3.57974 37.8081 3.57974L37.8065 3.57974C36.3307 3.57974 34.944 4.17221 33.8964 5.24564C33.8883 5.25485 33.8835 5.26408 33.8762 5.27162C32.1179 7.08999 29.8091 7.99918 27.5003 7.99918C25.1907 7.99918 22.8827 7.08916 21.1244 5.26911C21.122 5.2666 21.1204 5.26324 21.118 5.26072C20.0696 4.1764 18.6756 3.5781 17.1917 3.5781L17.1901 3.5781C15.7143 3.5781 14.3276 4.16967 13.2809 5.24226C13.2736 5.25148 13.2687 5.26073 13.2606 5.26911C11.5048 7.08748 9.19599 7.99667 6.88721 7.99667C4.57842 7.99667 2.26803 7.08748 0.507302 5.26911C-0.16785 4.57109 -0.169509 3.43813 0.50483 2.73927C1.17836 2.04042 2.27369 2.03959 2.94884 2.73677C5.11434 4.9758 8.6293 4.98337 10.7964 2.75943C10.8045 2.75105 10.8094 2.74182 10.8167 2.73344C12.5183 0.970378 14.7818 1.25238e-06 17.1901 1.46293e-06L17.1925 1.46314e-06C19.6033 0.000839477 21.8676 0.972059 23.5684 2.73764C23.5701 2.73932 23.5709 2.74183 23.5733 2.74434C25.7339 4.97583 29.2416 4.98166 31.4128 2.76106C31.4209 2.75185 31.4265 2.74346 31.4338 2.73508C33.1363 0.972016 35.3981 0.00169058 37.8065 0.00169079L37.8089 0.00169079C40.2197 0.00252881 42.4815 0.973697 44.1831 2.73928C44.1856 2.74095 44.1864 2.74433 44.1888 2.74685C46.36 4.98504 49.8839 4.98336 52.0518 2.74265C52.7262 2.0438 53.8198 2.0438 54.4949 2.74265C55.1685 3.44235 55.1685 4.57529 54.4942 5.27331Z" fill="#08B0A0"/>
</svg>
