<svg width="333" height="351" viewBox="0 0 333 351" fill="none" xmlns="http://www.w3.org/2000/svg">
<path d="M235.331 108.126C236.733 106.72 237.507 104.854 237.507 102.869C237.507 100.92 236.759 99.0887 235.404 97.6956C215.709 79.4372 190.173 69.3819 163.499 69.3819C127.668 69.3819 94.528 87.2967 74.8519 117.3C72.8279 120.389 68.6836 121.248 65.5993 119.227C62.5134 117.202 61.6512 113.057 63.6735 109.973C85.8309 76.1882 123.147 56.018 163.499 56.018C193.609 56.018 222.414 67.3754 244.605 87.9977C244.661 88.0538 244.718 88.1099 244.778 88.1659C248.71 92.0931 250.875 97.3188 250.875 102.876C250.873 108.427 248.712 113.646 244.783 117.578C240.728 121.632 235.401 123.658 230.075 123.658C224.753 123.658 219.428 121.634 215.374 117.577C212.765 114.967 212.765 110.735 215.374 108.126C217.984 105.517 222.214 105.517 224.825 108.128C227.724 111.019 232.434 111.017 235.331 108.126ZM293.106 294.223C297.666 298.786 297.666 306.208 293.108 310.766C288.544 315.329 281.114 315.327 276.553 310.768C273.943 308.16 269.71 308.164 267.099 310.773C264.493 313.386 264.494 317.618 267.105 320.227C276.88 329.988 292.78 329.988 302.555 320.218C312.33 310.449 312.328 294.547 302.555 284.771C292.782 274.999 276.879 275.001 267.228 284.65C239.083 311.36 202.245 326.071 163.499 326.071C87.3467 326.071 24.3843 270.744 14.1642 196.202H50.5111C54.2034 196.202 57.1947 193.209 57.1947 189.518V161.094C57.1947 157.405 54.2034 154.414 50.5111 154.414H14.1642C24.3843 79.8718 87.3467 24.5429 163.499 24.5429C202.245 24.5429 239.086 39.2527 267.104 65.8402C276.879 75.6117 292.78 75.6099 302.555 65.8402C307.29 61.1087 309.896 54.8123 309.896 48.1181C309.896 41.4221 307.29 35.1275 302.553 30.3925C292.782 20.6281 276.882 20.6246 267.104 30.3872C264.493 32.9966 264.491 37.2269 267.097 39.8397C269.706 42.4491 273.936 42.4508 276.551 39.845C281.114 35.2852 288.541 35.2852 293.104 39.845C295.314 42.0583 296.53 44.9936 296.53 48.1199C296.53 51.2427 295.314 54.1832 293.104 56.3895C288.541 60.9493 281.116 60.951 276.427 56.2686C245.789 27.1926 205.682 11.1808 163.496 11.1808C122.236 11.1808 82.7992 26.5477 52.4475 54.4496C22.2797 82.1815 3.66373 119.846 0.0274825 160.504C-0.142501 162.374 0.484918 164.226 1.75016 165.61C3.0154 166.995 4.80634 167.783 6.67967 167.783H43.8256V182.838H6.67967C4.80634 182.838 3.01365 183.627 1.75016 185.011C0.481413 186.394 -0.142501 188.246 0.0274825 190.114C3.66373 230.77 22.2797 268.435 52.4475 296.168C82.7992 324.072 122.236 339.439 163.496 339.439C205.682 339.439 245.789 323.424 276.553 294.227C281.116 289.663 288.539 289.662 293.106 294.223ZM163.499 281.233C127.668 281.233 94.528 263.318 74.8519 233.315C72.8296 230.227 68.6818 229.365 65.5993 231.39C62.5134 233.415 61.6512 237.557 63.6735 240.643C85.8309 274.426 123.147 294.598 163.499 294.598C193.609 294.598 222.414 283.239 244.605 262.618C244.661 262.564 244.718 262.506 244.778 262.448C248.71 258.521 250.875 253.297 250.875 247.742C250.873 242.191 248.712 236.968 244.778 233.033C236.67 224.929 223.479 224.931 215.376 233.038C212.769 235.647 212.769 239.879 215.376 242.492C217.987 245.1 222.217 245.101 224.829 242.49C227.725 239.599 232.438 239.594 235.327 242.485C236.735 243.89 237.507 245.76 237.507 247.746C237.507 249.693 236.761 251.526 235.406 252.919C215.707 271.179 190.173 281.233 163.499 281.233ZM318.628 268.48C327.685 277.537 332.677 289.578 332.677 302.384C332.677 315.196 327.685 327.237 318.628 336.293C309.281 345.637 296.995 350.313 284.714 350.313C272.435 350.313 260.159 345.642 250.812 336.304C248.199 333.694 248.197 329.462 250.804 326.85C253.412 324.244 257.642 324.242 260.257 326.844C273.744 340.324 295.691 340.32 309.177 326.837C315.712 320.308 319.306 311.623 319.306 302.384C319.306 293.149 315.709 284.464 309.177 277.933C295.689 264.457 273.744 264.458 260.259 277.933C260.21 277.98 260.159 278.031 260.113 278.075C233.766 302.852 199.454 316.495 163.496 316.495C132.592 316.495 103.246 306.693 78.6284 288.149C54.8219 270.22 36.9719 244.714 28.3623 216.337C27.749 214.312 28.1311 212.118 29.3911 210.418C30.6528 208.714 32.6418 207.715 34.7587 207.715H88.7311C91.6716 197.136 101.364 189.34 112.864 189.34C124.363 189.34 134.05 197.136 136.993 207.715H158.265C189.794 207.715 219.559 195.971 240.94 175.308C219.559 154.642 189.794 142.897 158.265 142.897H136.993C134.05 153.477 124.363 161.273 112.864 161.273C101.364 161.273 91.6699 153.477 88.7311 142.897H34.7587C32.6418 142.897 30.6493 141.897 29.3911 140.197C28.1328 138.497 27.749 136.301 28.3623 134.277C36.9684 105.899 54.8219 80.3958 78.6284 62.4633C103.246 43.9211 132.592 34.1199 163.496 34.1199C199.456 34.1199 233.768 47.7624 260.113 72.5379C260.159 72.5835 260.21 72.6344 260.259 72.6799C273.744 86.156 295.691 86.156 309.179 72.6799C315.712 66.1504 319.306 57.4655 319.306 48.2285C319.306 38.9916 315.709 30.3066 309.177 23.7771C295.693 10.2976 273.749 10.2941 260.257 23.7684C257.646 26.376 253.416 26.3742 250.804 23.7631C248.197 21.152 248.199 16.9217 250.812 14.3124C269.51 -4.37183 299.932 -4.3666 318.626 14.3229C327.683 23.3776 332.674 35.4184 332.674 48.2285C332.674 61.0387 327.683 73.0795 318.626 82.1359C299.954 100.792 269.59 100.822 250.883 82.213C227.038 59.8189 196.007 47.4873 163.496 47.4873C109.828 47.4873 62.9303 80.0979 44.1024 129.535H88.724C91.6541 118.942 101.354 111.133 112.865 111.133C124.375 111.133 134.077 118.942 137.001 129.535H158.263C195.758 129.535 231.092 144.571 255.201 170.785C255.296 170.885 255.359 171.002 255.447 171.108C255.59 171.286 255.725 171.46 255.848 171.649C255.971 171.833 256.079 172.024 256.179 172.219C256.281 172.408 256.374 172.602 256.454 172.8C256.537 173.005 256.605 173.21 256.666 173.421C256.724 173.624 256.779 173.826 256.821 174.034C256.861 174.246 256.889 174.46 256.908 174.675C256.931 174.887 256.945 175.096 256.945 175.308C256.945 175.522 256.929 175.732 256.908 175.944C256.889 176.16 256.865 176.37 256.821 176.582C256.782 176.791 256.724 176.994 256.666 177.201C256.605 177.407 256.539 177.611 256.456 177.814C256.374 178.017 256.276 178.214 256.174 178.406C256.074 178.599 255.971 178.785 255.848 178.969C255.724 179.158 255.585 179.337 255.438 179.516C255.354 179.621 255.293 179.735 255.2 179.836C231.086 206.051 195.753 221.085 158.261 221.085H137C134.071 231.676 124.373 239.487 112.862 239.487C101.352 239.487 91.6506 231.676 88.7223 221.085H44.1007C62.9286 270.524 109.827 303.131 163.494 303.131C196.005 303.131 227.037 290.801 250.882 268.407C269.592 249.796 299.954 249.819 318.628 268.48ZM124.566 136.193C124.566 129.744 119.321 124.495 112.867 124.495C106.415 124.495 101.163 129.744 101.163 136.193C101.163 142.654 106.415 147.906 112.867 147.906C119.321 147.906 124.566 142.654 124.566 136.193ZM101.163 214.418C101.163 220.871 106.415 226.119 112.867 226.119C119.321 226.119 124.566 220.871 124.566 214.418C124.566 207.959 119.321 202.705 112.867 202.705C106.417 202.705 101.163 207.959 101.163 214.418Z" fill="#08B0A0"/>
</svg>
