<svg width="218" height="229" viewBox="0 0 218 229" fill="none" xmlns="http://www.w3.org/2000/svg">
<path d="M154.21 70.5453C155.129 69.6258 155.636 68.4047 155.636 67.1057C155.636 65.8307 155.146 64.6326 154.258 63.7211C141.352 51.7752 124.618 45.1963 107.14 45.1963C83.6595 45.1963 61.9432 56.9175 49.0497 76.5474C47.7234 78.5688 45.0077 79.1306 42.9866 77.8086C40.9644 76.4832 40.3994 73.7717 41.7246 71.7537C56.2441 49.6495 80.6968 36.4528 107.14 36.4528C126.87 36.4528 145.745 43.8836 160.287 57.3761C160.324 57.4128 160.361 57.4494 160.401 57.4861C162.977 60.0555 164.396 63.4746 164.396 67.1102C164.394 70.7425 162.979 74.1569 160.404 76.7298C157.747 79.3817 154.256 80.7071 150.766 80.7071C147.278 80.7071 143.789 79.3829 141.133 76.7286C139.423 75.0214 139.423 72.2525 141.133 70.5453C142.843 68.8381 145.615 68.8381 147.326 70.5464C149.225 72.4382 152.312 72.4371 154.21 70.5453ZM192.069 192.303C195.057 195.288 195.057 200.144 192.07 203.126C189.08 206.112 184.211 206.11 181.222 203.127C179.512 201.421 176.738 201.423 175.027 203.131C173.319 204.84 173.32 207.609 175.031 209.316C181.437 215.702 191.856 215.702 198.261 209.31C204.667 202.918 204.665 192.515 198.261 186.118C191.857 179.725 181.436 179.726 175.112 186.039C156.668 203.515 132.529 213.14 107.14 213.14C57.2374 213.14 15.9788 176.941 9.28166 128.171H33.0994C35.519 128.171 37.4791 126.212 37.4791 123.798V105.201C37.4791 102.787 35.519 100.83 33.0994 100.83H9.28166C15.9788 52.0596 57.2374 15.8597 107.14 15.8597C132.529 15.8597 156.671 25.4838 175.03 42.8792C181.436 49.2723 191.856 49.2712 198.261 42.8792C201.364 39.7835 203.072 35.664 203.072 31.2842C203.072 26.9032 201.364 22.7848 198.26 19.6869C191.857 13.2983 181.438 13.2961 175.03 19.6835C173.319 21.3907 173.318 24.1584 175.026 25.8679C176.736 27.5751 179.508 27.5763 181.221 25.8714C184.211 22.8881 189.078 22.8881 192.068 25.8714C193.516 27.3194 194.313 29.2399 194.313 31.2853C194.313 33.3285 193.516 35.2524 192.068 36.6959C189.078 39.6792 184.212 39.6803 181.14 36.6167C161.063 17.5933 134.781 7.11731 107.137 7.11731C80.0997 7.11731 54.2575 17.1714 34.3683 35.4266C14.5997 53.5707 2.40081 78.2134 0.018009 104.814C-0.0933797 106.038 0.317762 107.25 1.14686 108.155C1.97596 109.061 3.14955 109.577 4.37712 109.577H28.7184V119.427H4.37712C3.14955 119.427 1.97481 119.943 1.14686 120.849C0.315465 121.753 -0.0933797 122.965 0.018009 124.188C2.40081 150.787 14.5997 175.43 34.3683 193.575C54.2575 211.832 80.0997 221.886 107.137 221.886C134.781 221.886 161.063 211.407 181.222 192.305C184.212 189.319 189.077 189.318 192.069 192.303ZM107.14 183.803C83.6595 183.803 61.9432 172.082 49.0497 152.452C47.7245 150.432 45.0065 149.868 42.9866 151.193C40.9644 152.517 40.3994 155.228 41.7246 157.247C56.2441 179.35 80.6968 192.548 107.14 192.548C126.87 192.548 145.745 185.116 160.287 171.625C160.324 171.589 160.361 171.551 160.401 171.513C162.977 168.944 164.396 165.526 164.396 161.892C164.394 158.259 162.979 154.843 160.401 152.268C155.087 146.966 146.444 146.967 141.134 152.271C139.425 153.978 139.425 156.747 141.134 158.457C142.845 160.163 145.617 160.164 147.328 158.455C149.226 156.564 152.314 156.56 154.208 158.452C155.13 159.372 155.636 160.595 155.636 161.894C155.636 163.168 155.147 164.367 154.259 165.279C141.351 177.225 124.618 183.803 107.14 183.803ZM208.794 175.46C214.728 181.385 218 189.263 218 197.642C218 206.024 214.728 213.902 208.794 219.828C202.668 225.941 194.618 229 186.57 229C178.524 229 170.479 225.944 164.354 219.835C162.642 218.127 162.641 215.358 164.35 213.649C166.058 211.944 168.83 211.943 170.544 213.645C179.381 222.465 193.763 222.462 202.601 213.641C206.883 209.369 209.238 203.687 209.238 197.642C209.238 191.6 206.881 185.917 202.601 181.644C193.762 172.827 179.381 172.828 170.545 181.644C170.513 181.675 170.479 181.708 170.45 181.737C153.184 197.948 130.7 206.874 107.137 206.874C86.8864 206.874 67.6562 200.461 51.5244 188.329C35.9242 176.598 24.2273 159.91 18.5855 141.344C18.1836 140.019 18.434 138.584 19.2597 137.471C20.0865 136.357 21.3898 135.703 22.777 135.703H58.1446C60.0715 128.782 66.4229 123.681 73.9583 123.681C81.4937 123.681 87.8418 128.782 89.7698 135.703H103.709C124.37 135.703 143.875 128.019 157.886 114.5C143.875 100.979 124.37 93.295 103.709 93.295H89.7698C87.8418 100.217 81.4937 105.318 73.9583 105.318C66.4229 105.318 60.0703 100.217 58.1446 93.295H22.777C21.3898 93.295 20.0842 92.6403 19.2597 91.5282C18.4352 90.4161 18.1836 88.9794 18.5855 87.6552C24.225 69.088 35.9242 52.4024 51.5244 40.6698C67.6562 28.5382 86.8864 22.1256 107.137 22.1256C130.701 22.1256 153.185 31.0514 170.45 47.2613C170.479 47.2911 170.513 47.3243 170.545 47.3542C179.381 56.1711 193.763 56.1711 202.602 47.3542C206.883 43.0821 209.238 37.3999 209.238 31.3564C209.238 25.313 206.881 19.6307 202.601 15.3587C193.764 6.53947 179.385 6.53717 170.544 15.353C168.833 17.059 166.061 17.0579 164.35 15.3495C162.641 13.6412 162.642 10.8734 164.354 9.1662C176.607 -3.05825 196.542 -3.05483 208.793 9.17306C214.727 15.0973 217.998 22.9752 217.998 31.3564C217.998 39.7377 214.727 47.6156 208.793 53.5409C196.557 65.747 176.66 65.7665 164.401 53.5913C148.776 38.9396 128.441 30.8714 107.137 30.8714C71.9695 30.8714 41.2376 52.2075 28.8998 84.5526H58.1399C60.06 77.6218 66.416 72.5128 73.9594 72.5128C81.5017 72.5128 87.859 77.6218 89.7756 84.5526H103.708C128.278 84.5526 151.432 94.39 167.231 111.541C167.293 111.606 167.334 111.683 167.392 111.752C167.486 111.869 167.574 111.983 167.655 112.106C167.735 112.227 167.806 112.352 167.872 112.479C167.938 112.603 167.999 112.73 168.052 112.86C168.106 112.994 168.151 113.128 168.191 113.266C168.229 113.399 168.264 113.53 168.292 113.667C168.318 113.806 168.337 113.945 168.349 114.086C168.364 114.225 168.373 114.362 168.373 114.5C168.373 114.64 168.363 114.778 168.349 114.917C168.337 115.058 168.321 115.195 168.292 115.334C168.267 115.47 168.229 115.603 168.191 115.739C168.151 115.874 168.107 116.007 168.053 116.14C167.999 116.273 167.935 116.401 167.868 116.527C167.803 116.654 167.735 116.775 167.655 116.895C167.573 117.019 167.482 117.136 167.386 117.253C167.331 117.322 167.291 117.397 167.23 117.463C151.429 134.614 128.275 144.45 103.707 144.45H89.7744C87.8556 151.38 81.5006 156.49 73.9572 156.49C66.4149 156.49 60.0577 151.38 58.1388 144.45H28.8987C41.2364 176.797 71.9682 198.13 107.136 198.13C128.44 198.13 148.775 190.063 164.4 175.412C176.661 163.235 196.557 163.25 208.794 175.46ZM81.6269 88.9083C81.6269 84.6891 78.19 81.2552 73.9607 81.2552C69.7325 81.2552 66.2909 84.6891 66.2909 88.9083C66.2909 93.1357 69.7325 96.5719 73.9607 96.5719C78.19 96.5719 81.6269 93.1357 81.6269 88.9083ZM66.2909 140.089C66.2909 144.311 69.7325 147.744 73.9607 147.744C78.19 147.744 81.6269 144.311 81.6269 140.089C81.6269 135.863 78.19 132.425 73.9607 132.425C69.7337 132.425 66.2909 135.863 66.2909 140.089Z" fill="#08B0A0"/>
</svg>
