<svg width="242" height="115" viewBox="0 0 242 115" fill="none" xmlns="http://www.w3.org/2000/svg">
<path d="M239.774 92.4424C232.038 84.6639 221.886 80.7781 211.724 80.7781C201.558 80.7781 191.399 84.6673 183.656 92.4494C183.648 92.4602 183.641 92.471 183.631 92.4853C179.018 97.1273 172.884 99.6868 166.359 99.6868H166.351C159.854 99.6868 153.753 97.1525 149.144 92.5571C149.112 92.5212 149.083 92.4817 149.055 92.4494C141.318 84.6709 131.159 80.7816 121.004 80.7816C110.838 80.7816 100.68 84.6745 92.9502 92.4601C92.9395 92.4709 92.9325 92.4853 92.9182 92.496C88.3055 97.1345 82.1682 99.6938 75.6463 99.6938H75.6354C69.1455 99.6938 63.0441 97.1633 58.4385 92.575C58.3993 92.5356 58.3744 92.4996 58.3459 92.4601C50.6235 84.6816 40.4612 80.7926 30.3061 80.7926C20.1403 80.7926 9.97793 84.6781 2.23066 92.4601C-0.74001 95.4425 -0.743539 100.289 2.22001 103.282C5.18712 106.272 9.99935 106.275 12.97 103.293C22.4983 93.7185 37.9679 93.6863 47.5032 103.196C47.5389 103.232 47.5566 103.271 47.5887 103.307C55.0795 110.849 65.0352 115 75.6391 115H75.6498C86.2537 114.996 96.2094 110.838 103.7 103.289L103.722 103.264C113.228 93.7113 128.666 93.6934 138.219 103.189C138.251 103.228 138.276 103.264 138.308 103.3C145.795 110.842 155.748 114.993 166.348 114.993H166.362C176.963 114.989 186.918 110.831 194.409 103.282C194.416 103.275 194.42 103.264 194.43 103.253C203.98 93.6791 219.492 93.6863 229.028 103.271C231.998 106.261 236.814 106.261 239.778 103.268C242.745 100.267 242.738 95.4284 239.774 92.4424ZM166.369 74.5911H166.355C155.751 74.5911 145.799 70.4403 138.315 62.8984C138.276 62.8626 138.251 62.8231 138.226 62.7873C128.673 53.2917 113.236 53.3023 103.729 62.8588C103.722 62.8696 103.715 62.8803 103.707 62.8875C96.2166 70.433 86.2609 74.5948 75.6569 74.5984H75.6426C65.0422 74.5984 55.0867 70.4473 47.5959 62.9054C44.6287 59.9123 44.6358 55.0695 47.5993 52.0872C50.57 49.0976 55.3893 49.1013 58.3528 52.0909C62.9691 56.7365 69.1135 59.2959 75.6426 59.2959H75.6498C82.1753 59.2959 88.3124 56.74 92.9252 52.1016C92.9394 52.0908 92.9467 52.0766 92.9574 52.0622C100.687 44.2801 110.845 40.3872 121.011 40.3872C131.166 40.3872 141.325 44.273 149.062 52.0515C149.097 52.0909 149.122 52.1268 149.151 52.1626C153.76 56.7581 159.862 59.2887 166.355 59.2887H166.366C172.902 59.2887 179.043 56.7258 183.656 52.0694C185.141 50.5747 187.086 49.8254 189.034 49.8254C190.979 49.8254 192.927 50.571 194.409 52.0622C197.38 55.041 197.383 59.8909 194.42 62.8805C186.922 70.4331 176.966 74.5875 166.369 74.5911ZM138.319 22.493C128.762 12.89 113.243 12.8901 103.7 22.4968C100.74 25.4791 95.9209 25.4827 92.9502 22.4968C89.9831 19.5144 89.9795 14.668 92.9502 11.6785C100.68 3.88924 110.838 0 121.004 0C131.159 0 141.318 3.88564 149.055 11.6606C152.025 14.6465 152.029 19.4964 149.062 22.4823C146.102 25.4754 141.29 25.479 138.319 22.493Z" fill="white"/>
</svg>
