<svg width="164" height="215" viewBox="0 0 164 215" fill="none" xmlns="http://www.w3.org/2000/svg">
<path d="M14.0941 145.834H5.2498V154.608H0V129.943H15.1162V134.558H5.25026V141.218H14.0946V145.834H14.0941Z" fill="#505456"/>
<path d="M39.6413 153.833V154.573H34.0037L28.9297 146.434H24.5251V154.573H19.2396V129.908C22.7632 129.908 26.2519 129.873 29.7754 129.908C35.4131 129.908 38.4787 133.995 38.4787 138.364C38.4787 141.5 36.893 144.249 34.0742 145.623L39.6413 153.833ZM29.7397 142.1C31.9596 142.1 33.4043 140.373 33.369 138.259C33.369 136.18 31.9949 134.524 29.7397 134.524H24.4542V142.1H29.7397Z" fill="#505456"/>
<path d="M58.6696 134.559H48.8738V139.563H58.035V144.179H48.8738V149.816H58.9512V154.608H43.5535V129.943H58.6696V134.559Z" fill="#505456"/>
<path d="M78.8255 134.559H69.0302V139.563H78.1913V144.179H69.0302V149.816H79.1076V154.608H63.7098V129.943H78.826V134.559H78.8255Z" fill="#505456"/>
<path d="M93.0621 129.978C100.92 129.978 105.148 135.933 105.148 142.205C105.254 148.512 101.025 154.608 93.0621 154.608H83.9009V129.978H93.0621ZM92.9915 149.851C97.5371 149.851 99.8976 146.186 99.8976 142.24C99.8976 138.294 97.4661 134.735 92.9915 134.735H89.1507V149.851H92.9915Z" fill="#505456"/>
<path d="M120.054 150.415V154.608H107.792V150.415H111.28V134.03H108.074V129.943H119.772V134.03H116.566V150.415H120.054Z" fill="#505456"/>
<path d="M133.585 145.799L136.192 137.906L139.504 129.943H145.107V130.718L134.607 154.819H132.422L121.816 130.718V129.943H127.418L130.73 137.871L133.478 145.799H133.585Z" fill="#505456"/>
<path d="M163.29 134.558H153.495V139.562H162.656V144.178H153.495V149.816H163.572V154.608H148.174V129.942H163.29V134.558Z" fill="#505456"/>
<path d="M65.9586 174.566V176.206H60.0643V174.566H61.9998V165.62H60.2209V163.999H65.8012V165.62H64.0227V174.566H65.9586Z" fill="#505456"/>
<path d="M73.3179 167.904L73.4575 171.776V176.205H71.452V163.963H72.1845L79.5959 172.177L79.4562 168.445V163.999H81.4792V176.223H80.782L73.3179 167.904Z" fill="#505456"/>
<path d="M90.0763 167.904L90.216 171.775V176.205H88.2104V163.963H88.9429L96.3543 172.177L96.2147 168.445V163.998H98.2376V176.223H97.5404L90.0763 167.904Z" fill="#505456"/>
<path d="M107.729 192.94C105.905 194.763 103.508 195.674 101.112 195.674C98.7147 195.674 96.3176 194.763 94.4921 192.938C94.4898 192.935 94.4879 192.932 94.4855 192.93C93.3977 191.843 91.9506 191.243 90.411 191.243H90.4091C88.877 191.243 87.438 191.836 86.3511 192.914C86.3426 192.923 86.3374 192.931 86.3295 192.94C84.504 194.764 82.1073 195.674 79.7116 195.674C77.314 195.674 74.9178 194.763 73.0938 192.937C73.0914 192.935 73.09 192.931 73.0872 192.929C71.9989 191.842 70.5519 191.243 69.0127 191.243H69.0108C67.4787 191.243 66.0401 191.836 64.9537 192.911C64.9452 192.921 64.9401 192.931 64.9311 192.939C63.109 194.763 60.7128 195.674 58.3166 195.674C55.919 195.674 53.5218 194.763 51.6945 192.939C50.9936 192.24 50.9926 191.105 51.6917 190.403C52.3908 189.702 53.5261 189.701 54.227 190.401C56.4765 192.645 60.1247 192.652 62.3746 190.423C62.3822 190.414 62.3873 190.405 62.3953 190.398C64.1611 188.629 66.5107 187.657 69.0108 187.657H69.0136C71.5146 187.658 73.8648 188.632 75.6305 190.401C75.6324 190.403 75.6338 190.405 75.6357 190.407C77.8781 192.647 81.5197 192.65 83.773 190.424C83.7814 190.414 83.7861 190.405 83.7946 190.397C85.5608 188.629 87.91 187.657 90.4091 187.657H90.412C92.9125 187.658 95.2622 188.632 97.0279 190.401C97.0298 190.403 97.0312 190.406 97.0331 190.407C99.2859 192.652 102.945 192.65 105.194 190.404C105.895 189.703 107.03 189.703 107.73 190.404C108.43 191.105 108.429 192.24 107.729 192.94ZM90.412 197.123H90.4091C87.91 197.123 85.5608 198.097 83.7946 199.864C83.7861 199.872 83.7814 199.882 83.773 199.89C81.5197 202.117 77.8781 202.113 75.6357 199.874C75.6338 199.872 75.6324 199.869 75.6305 199.868C73.8648 198.099 71.5146 197.124 69.0136 197.123H69.0108C66.5107 197.123 64.1611 198.097 62.3953 199.864C61.6953 200.564 61.6958 201.7 62.3958 202.4C63.0967 203.099 64.2321 203.099 64.9316 202.398C66.0204 201.31 67.4688 200.709 69.0113 200.709H69.0132C70.5523 200.709 71.9993 201.308 73.0877 202.395C73.0905 202.398 73.0919 202.402 73.0943 202.405C74.9183 204.23 77.315 205.141 79.7121 205.141C82.1078 205.141 84.5045 204.23 86.3299 202.408C86.3379 202.398 86.3431 202.39 86.3515 202.381C87.438 201.303 88.8775 200.709 90.4096 200.709H90.4115C91.9535 200.709 93.4019 201.31 94.4916 202.402C94.8409 202.752 95.3007 202.927 95.7595 202.927C96.2184 202.927 96.6763 202.753 97.0265 202.404C97.727 201.705 97.7279 200.569 97.0284 199.868C95.2626 198.099 92.913 197.124 90.412 197.123ZM83.7955 209.337C81.5423 211.587 77.8796 211.587 75.6301 209.336C74.9305 208.637 73.7952 208.636 73.0943 209.335C72.3943 210.034 72.3933 211.17 73.0933 211.872C74.9174 213.696 77.314 214.609 79.7111 214.609C82.1069 214.609 84.5035 213.697 86.329 211.874C87.0295 211.175 87.0299 210.04 86.3304 209.339C85.6313 208.638 84.4951 208.637 83.7955 209.337Z" fill="#EC5F65"/>
<path d="M68.9044 67.7681C66.0329 67.7681 63.6969 70.1032 63.6969 72.9723C63.6969 75.8438 66.0329 78.1794 68.9044 78.1794C71.774 78.1794 74.1072 75.8438 74.1072 72.9723C74.1081 70.1032 71.774 67.7681 68.9044 67.7681ZM68.9044 74.5942C68.0102 74.5942 67.2825 73.867 67.2825 72.9728C67.2825 72.081 68.0102 71.3547 68.9044 71.3547C69.7962 71.3547 70.5216 72.081 70.5216 72.9728C70.5225 73.8665 69.7971 74.5942 68.9044 74.5942ZM48.8417 22.2354C48.8417 21.2449 49.6442 20.4423 50.6342 20.4423C54.1479 20.4423 57.0062 23.3007 57.0062 26.8139V82.4922C57.0062 84.03 58.2539 85.28 59.7869 85.28C61.3233 85.28 62.5733 84.03 62.5733 82.4922C62.5733 81.5026 63.3758 80.7001 64.3664 80.7001C65.356 80.7001 66.1584 81.5026 66.1584 82.4922C66.1584 86.0073 63.3001 88.8661 59.7865 88.8661C56.2761 88.8661 53.4202 86.0073 53.4202 82.4922V26.8134C53.4202 25.277 52.1701 24.0275 50.6338 24.0275C49.6442 24.0275 48.8417 23.2255 48.8417 22.2354ZM55.6118 110.553C46.257 110.553 38.6462 102.942 38.6462 93.5884C38.6462 92.5979 39.4487 91.7954 40.4388 91.7954C41.4289 91.7954 42.2313 92.5979 42.2313 93.5884C42.2313 100.965 48.2338 106.967 55.6114 106.967C62.9889 106.967 68.9919 100.965 68.9919 93.5884V91.4183C66.6493 93.8592 63.3561 95.381 59.7136 95.381C52.6181 95.381 46.8451 89.6093 46.8451 82.5148V62.7492C46.8451 61.4775 45.8104 60.4428 44.5382 60.4428C43.267 60.4428 42.2318 61.4775 42.2318 62.7492C42.2318 63.7397 41.4293 64.5422 40.4393 64.5422C39.4492 64.5422 38.6467 63.7397 38.6467 62.7492C38.6467 59.5002 41.2902 56.8572 44.5387 56.8572C47.7877 56.8572 50.4311 59.5002 50.4311 62.7492V82.5148C50.4311 87.632 54.5954 91.7954 59.7141 91.7954C64.8299 91.7954 68.9923 87.632 68.9923 82.5148C68.9923 81.5252 69.7948 80.7227 70.7844 80.7227C71.7749 80.7227 72.5774 81.5252 72.5774 82.5148V93.5889C72.5784 102.942 64.9667 110.553 55.6118 110.553ZM95.7265 72.9723C95.7265 70.1027 93.3895 67.7681 90.5181 67.7681C87.6485 67.7681 85.3153 70.1032 85.3153 72.9723C85.3153 75.8438 87.6489 78.1794 90.5181 78.1794C93.3895 78.1798 95.7265 75.8443 95.7265 72.9723ZM90.5181 74.5942C89.6263 74.5942 88.9009 73.867 88.9009 72.9728C88.9009 72.081 89.6263 71.3547 90.5181 71.3547C91.4122 71.3547 92.1409 72.081 92.1409 72.9728C92.1409 73.8665 91.4122 74.5942 90.5181 74.5942ZM65.6291 12.9468C69.021 8.05005 73.4265 3.79314 78.7238 0.296879C79.3222 -0.0989597 80.1002 -0.0989597 80.6992 0.296879C85.9964 3.79361 90.4019 8.05005 93.7938 12.9468C94.3575 13.7601 94.1549 14.8771 93.3406 15.4412C93.0294 15.657 92.6735 15.7609 92.3214 15.7609C91.7531 15.7609 91.1941 15.4911 90.8462 14.989C87.9282 10.7758 84.1856 7.06892 79.711 3.95862C75.2364 7.06892 71.4943 10.7758 68.5763 14.989C68.0126 15.8018 66.8951 16.0054 66.0813 15.4412C65.268 14.8776 65.065 13.7606 65.6291 12.9468ZM96.8501 82.4913C96.8501 84.029 98.1001 85.2791 99.6365 85.2791C101.17 85.2791 102.417 84.029 102.417 82.4913V26.8134C102.417 23.3002 105.276 20.4419 108.789 20.4419C109.78 20.4419 110.582 21.2444 110.582 22.2349C110.582 23.2245 109.78 24.027 108.789 24.027C107.253 24.027 106.003 25.2766 106.003 26.8129V82.4913C106.003 86.0059 103.147 88.8647 99.6365 88.8647C96.1228 88.8647 93.2645 86.0059 93.2645 82.4913C93.2645 81.5012 94.067 80.6992 95.0566 80.6992C96.0471 80.6992 96.8501 81.5017 96.8501 82.4913ZM120.777 93.5884C120.777 102.942 113.166 110.553 103.811 110.553C94.4567 110.553 86.845 102.942 86.845 93.5884V82.5143C86.845 81.5247 87.6475 80.7222 88.6381 80.7222C89.6276 80.7222 90.4301 81.5247 90.4301 82.5143C90.4301 87.632 94.5926 91.7949 99.7084 91.7949C104.827 91.7949 108.991 87.632 108.991 82.5143V62.7487C108.991 59.4997 111.635 56.8567 114.884 56.8567C118.133 56.8567 120.776 59.4997 120.776 62.7487C120.776 63.7392 119.974 64.5417 118.984 64.5417C117.993 64.5417 117.191 63.7392 117.191 62.7487C117.191 61.477 116.156 60.4423 114.884 60.4423C113.613 60.4423 112.577 61.477 112.577 62.7487V82.5143C112.577 89.6088 106.804 95.3805 99.7089 95.3805C96.0664 95.3805 92.7732 93.8592 90.4306 91.4179V93.5879C90.4306 100.964 96.4336 106.967 103.811 106.967C111.189 106.967 117.191 100.964 117.191 93.5879C117.191 92.5974 117.994 91.7949 118.984 91.7949C119.974 91.7949 120.777 92.5974 120.777 93.5884ZM62.4229 65.041V40.7961C62.4229 27.7696 68.32 15.6528 78.602 7.5508C79.2531 7.03743 80.1703 7.03743 80.8214 7.5508C91.1038 15.6519 97.001 27.7691 97.001 40.7961V65.041C97.001 65.6818 96.6587 66.2732 96.1049 66.5938C95.5502 66.9149 94.8671 66.9144 94.3124 66.5947C93.1084 65.8994 91.8372 65.5473 90.5345 65.5473C87.6541 65.5473 85.0544 67.1711 83.7479 69.784C83.4339 70.4126 82.8006 70.7764 82.1429 70.7764C81.8735 70.7764 81.6004 70.7153 81.3428 70.5865C80.4571 70.1446 80.0984 69.068 80.5403 68.1823C82.4574 64.3457 86.2875 61.9622 90.5345 61.9622C91.5142 61.9622 92.4766 62.0934 93.4159 62.3533V40.7966C93.4159 29.3516 88.4392 18.6719 79.7124 11.2741C70.9856 18.6719 66.0094 29.3516 66.0094 40.7966V62.3533C66.9483 62.0934 67.9106 61.9622 68.8903 61.9622C73.1378 61.9622 76.9679 64.3457 78.8845 68.1823C79.3269 69.068 78.9682 70.1446 78.082 70.5865C77.1963 71.0298 76.1198 70.6706 75.6769 69.784C74.3714 67.1711 71.7707 65.5473 68.8903 65.5473C67.5876 65.5473 66.3164 65.8994 65.1124 66.5947C64.5577 66.9144 63.8742 66.9149 63.3199 66.5938C62.7647 66.2732 62.4229 65.6822 62.4229 65.041ZM101.014 114.312C101.014 115.301 100.211 116.104 99.2213 116.104C89.4518 116.104 81.504 108.157 81.504 98.3892V82.5138C81.504 81.5257 80.6992 80.7218 79.7115 80.7218C78.7238 80.7218 77.9194 81.5257 77.9194 82.5138V98.3892C77.9194 108.156 69.9711 116.104 60.2016 116.104C59.212 116.104 58.4095 115.301 58.4095 114.312C58.4095 113.322 59.212 112.519 60.2016 112.519C67.9943 112.519 74.3338 106.18 74.3338 98.3897V82.5143C74.3338 79.5493 76.7464 77.1371 79.7115 77.1371C82.6774 77.1371 85.0891 79.5497 85.0891 82.5143V98.3897C85.0891 106.18 91.4282 112.519 99.2213 112.519C100.211 112.519 101.014 113.322 101.014 114.312Z" fill="#EC5F65"/>
</svg>
