<svg width="151" height="158" viewBox="0 0 151 158" fill="none" xmlns="http://www.w3.org/2000/svg">
<path d="M44.6259 48.6732C43.9931 48.0387 43.6434 47.1963 43.6434 46.3C43.6434 45.4203 43.9812 44.5937 44.5927 43.9648C53.4835 35.7226 65.0109 31.1835 77.0517 31.1835C93.2266 31.1835 108.187 39.2706 117.069 52.8144C117.982 54.209 119.853 54.5967 121.245 53.6846C122.638 52.7701 123.028 50.8992 122.115 49.5069C112.112 34.256 95.2676 25.1508 77.0517 25.1508C63.4596 25.1508 50.4569 30.2777 40.4396 39.587C40.4143 39.6123 40.3882 39.6376 40.3613 39.6629C38.5862 41.4357 37.6092 43.7947 37.6092 46.3031C37.61 48.8092 38.5853 51.165 40.3589 52.9402C42.1894 54.7699 44.5943 55.6844 46.9984 55.6844C49.4008 55.6844 51.8048 54.7707 53.6345 52.9394C54.8124 51.7615 54.8124 49.8511 53.6345 48.6732C52.4566 47.4953 50.5471 47.4953 49.3684 48.674C48.06 49.9792 45.9336 49.9784 44.6259 48.6732ZM18.5453 132.68C16.487 134.74 16.487 138.09 18.5445 140.148C20.6045 142.208 23.9586 142.207 26.0177 140.149C27.1956 138.972 29.1068 138.973 30.2855 140.151C31.4618 141.331 31.4611 143.241 30.2824 144.419C25.8698 148.825 18.6925 148.825 14.2799 144.415C9.86734 140.005 9.86813 132.827 14.2799 128.413C18.6917 124.002 25.8706 124.003 30.2269 128.359C42.9323 140.416 59.5612 147.057 77.0517 147.057C111.428 147.057 139.85 122.082 144.464 88.4321H128.056C126.39 88.4321 125.039 87.081 125.039 85.415V72.5839C125.039 70.9187 126.39 69.5684 128.056 69.5684H144.464C139.85 35.9188 111.428 10.9425 77.0517 10.9425C59.5612 10.9425 42.9307 17.5827 30.2831 29.5848C25.8706 33.9957 18.6925 33.9949 14.2799 29.5848C12.1425 27.4489 10.9661 24.6066 10.9661 21.5847C10.9661 18.562 12.1424 15.7206 14.2807 13.5831C18.6917 9.17527 25.869 9.1737 30.2831 13.5807C31.4618 14.7586 31.4626 16.6682 30.2863 17.8477C29.1084 19.0256 27.1988 19.0264 26.0185 17.8501C23.9586 15.7918 20.606 15.7918 18.5461 17.8501C17.5486 18.8492 16.9996 20.1742 16.9996 21.5855C16.9996 22.9952 17.5486 24.3226 18.5461 25.3185C20.606 27.3769 23.9577 27.3777 26.0746 25.264C39.9048 12.1386 58.0099 4.91063 77.0533 4.91063C95.6789 4.91063 113.481 11.8475 127.182 24.4428C140.8 36.9614 149.204 53.9638 150.846 72.3173C150.922 73.1614 150.639 73.9976 150.068 74.6225C149.497 75.2474 148.688 75.6034 147.843 75.6034H131.074V82.3995H147.843C148.688 82.3995 149.498 82.7554 150.068 83.3804C150.641 84.0045 150.922 84.8407 150.846 85.684C149.204 104.037 140.8 121.039 127.182 133.558C113.481 146.155 95.6789 153.091 77.0533 153.091C58.0099 153.091 39.9049 145.862 26.0177 132.682C23.9578 130.622 20.6068 130.621 18.5453 132.68ZM77.0517 126.816C93.2266 126.816 108.187 118.729 117.069 105.185C117.981 103.791 119.854 103.402 121.245 104.317C122.638 105.23 123.028 107.1 122.115 108.494C112.112 123.744 95.2676 132.85 77.0517 132.85C63.4596 132.85 50.4569 127.722 40.4396 118.414C40.4143 118.389 40.3882 118.363 40.3613 118.337C38.5862 116.564 37.6092 114.206 37.6092 111.698C37.61 109.192 38.5854 106.835 40.3613 105.058C44.0216 101.4 49.9759 101.401 53.6338 105.06C54.8109 106.238 54.8109 108.149 53.6338 109.328C52.4551 110.505 50.5455 110.506 49.3668 109.327C48.0592 108.022 45.932 108.02 44.6275 109.325C43.9923 109.959 43.6434 110.803 43.6434 111.7C43.6434 112.579 43.9805 113.406 44.5919 114.035C53.4843 122.278 65.0109 126.816 77.0517 126.816ZM7.02426 121.06C2.93604 125.148 0.68222 130.583 0.68222 136.364C0.68222 142.148 2.93604 147.583 7.02426 151.671C11.2438 155.889 16.7899 158 22.3337 158C27.8767 158 33.4181 155.892 37.6377 151.676C38.8172 150.498 38.818 148.588 37.6409 147.408C36.4638 146.232 34.5541 146.231 33.3738 147.406C27.2858 153.491 17.3785 153.489 11.2904 147.403C8.34055 144.455 6.71805 140.535 6.71805 136.364C6.71805 132.195 8.34213 128.275 11.2904 125.327C17.3793 119.243 27.2858 119.244 33.3731 125.327C33.3952 125.348 33.4182 125.371 33.4387 125.391C45.3324 136.576 60.8214 142.734 77.0533 142.734C91.0037 142.734 104.251 138.31 115.364 129.939C126.11 121.845 134.168 110.331 138.055 97.5215C138.332 96.607 138.159 95.6166 137.59 94.8493C137.021 94.0803 136.123 93.6294 135.167 93.6294H110.803C109.476 88.8538 105.101 85.3343 99.9096 85.3343C94.7186 85.3343 90.3455 88.8538 89.0173 93.6294H79.4147C65.1818 93.6294 51.7455 88.3277 42.0937 79.0003C51.7455 69.6712 65.1818 64.3695 79.4147 64.3695H89.0173C90.3455 69.1452 94.7186 72.6646 99.9096 72.6646C105.101 72.6646 109.477 69.1452 110.803 64.3695H135.167C136.123 64.3695 137.022 63.9178 137.59 63.1505C138.158 62.3831 138.332 61.3919 138.055 60.4782C134.17 47.6677 126.11 36.1553 115.364 28.0604C104.251 19.6901 91.0037 15.2657 77.0533 15.2657C60.8206 15.2657 45.3316 21.4241 33.4387 32.6082C33.4182 32.6288 33.3952 32.6517 33.3731 32.6723C27.2858 38.7556 17.3785 38.7556 11.2897 32.6723C8.34056 29.7248 6.71805 25.8043 6.71805 21.6346C6.71805 17.4649 8.34213 13.5443 11.2904 10.5968C17.3777 4.51195 27.2834 4.51036 33.3738 10.5929C34.5525 11.77 36.4622 11.7692 37.6409 10.5905C38.818 9.41181 38.8172 7.50218 37.6377 6.32428C29.197 -2.11006 15.4641 -2.1077 7.02502 6.32901C2.9368 10.4164 0.683853 15.8519 0.683853 21.6346C0.683853 27.4173 2.9368 32.8527 7.02502 36.9409C15.4538 45.3626 29.1606 45.376 37.6052 36.9757C48.3693 26.8666 62.3774 21.2999 77.0533 21.2999C101.28 21.2999 122.45 36.0209 130.949 58.3376H110.807C109.484 53.5556 105.105 50.0306 99.9088 50.0306C94.7131 50.0306 90.3337 53.5556 89.0134 58.3376H79.4154C62.4898 58.3376 46.5395 65.125 35.6561 76.9585C35.6133 77.0036 35.5849 77.0566 35.5453 77.1041C35.4804 77.1848 35.4195 77.2631 35.3641 77.3485C35.3088 77.4316 35.2598 77.5178 35.2147 77.6056C35.1688 77.691 35.1269 77.7789 35.0905 77.8682C35.0533 77.9608 35.0224 78.0534 34.9947 78.1483C34.9686 78.24 34.944 78.331 34.9251 78.4251C34.9069 78.5209 34.8943 78.6174 34.8856 78.7147C34.8753 78.8104 34.8689 78.9045 34.8689 79.0003C34.8689 79.0968 34.8761 79.1917 34.8856 79.2874C34.8943 79.3847 34.9053 79.4796 34.9251 79.5754C34.9425 79.6695 34.9686 79.7613 34.9947 79.8546C35.0224 79.9479 35.0524 80.0397 35.0896 80.1315C35.1268 80.2232 35.1711 80.3118 35.217 80.3989C35.2621 80.4859 35.3088 80.5697 35.3641 80.6528C35.4203 80.7382 35.4828 80.8189 35.5493 80.8996C35.5872 80.9471 35.6149 80.9985 35.6568 81.0444C46.5419 92.8779 62.4922 99.6645 79.4162 99.6645H89.0142C90.336 104.446 94.7138 107.971 99.9103 107.971C105.106 107.971 109.485 104.446 110.807 99.6645H130.95C122.451 121.982 101.28 136.701 77.0541 136.701C62.3783 136.701 48.37 131.135 37.606 121.026C29.1598 112.625 15.4539 112.636 7.02426 121.06ZM94.6268 61.3429C94.6268 58.4318 96.9944 56.0625 99.9079 56.0625C102.821 56.0625 105.192 58.4318 105.192 61.3429C105.192 64.2595 102.821 66.6304 99.9079 66.6304C96.9944 66.6304 94.6268 64.2595 94.6268 61.3429ZM105.192 96.6553C105.192 99.568 102.821 101.937 99.9079 101.937C96.9944 101.937 94.6268 99.568 94.6268 96.6553C94.6268 93.7394 96.9944 91.3678 99.9079 91.3678C102.82 91.3678 105.192 93.7394 105.192 96.6553Z" fill="#08B0A0"/>
</svg>
