<svg width="214" height="225" viewBox="0 0 214 225" fill="none" xmlns="http://www.w3.org/2000/svg">
<path d="M151.28 69.3131C152.181 68.4096 152.679 67.2099 152.679 65.9335C152.679 64.6808 152.198 63.5036 151.327 62.608C138.666 50.8709 122.25 44.4069 105.104 44.4069C82.0699 44.4069 60.7662 55.9233 48.1177 75.2104C46.8166 77.1964 44.1525 77.7484 42.1698 76.4495C40.186 75.1473 39.6318 72.4831 40.9318 70.5004C55.1754 48.7823 79.1635 35.8161 105.104 35.8161C124.46 35.8161 142.976 43.117 157.241 56.3739C157.277 56.4099 157.314 56.446 157.353 56.482C159.881 59.0065 161.272 62.3658 161.272 65.938C161.271 69.5068 159.882 72.8616 157.356 75.3895C154.749 77.9952 151.325 79.2974 147.901 79.2974C144.48 79.2974 141.057 77.9963 138.451 75.3884C136.774 73.711 136.774 70.9904 138.451 69.3131C140.128 67.6357 142.848 67.6357 144.526 69.3142C146.389 71.173 149.418 71.1718 151.28 69.3131ZM188.42 188.944C191.351 191.877 191.351 196.648 188.421 199.578C185.488 202.511 180.711 202.51 177.779 199.579C176.101 197.903 173.38 197.905 171.701 199.582C170.026 201.262 170.027 203.983 171.706 205.66C177.989 211.935 188.21 211.935 194.494 205.654C200.778 199.374 200.777 189.152 194.494 182.867C188.211 176.586 177.988 176.587 171.785 182.789C153.692 199.96 130.011 209.417 105.104 209.417C56.1498 209.417 15.6751 173.851 9.1053 125.932H32.4705C34.8441 125.932 36.767 124.008 36.767 121.635V103.363C36.767 100.992 34.8441 99.0689 32.4705 99.0689H9.1053C15.6751 51.1502 56.1498 15.5827 105.104 15.5827C130.011 15.5827 153.694 25.0387 171.705 42.1302C177.988 48.4117 188.21 48.4105 194.494 42.1302C197.538 39.0886 199.213 35.041 199.213 30.7377C199.213 26.4333 197.538 22.3869 194.493 19.343C188.211 13.0661 177.991 13.0638 171.705 19.3396C170.026 21.017 170.025 23.7364 171.7 25.4161C173.377 27.0934 176.097 27.0946 177.778 25.4195C180.711 22.4883 185.485 22.4883 188.419 25.4195C189.839 26.8423 190.621 28.7292 190.621 30.7389C190.621 32.7463 189.839 34.6366 188.419 36.0549C185.485 38.9861 180.712 38.9872 177.698 35.9772C158.003 17.286 132.22 6.99299 105.102 6.99299C78.5777 6.99299 53.2266 16.8714 33.7153 34.8078C14.3223 52.635 2.35519 76.8472 0.0176668 102.984C-0.0916054 104.186 0.311724 105.376 1.12507 106.266C1.93842 107.156 3.0897 107.663 4.29395 107.663H28.1728V117.341H4.29395C3.0897 117.341 1.93729 117.848 1.12507 118.738C0.309471 119.627 -0.0916054 120.817 0.0176668 122.018C2.35519 148.154 14.3223 172.366 33.7153 190.194C53.2266 208.132 78.5777 218.01 105.102 218.01C132.22 218.01 158.003 207.715 177.779 188.946C180.712 186.012 185.484 186.011 188.42 188.944ZM105.104 180.593C82.0699 180.593 60.7662 169.076 48.1177 149.789C46.8177 147.804 44.1513 147.25 42.1698 148.552C40.186 149.853 39.6318 152.516 40.9318 154.5C55.1754 176.217 79.1635 189.185 105.104 189.185C124.46 189.185 142.976 181.883 157.241 168.627C157.277 168.592 157.314 168.555 157.353 168.518C159.881 165.993 161.272 162.635 161.272 159.064C161.271 155.495 159.882 152.138 157.353 149.608C152.14 144.399 143.661 144.4 138.452 149.611C136.776 151.289 136.776 154.009 138.452 155.689C140.131 157.365 142.85 157.366 144.528 155.688C146.391 153.829 149.42 153.826 151.278 155.684C152.182 156.588 152.679 157.79 152.679 159.066C152.679 160.318 152.199 161.496 151.328 162.392C138.665 174.13 122.25 180.593 105.104 180.593ZM204.826 172.395C210.648 178.217 213.858 185.957 213.858 194.19C213.858 202.426 210.648 210.166 204.826 215.988C198.818 221.994 190.92 225 183.025 225C175.132 225 167.24 221.998 161.231 215.995C159.552 214.317 159.551 211.597 161.227 209.917C162.903 208.242 165.623 208.241 167.303 209.914C175.973 218.579 190.081 218.577 198.751 209.909C202.952 205.712 205.262 200.129 205.262 194.19C205.262 188.253 202.95 182.67 198.751 178.471C190.08 169.809 175.973 169.81 167.304 178.471C167.273 178.502 167.24 178.535 167.211 178.563C150.274 194.491 128.217 203.26 105.102 203.26C85.2354 203.26 66.3707 196.96 50.5454 185.039C35.2416 173.514 23.767 157.117 18.2324 138.876C17.8381 137.573 18.0837 136.163 18.8937 135.07C19.7048 133.975 20.9834 133.333 22.3442 133.333H57.0398C58.9301 126.532 65.1608 121.52 72.553 121.52C79.9452 121.52 86.1727 126.532 88.0641 133.333H101.739C122.007 133.333 141.141 125.783 154.886 112.5C141.141 99.2153 122.007 91.6654 101.739 91.6654H88.0641C86.1727 98.4662 79.9452 103.478 72.553 103.478C65.1608 103.478 58.9289 98.4662 57.0398 91.6654H22.3442C20.9834 91.6654 19.7025 91.0222 18.8937 89.9295C18.0849 88.8367 17.8381 87.4252 18.2324 86.1241C23.7647 67.8813 35.2416 51.487 50.5454 39.9594C66.3707 28.0397 85.2354 21.7391 105.102 21.7391C128.218 21.7391 150.275 30.509 167.211 46.4357C167.24 46.465 167.273 46.4977 167.304 46.527C175.973 55.1899 190.081 55.1899 198.752 46.527C202.952 42.3296 205.262 36.7466 205.262 30.8087C205.262 24.8708 202.95 19.2878 198.751 15.0904C190.083 6.42524 175.976 6.42299 167.303 15.0848C165.625 16.761 162.905 16.7599 161.227 15.0814C159.551 13.4029 159.552 10.6835 161.231 9.00609C173.251 -3.00483 192.808 -3.00147 204.825 9.01283C210.647 14.8335 213.855 22.5739 213.855 30.8087C213.855 39.0436 210.647 46.7839 204.825 52.6057C192.822 64.5986 173.303 64.6177 161.278 52.6552C145.949 38.2595 126.001 30.3322 105.102 30.3322C70.602 30.3322 40.454 51.2956 28.3507 83.0757H57.0352C58.9188 76.2659 65.154 71.2462 72.5541 71.2462C79.9531 71.2462 86.1896 76.2659 88.0697 83.0757H101.738C125.841 83.0757 148.555 92.7413 164.053 109.593C164.114 109.657 164.155 109.733 164.211 109.8C164.303 109.915 164.39 110.027 164.469 110.148C164.548 110.266 164.618 110.389 164.682 110.514C164.747 110.636 164.807 110.761 164.859 110.888C164.912 111.02 164.956 111.152 164.995 111.287C165.032 111.418 165.067 111.547 165.094 111.681C165.12 111.818 165.138 111.955 165.15 112.094C165.165 112.23 165.174 112.364 165.174 112.5C165.174 112.638 165.164 112.773 165.15 112.909C165.138 113.048 165.122 113.183 165.094 113.319C165.069 113.453 165.032 113.584 164.995 113.717C164.956 113.85 164.913 113.981 164.86 114.111C164.807 114.242 164.744 114.368 164.679 114.492C164.614 114.616 164.548 114.735 164.469 114.854C164.389 114.975 164.3 115.09 164.205 115.205C164.151 115.273 164.112 115.346 164.052 115.411C148.551 132.263 125.837 141.927 101.737 141.927H88.0686C86.1862 148.736 79.952 153.757 72.5519 153.757C65.153 153.757 58.9165 148.736 57.0341 141.927H28.3496C40.4529 173.709 70.6007 194.67 105.1 194.67C125.999 194.67 145.948 186.743 161.276 172.348C173.304 160.384 192.822 160.399 204.826 172.395ZM80.0759 87.3554C80.0759 83.2098 76.7043 79.8359 72.5554 79.8359C68.4075 79.8359 65.0313 83.2098 65.0313 87.3554C65.0313 91.5088 68.4075 94.885 72.5554 94.885C76.7043 94.885 80.0759 91.5088 80.0759 87.3554ZM65.0313 137.642C65.0313 141.79 68.4075 145.164 72.5554 145.164C76.7043 145.164 80.0759 141.79 80.0759 137.642C80.0759 133.49 76.7043 130.112 72.5554 130.112C68.4087 130.112 65.0313 133.49 65.0313 137.642Z" fill="#08B0A0"/>
</svg>
