<svg width="81" height="85" viewBox="0 0 81 85" fill="none" xmlns="http://www.w3.org/2000/svg">
<path d="M57.1501 26.1849C57.4906 25.8436 57.6787 25.3904 57.6787 24.9082C57.6787 24.435 57.497 23.9903 57.168 23.6519C52.385 19.2179 46.1835 16.7759 39.7059 16.7759C31.0042 16.7759 22.9561 21.1266 18.1778 28.4128C17.6863 29.1631 16.6798 29.3716 15.9308 28.8809C15.1814 28.389 14.972 27.3825 15.4631 26.6335C20.8441 18.4289 29.9062 13.5305 39.7059 13.5305C47.0181 13.5305 54.0132 16.2887 59.4022 21.2968C59.4159 21.3104 59.4299 21.324 59.4444 21.3377C60.3994 22.2914 60.9249 23.5604 60.9249 24.9099C60.9245 26.2581 60.3998 27.5255 59.4457 28.4805C58.4609 29.4648 57.1671 29.9568 55.8738 29.9568C54.5813 29.9568 53.2881 29.4653 52.3037 28.4801C51.67 27.8464 51.67 26.8186 52.3037 26.1849C52.9374 25.5513 53.9647 25.5513 54.5988 26.1854C55.3027 26.8876 56.4466 26.8871 57.1501 26.1849ZM71.1808 71.3787C72.2882 72.4869 72.2882 74.2892 71.1813 75.3961C70.0731 76.5043 68.2686 76.5039 67.1609 75.3965C66.5272 74.7633 65.499 74.7641 64.8649 75.3978C64.2321 76.0323 64.2325 77.0601 64.8666 77.6938C67.2404 80.0642 71.1017 80.0642 73.4755 77.6916C75.8494 75.3191 75.8489 71.4574 73.4755 69.0831C71.1021 66.7101 67.24 66.7106 64.8964 69.0538C58.0613 75.5404 49.1153 79.113 39.7059 79.113C21.2122 79.113 5.92172 65.6769 3.43978 47.5742H12.2666C13.1633 47.5742 13.8898 46.8474 13.8898 45.9511V39.0483C13.8898 38.1525 13.1633 37.426 12.2666 37.426H3.43978C5.92172 19.3234 21.2122 5.88679 39.7059 5.88679C49.1153 5.88679 58.0621 9.45906 64.8662 15.9159C67.24 18.2888 71.1017 18.2884 73.4755 15.9159C74.6254 14.7668 75.2583 13.2377 75.2583 11.612C75.2583 9.98591 74.6254 8.45726 73.4751 7.30736C71.1021 4.93607 67.2409 4.93522 64.8662 7.30609C64.2321 7.93977 64.2316 8.96709 64.8645 9.60162C65.4981 10.2353 66.5255 10.2357 67.1604 9.60291C68.2686 8.49557 70.0722 8.49557 71.1804 9.60291C71.7171 10.1404 72.0124 10.8532 72.0124 11.6125C72.0124 12.3708 71.7171 13.0849 71.1804 13.6207C70.0722 14.7281 68.2691 14.7285 67.1302 13.5914C59.69 6.53026 49.9499 2.6418 39.705 2.6418C29.6849 2.6418 20.1078 6.37365 12.7369 13.1496C5.41064 19.8843 0.889739 29.0312 0.00667413 38.9049C-0.0346065 39.359 0.117762 39.8088 0.425026 40.145C0.73229 40.4812 1.16722 40.6727 1.62216 40.6727H10.643V44.3288H1.62216C1.16722 44.3288 0.731865 44.5203 0.425026 44.8565C0.116911 45.1923 -0.0346065 45.6421 0.00667413 46.0958C0.889739 55.9691 5.41064 65.1159 12.7369 71.8511C20.1078 78.6275 29.6849 82.3593 39.705 82.3593C49.9499 82.3593 59.6899 78.47 67.1609 71.3795C68.269 70.2713 70.0718 70.2709 71.1808 71.3787ZM39.7059 68.2239C31.0042 68.2239 22.9561 63.8733 18.1778 56.587C17.6867 55.8372 16.6794 55.6278 15.9308 56.1198C15.1814 56.6113 14.972 57.6173 15.4631 58.3668C20.8441 66.571 29.9062 71.4697 39.7059 71.4697C47.0181 71.4697 54.0132 68.7112 59.4022 63.7035C59.4159 63.6903 59.4299 63.6762 59.4444 63.6622C60.3994 62.7085 60.9249 61.4398 60.9249 60.0908C60.9245 58.7426 60.3998 57.4744 59.4444 56.5185C57.4752 54.5507 54.272 54.5511 52.3041 56.5198C51.6709 57.1535 51.6709 58.1812 52.3041 58.8158C52.9382 59.449 53.9655 59.4494 54.5996 58.8153C55.3031 58.1131 56.4475 58.1119 57.1493 58.8141C57.491 59.1554 57.6787 59.6095 57.6787 60.0916C57.6787 60.5644 57.4974 61.0096 57.1684 61.3479C52.3845 65.7824 46.1835 68.2239 39.7059 68.2239ZM77.3789 65.127C79.5782 67.3264 80.7907 70.2505 80.7907 73.3606C80.7907 76.4719 79.5782 79.396 77.3789 81.5954C75.1089 83.8646 72.1252 85 69.1428 85C66.1608 85 63.1796 83.8659 60.9096 81.598C60.2751 80.9643 60.2747 79.9365 60.9079 79.302C61.5412 78.6692 62.5685 78.6687 63.2035 79.3007C66.4787 82.5742 71.8086 82.5734 75.0838 79.299C76.6707 77.7133 77.5436 75.6042 77.5436 73.3606C77.5436 71.1178 76.6699 69.0087 75.0838 67.4225C71.8081 64.1499 66.4787 64.1503 63.2039 67.4225C63.192 67.434 63.1796 67.4464 63.1686 67.457C56.7701 73.4742 48.4374 76.7873 39.705 76.7873C32.2001 76.7873 25.0734 74.4071 19.0949 69.9036C13.3135 65.5496 8.97864 59.3554 6.8878 52.4641C6.73884 51.9721 6.83164 51.4393 7.13762 51.0265C7.44404 50.6128 7.92706 50.3703 8.44115 50.3703H21.5484C22.2625 47.8011 24.6163 45.9077 27.4089 45.9077C30.2015 45.9077 32.5541 47.8011 33.2687 50.3703H38.4347C46.0916 50.3703 53.32 47.5181 58.5124 42.5001C53.32 37.4814 46.0916 34.6292 38.4347 34.6292H33.2687C32.5541 37.1983 30.2015 39.0917 27.4089 39.0917C24.6163 39.0917 22.262 37.1983 21.5484 34.6292H8.44115C7.92706 34.6292 7.44318 34.3862 7.13762 33.9734C6.83206 33.5605 6.73884 33.0273 6.8878 32.5358C8.97779 25.644 13.3135 19.4507 19.0949 15.0958C25.0734 10.5928 32.2001 8.21256 39.705 8.21256C48.4378 8.21256 56.7705 11.5256 63.1686 17.5424C63.1796 17.5535 63.192 17.5658 63.2039 17.5769C66.4787 20.8495 71.8085 20.8495 75.0842 17.5769C76.6707 15.9912 77.5436 13.882 77.5436 11.6388C77.5436 9.39565 76.6699 7.28651 75.0838 5.70082C71.809 2.42731 66.4799 2.42646 63.2035 5.69869C62.5694 6.33195 61.542 6.33152 60.9079 5.69742C60.2747 5.06332 60.2751 4.03598 60.9096 3.4023C65.4505 -1.13516 72.8384 -1.13389 77.3784 3.40485C79.5778 5.60378 80.7898 8.52791 80.7898 11.6388C80.7898 14.7498 79.5778 17.6739 77.3784 19.8733C72.844 24.4039 65.4701 24.4111 60.9271 19.892C55.1363 14.4536 47.6003 11.4588 39.705 11.4588C26.6719 11.4588 15.2826 19.3783 10.7103 31.3842H21.5466C22.2582 28.8116 24.6138 26.9152 27.4093 26.9152C30.2045 26.9152 32.5605 28.8116 33.2708 31.3842H38.4342C47.5398 31.3842 56.1206 35.0356 61.9757 41.4017C61.9987 41.426 62.014 41.4545 62.0353 41.48C62.0702 41.5234 62.1029 41.5656 62.1327 41.6115C62.1625 41.6562 62.1889 41.7026 62.2131 41.7499C62.2378 41.7958 62.2604 41.8431 62.28 41.8911C62.3 41.9409 62.3166 41.9907 62.3315 42.0418C62.3455 42.0912 62.3587 42.1401 62.3689 42.1907C62.3787 42.2422 62.3855 42.2942 62.3902 42.3465C62.3957 42.398 62.3991 42.4486 62.3991 42.5001C62.3991 42.5521 62.3953 42.6031 62.3902 42.6546C62.3855 42.707 62.3796 42.758 62.3689 42.8095C62.3596 42.8602 62.3455 42.9095 62.3315 42.9598C62.3166 43.01 62.3004 43.0593 62.2804 43.1087C62.2604 43.1581 62.2366 43.2057 62.2119 43.2526C62.1876 43.2994 62.1625 43.3445 62.1327 43.3892C62.1025 43.4351 62.0689 43.4785 62.0331 43.5219C62.0127 43.5475 61.9978 43.5751 61.9753 43.5998C56.1194 49.966 47.5385 53.617 38.4338 53.617H33.2704C32.5592 56.1891 30.2041 58.0859 27.4085 58.0859C24.6133 58.0859 22.2574 56.1891 21.5462 53.617H10.7099C15.2822 65.6232 26.6714 73.5419 39.7046 73.5419C47.5998 73.5419 55.1359 70.5475 60.9267 65.1091C65.4705 60.5895 72.844 60.5951 77.3789 65.127ZM30.2509 33.0009C30.2509 31.4348 28.9772 30.1602 27.4098 30.1602C25.8428 30.1602 24.5674 31.4348 24.5674 33.0009C24.5674 34.57 25.8428 35.8455 27.4098 35.8455C28.9772 35.8455 30.2509 34.57 30.2509 33.0009ZM24.5674 51.9981C24.5674 53.565 25.8428 54.8396 27.4098 54.8396C28.9772 54.8396 30.2509 53.565 30.2509 51.9981C30.2509 50.4294 28.9772 49.1536 27.4098 49.1536C25.8433 49.1536 24.5674 50.4294 24.5674 51.9981Z" fill="#08B0A0"/>
</svg>
