<svg width="356" height="375" viewBox="0 0 356 375" fill="none" xmlns="http://www.w3.org/2000/svg">
<path d="M251.829 115.383C253.329 113.879 254.158 111.881 254.158 109.757C254.158 107.671 253.357 105.712 251.908 104.221C230.832 84.6825 203.505 73.9223 174.962 73.9223C136.618 73.9223 101.155 93.0931 80.0995 125.2C77.9336 128.506 73.4987 129.424 70.1983 127.262C66.8959 125.095 65.9733 120.659 68.1373 117.359C91.8482 81.2058 131.78 59.6215 174.962 59.6215C207.183 59.6215 238.006 71.7751 261.753 93.8432C261.813 93.9032 261.875 93.9632 261.938 94.0232C266.147 98.2257 268.462 103.818 268.462 109.764C268.461 115.705 266.148 121.29 261.944 125.498C257.605 129.835 251.904 132.003 246.205 132.003C240.51 132.003 234.811 129.837 230.473 125.496C227.681 122.704 227.681 118.175 230.473 115.383C233.266 112.59 237.793 112.59 240.587 115.384C243.688 118.479 248.729 118.477 251.829 115.383ZM313.655 314.526C318.534 319.41 318.534 327.351 313.656 332.229C308.773 337.112 300.822 337.11 295.941 332.231C293.148 329.44 288.618 329.444 285.824 332.236C283.035 335.032 283.037 339.561 285.831 342.353C296.291 352.799 313.306 352.799 323.766 342.344C334.226 331.889 334.224 314.873 323.766 304.411C313.308 293.955 296.29 293.957 285.963 304.282C255.844 332.865 216.424 348.607 174.962 348.607C93.4703 348.607 26.0938 289.402 15.1572 209.633H54.0523C58.0034 209.633 61.2045 206.43 61.2045 202.481V172.064C61.2045 168.117 58.0034 164.916 54.0523 164.916H15.1572C26.0938 85.1476 93.4703 25.9398 174.962 25.9398C216.424 25.9398 255.848 41.6808 285.829 70.1323C296.29 80.5888 313.306 80.587 323.766 70.1323C328.833 65.0691 331.622 58.3313 331.622 51.1678C331.622 44.0024 328.833 37.2665 323.764 32.1995C313.308 21.7505 296.293 21.7468 285.829 32.1939C283.035 34.9861 283.033 39.513 285.822 42.309C288.614 45.1013 293.141 45.1032 295.939 42.3147C300.822 37.4353 308.77 37.4353 313.653 42.3147C316.017 44.6832 317.319 47.8242 317.319 51.1697C317.319 54.5114 316.017 57.6581 313.653 60.019C308.77 64.8985 300.824 64.9004 295.806 59.8896C263.021 28.7752 220.101 11.6409 174.958 11.6409C130.805 11.6409 88.604 28.0851 56.1244 57.9431C23.8417 87.6192 3.92059 127.924 0.0294092 171.432C-0.152492 173.433 0.518914 175.415 1.87286 176.897C3.2268 178.378 5.1433 179.222 7.14796 179.222H46.898V195.333H7.14796C5.1433 195.333 3.22492 196.176 1.87286 197.658C0.515163 199.137 -0.152492 201.12 0.0294092 203.119C3.92059 246.625 23.8417 286.93 56.1244 316.608C88.604 346.468 130.805 362.912 174.958 362.912C220.101 362.912 263.02 345.774 295.941 314.53C300.824 309.647 308.768 309.645 313.655 314.526ZM174.962 300.625C136.618 300.625 101.155 281.454 80.0995 249.348C77.9354 246.043 73.4969 245.121 70.1983 247.289C66.8959 249.455 65.9733 253.888 68.1373 257.19C91.8482 293.341 131.78 314.928 174.962 314.928C207.183 314.928 238.006 302.772 261.753 280.706C261.813 280.648 261.875 280.586 261.938 280.524C266.147 276.322 268.462 270.731 268.462 264.787C268.461 258.846 266.148 253.258 261.938 249.046C253.262 240.375 239.147 240.376 230.475 249.051C227.685 251.844 227.685 256.372 230.475 259.168C233.269 261.959 237.796 261.961 240.59 259.167C243.69 256.072 248.733 256.067 251.825 259.161C253.331 260.665 254.158 262.666 254.158 264.791C254.158 266.874 253.359 268.835 251.909 270.326C230.83 289.867 203.505 300.625 174.962 300.625ZM340.966 286.979C350.657 296.67 356 309.555 356 323.259C356 336.969 350.657 349.854 340.966 359.546C330.963 369.545 317.816 374.548 304.674 374.548C291.534 374.548 278.398 369.55 268.395 359.557C265.599 356.765 265.597 352.236 268.387 349.44C271.178 346.651 275.705 346.65 278.503 349.434C292.935 363.859 316.421 363.855 330.853 349.427C337.845 342.44 341.692 333.146 341.692 323.259C341.692 313.377 337.842 304.083 330.853 297.094C316.419 282.673 292.935 282.675 278.505 297.094C278.452 297.144 278.398 297.199 278.349 297.246C250.154 323.76 213.437 338.359 174.958 338.359C141.888 338.359 110.484 327.871 84.1407 308.027C58.6653 288.841 39.5639 261.546 30.3507 231.18C29.6944 229.012 30.1032 226.665 31.4516 224.846C32.8017 223.023 34.9301 221.954 37.1955 221.954H94.9517C98.0984 210.633 108.47 202.29 120.776 202.29C133.081 202.29 143.448 210.633 146.597 221.954H169.36C203.1 221.954 234.952 209.386 257.832 187.275C234.952 165.16 203.1 152.592 169.36 152.592H146.597C143.448 163.913 133.081 172.256 120.776 172.256C108.47 172.256 98.0965 163.913 94.9517 152.592H37.1955C34.9301 152.592 32.798 151.521 31.4516 149.702C30.1051 147.883 29.6944 145.533 30.3507 143.367C39.5601 112.999 58.6653 85.7083 84.1407 66.5187C110.484 46.6765 141.888 36.1882 174.958 36.1882C213.439 36.1882 250.156 50.7871 278.349 77.2996C278.398 77.3484 278.452 77.4028 278.505 77.4515C292.935 91.8723 316.421 91.8723 330.854 77.4515C337.845 70.4643 341.692 61.1705 341.692 51.286C341.692 41.4014 337.842 32.1076 330.853 25.1204C316.422 10.6958 292.94 10.6921 278.503 25.111C275.709 27.9014 271.182 27.8995 268.387 25.1054C265.597 22.3112 265.599 17.7843 268.395 14.9921C288.404 -5.00202 320.959 -4.99643 340.964 15.0033C350.655 24.6928 355.996 37.5778 355.996 51.286C355.996 64.9941 350.655 77.8791 340.964 87.5705C320.983 107.535 288.49 107.566 268.472 87.6529C242.955 63.6889 209.748 50.4927 174.958 50.4927C117.528 50.4927 67.3421 85.3895 47.1942 138.293H94.9441C98.0796 126.957 108.459 118.6 120.778 118.6C133.095 118.6 143.476 126.957 146.606 138.293H169.358C209.482 138.293 247.293 154.382 273.093 182.435C273.194 182.541 273.261 182.667 273.355 182.78C273.509 182.971 273.653 183.156 273.785 183.359C273.916 183.556 274.032 183.76 274.139 183.968C274.248 184.171 274.347 184.379 274.433 184.591C274.521 184.81 274.595 185.03 274.66 185.255C274.722 185.472 274.78 185.688 274.825 185.911C274.869 186.138 274.898 186.367 274.919 186.598C274.943 186.824 274.958 187.048 274.958 187.275C274.958 187.503 274.942 187.728 274.919 187.955C274.898 188.186 274.872 188.411 274.825 188.638C274.784 188.861 274.722 189.079 274.66 189.3C274.595 189.521 274.523 189.739 274.435 189.956C274.347 190.174 274.242 190.384 274.133 190.59C274.026 190.796 273.916 190.995 273.785 191.192C273.651 191.395 273.503 191.586 273.346 191.777C273.256 191.89 273.19 192.011 273.091 192.12C247.287 220.172 209.476 236.26 169.357 236.26H146.604C143.471 247.594 133.093 255.952 120.774 255.952C108.457 255.952 98.0759 247.594 94.9423 236.26H47.1924C67.3402 289.165 117.526 324.058 174.956 324.058C209.746 324.058 242.953 310.864 268.47 286.9C288.492 266.985 320.983 267.009 340.966 286.979ZM133.299 145.417C133.299 138.516 127.686 132.899 120.78 132.899C113.875 132.899 108.255 138.516 108.255 145.417C108.255 152.331 113.875 157.951 120.78 157.951C127.686 157.951 133.299 152.331 133.299 145.417ZM108.255 229.127C108.255 236.031 113.875 241.648 120.78 241.648C127.686 241.648 133.299 236.031 133.299 229.127C133.299 222.215 127.686 216.592 120.78 216.592C113.877 216.592 108.255 222.215 108.255 229.127Z" fill="white"/>
</svg>
