<svg width="355" height="501" viewBox="0 0 355 501" fill="none" xmlns="http://www.w3.org/2000/svg">
<path d="M130.54 292.366C118.152 292.366 108.074 302.44 108.074 314.818C108.074 327.206 118.152 337.282 130.54 337.282C142.92 337.282 152.986 327.206 152.986 314.818C152.99 302.44 142.92 292.366 130.54 292.366ZM130.54 321.815C126.682 321.815 123.543 318.677 123.543 314.82C123.543 310.972 126.682 307.839 130.54 307.839C134.387 307.839 137.517 310.972 137.517 314.82C137.521 318.675 134.391 321.815 130.54 321.815ZM43.9852 95.9281C43.9852 91.6547 47.4473 88.1925 51.7187 88.1925C66.8773 88.1925 79.2087 100.524 79.2087 115.681V355.888C79.2087 362.523 84.5915 367.916 91.2054 367.916C97.8335 367.916 103.226 362.523 103.226 355.888C103.226 351.619 106.689 348.157 110.962 348.157C115.231 348.157 118.693 351.619 118.693 355.888C118.693 371.053 106.362 383.387 91.2034 383.387C76.059 383.387 63.7378 371.053 63.7378 355.888V115.678C63.7378 109.05 58.3448 103.659 51.7167 103.659C47.4474 103.659 43.9852 100.199 43.9852 95.9281ZM73.1931 476.947C32.8343 476.947 0 444.114 0 403.76C0 399.486 3.46209 396.024 7.73344 396.024C12.0048 396.024 15.4669 399.486 15.4669 403.76C15.4669 435.582 41.3627 461.478 73.191 461.478C105.019 461.478 130.917 435.582 130.917 403.76V394.398C120.811 404.928 106.603 411.493 90.889 411.493C60.2776 411.493 35.3715 386.593 35.3715 355.986V270.713C35.3715 265.227 30.9075 260.763 25.4193 260.763C19.9351 260.763 15.469 265.227 15.469 270.713C15.469 274.986 12.0068 278.448 7.73542 278.448C3.46407 278.448 0.00198065 274.986 0.00198065 270.713C0.00198065 256.696 11.4065 245.294 25.4213 245.294C39.438 245.294 50.8425 256.696 50.8425 270.713V355.986C50.8425 378.063 68.8081 396.024 90.891 396.024C112.962 396.024 130.919 378.063 130.919 355.986C130.919 351.716 134.381 348.254 138.651 348.254C142.924 348.254 146.386 351.716 146.386 355.986V403.762C146.39 444.112 113.552 476.947 73.1931 476.947ZM246.256 314.818C246.256 302.438 236.174 292.366 223.786 292.366C211.406 292.366 201.34 302.44 201.34 314.818C201.34 327.206 211.408 337.282 223.786 337.282C236.174 337.284 246.256 327.208 246.256 314.818ZM223.786 321.815C219.938 321.815 216.809 318.677 216.809 314.82C216.809 310.972 219.938 307.839 223.786 307.839C227.643 307.839 230.787 310.972 230.787 314.82C230.787 318.675 227.643 321.815 223.786 321.815ZM116.41 55.8552C131.043 34.7296 150.049 16.3644 172.903 1.2808C175.485 -0.426933 178.841 -0.426933 181.425 1.2808C204.279 16.3664 223.285 34.7296 237.918 55.8552C240.35 59.3639 239.476 64.1829 235.963 66.6167C234.62 67.5476 233.085 67.9959 231.566 67.9959C229.114 67.9959 226.702 66.8317 225.201 64.6656C212.613 46.489 196.466 30.4968 177.162 17.0783C157.858 30.4968 141.713 46.489 129.124 64.6656C126.692 68.1724 121.871 69.0505 118.361 66.6167C114.852 64.1849 113.976 59.3659 116.41 55.8552ZM251.103 355.884C251.103 362.519 256.496 367.912 263.124 367.912C269.742 367.912 275.121 362.519 275.121 355.884V115.678C275.121 100.522 287.452 88.1905 302.611 88.1905C306.885 88.1905 310.347 91.6526 310.347 95.926C310.347 100.195 306.885 103.657 302.611 103.657C295.983 103.657 290.59 109.048 290.59 115.676V355.884C290.59 371.047 278.269 383.38 263.124 383.38C247.966 383.38 235.634 371.047 235.634 355.884C235.634 351.613 239.097 348.153 243.366 348.153C247.639 348.153 251.103 351.615 251.103 355.884ZM354.328 403.76C354.328 444.112 321.496 476.947 281.135 476.947C240.778 476.947 207.94 444.114 207.94 403.76V355.984C207.94 351.714 211.402 348.252 215.675 348.252C219.944 348.252 223.406 351.714 223.406 355.984C223.406 378.063 241.364 396.022 263.435 396.022C285.518 396.022 303.483 378.063 303.483 355.984V270.711C303.483 256.694 314.888 245.292 328.904 245.292C342.923 245.292 354.324 256.694 354.324 270.711C354.324 274.984 350.864 278.446 346.592 278.446C342.319 278.446 338.857 274.984 338.857 270.711C338.857 265.225 334.395 260.761 328.906 260.761C323.42 260.761 318.954 265.225 318.954 270.711V355.984C318.954 386.591 294.048 411.491 263.437 411.491C247.722 411.491 233.515 404.928 223.408 394.396V403.758C223.408 435.58 249.306 461.476 281.135 461.476C312.965 461.476 338.859 435.58 338.859 403.758C338.859 399.484 342.321 396.022 346.594 396.022C350.866 396.022 354.328 399.484 354.328 403.76ZM102.577 280.6V176.003C102.577 119.804 128.019 67.5294 172.377 32.5757C175.186 30.3609 179.143 30.3609 181.952 32.5757C226.313 67.5254 251.754 119.802 251.754 176.003V280.6C251.754 283.365 250.278 285.916 247.889 287.299C245.495 288.685 242.548 288.683 240.155 287.303C234.961 284.304 229.477 282.785 223.857 282.785C211.43 282.785 200.214 289.79 194.578 301.063C193.223 303.774 190.491 305.344 187.654 305.344C186.492 305.344 185.313 305.08 184.202 304.525C180.381 302.618 178.833 297.974 180.74 294.153C189.011 277.601 205.534 267.318 223.857 267.318C228.083 267.318 232.235 267.884 236.288 269.005V176.005C236.288 126.629 214.817 80.5544 177.168 48.6389C139.519 80.5544 118.05 126.629 118.05 176.005V269.005C122.101 267.884 126.252 267.318 130.479 267.318C148.804 267.318 165.327 277.601 173.596 294.153C175.505 297.974 173.957 302.618 170.134 304.525C166.313 306.437 161.669 304.888 159.758 301.063C154.126 289.79 142.906 282.785 130.479 282.785C124.859 282.785 119.375 284.304 114.181 287.303C111.787 288.683 108.838 288.685 106.447 287.299C104.052 285.916 102.577 283.367 102.577 280.6ZM269.067 493.164C269.067 497.433 265.605 500.896 261.334 500.896C219.186 500.896 184.897 466.611 184.897 424.472V355.982C184.897 351.719 181.425 348.25 177.164 348.25C172.903 348.25 169.432 351.719 169.432 355.982V424.472C169.432 466.609 135.142 500.896 92.9943 500.896C88.725 500.896 85.2628 497.433 85.2628 493.164C85.2628 488.893 88.725 485.431 92.9943 485.431C126.613 485.431 153.963 458.085 153.963 424.474V355.984C153.963 343.192 164.372 332.785 177.164 332.785C189.96 332.785 200.364 343.194 200.364 355.984V424.474C200.364 458.083 227.712 485.431 261.334 485.431C265.605 485.429 269.067 488.893 269.067 493.164Z" fill="white"/>
</svg>
