<svg width="329" height="313" viewBox="0 0 329 313" fill="none" xmlns="http://www.w3.org/2000/svg">
<path d="M227.544 221.539C228.865 222.856 230.618 223.584 232.484 223.584C234.314 223.584 236.035 222.881 237.344 221.608C254.498 203.103 263.946 179.111 263.946 154.05C263.946 120.385 247.114 89.2489 218.925 70.7624C216.022 68.8608 215.215 64.967 217.114 62.0693C219.017 59.1699 222.911 58.3598 225.809 60.2598C257.551 81.0777 276.502 116.137 276.502 154.05C276.502 182.34 265.831 209.403 246.455 230.252C246.403 230.305 246.35 230.359 246.297 230.415C242.608 234.11 237.698 236.143 232.477 236.143C227.261 236.141 222.358 234.111 218.663 230.42C214.855 226.61 212.952 221.605 212.952 216.601C212.952 211.601 214.853 206.597 218.665 202.789C221.116 200.337 225.093 200.337 227.544 202.789C229.996 205.241 229.996 209.215 227.542 211.668C224.826 214.392 224.827 218.817 227.544 221.539ZM52.6982 275.821C48.4109 280.105 41.4381 280.105 37.1556 275.823C32.8683 271.535 32.8699 264.554 37.154 260.268C39.604 257.817 39.6006 253.839 37.1491 251.386C34.6942 248.938 30.718 248.939 28.2664 251.392C19.0956 260.576 19.0956 275.515 28.2747 284.699C37.4537 293.883 52.3937 293.881 61.5793 284.699C70.7599 275.516 70.7583 260.575 61.6929 251.508C36.5975 225.064 22.7755 190.454 22.7755 154.05C22.7755 82.5018 74.7575 23.346 144.793 13.7439L144.793 47.8933C144.793 51.3624 147.605 54.1728 151.073 54.1728L177.778 54.1728C181.244 54.1728 184.055 51.3624 184.055 47.8933L184.055 13.7439C254.09 23.346 306.074 82.5018 306.074 154.05C306.074 190.454 292.253 225.067 267.273 251.391C258.093 260.575 258.094 275.515 267.273 284.699C271.719 289.147 277.634 291.596 283.924 291.596C290.215 291.596 296.129 289.147 300.578 284.697C309.752 275.516 309.755 260.578 300.583 251.391C298.131 248.938 294.157 248.936 291.702 251.384C289.25 253.836 289.249 257.81 291.697 260.267C295.981 264.554 295.981 271.532 291.697 275.819C289.617 277.896 286.86 279.038 283.922 279.038C280.988 279.038 278.226 277.896 276.153 275.819C271.869 271.532 271.867 264.556 276.266 260.15C303.584 231.365 318.628 193.682 318.628 154.047C318.628 115.281 304.19 78.2293 277.975 49.7126C251.92 21.3688 216.533 3.87826 178.333 0.46185C176.576 0.302143 174.836 0.891629 173.535 2.08037C172.235 3.26912 171.494 4.95178 171.494 6.71185L171.494 41.6119L157.349 41.6119L157.349 6.71185C157.349 4.95178 156.608 3.26747 155.307 2.08037C154.008 0.888335 152.268 0.302142 150.513 0.461848C112.315 3.87825 76.9276 21.3687 50.8707 49.7126C24.6541 78.2293 10.2163 115.281 10.2163 154.047C10.2163 193.682 25.2633 231.365 52.695 260.268C56.9824 264.556 56.984 271.53 52.6982 275.821ZM64.9035 154.05C64.9035 120.385 81.7353 89.2489 109.924 70.7624C112.825 68.8624 113.635 64.9654 111.732 62.0693C109.83 59.1698 105.938 58.3598 103.039 60.2598C71.2983 81.0777 52.3459 116.137 52.3459 154.05C52.3459 182.34 63.0183 209.403 82.3922 230.252C82.4432 230.305 82.4976 230.359 82.5519 230.415C86.2416 234.11 91.1497 236.143 96.369 236.143C101.585 236.141 106.491 234.111 110.189 230.415C117.803 222.797 117.801 210.404 110.184 202.791C107.733 200.341 103.757 200.341 101.302 202.791C98.8519 205.244 98.8502 209.218 101.303 211.671C104.02 214.393 104.025 218.821 101.308 221.536C99.9879 222.858 98.2311 223.584 96.3657 223.584C94.5365 223.584 92.8143 222.882 91.5053 221.61C74.3492 203.102 64.9035 179.111 64.9035 154.05ZM76.8848 299.8C68.3758 308.309 57.063 313 45.0307 313C32.9934 313 21.6806 308.309 13.1717 299.8C4.39274 291.018 -1.22969e-05 279.475 -1.17926e-05 267.936C-1.12883e-05 256.399 4.38779 244.866 13.1618 236.084C15.6134 233.629 19.5896 233.627 22.0445 236.077C24.4928 238.527 24.4944 242.502 22.0494 244.958C9.38481 257.629 9.3881 278.25 22.056 290.921C28.1907 297.06 36.3506 300.437 45.0307 300.437C53.7075 300.437 61.8674 297.057 68.0038 290.921C80.6651 278.248 80.6634 257.629 68.0038 244.96C67.9593 244.914 67.9115 244.866 67.8704 244.823C44.5911 220.068 31.7734 187.831 31.7734 154.047C31.7734 125.012 40.982 97.4401 58.4049 74.3106C75.2498 51.9434 99.2141 35.1726 125.875 27.0836C127.779 26.5073 129.84 26.8663 131.437 28.0501C133.037 29.2356 133.976 31.1043 133.976 33.0932L133.976 83.8025C143.915 86.5652 151.241 95.6718 151.241 106.476C151.241 117.28 143.915 126.382 133.976 129.146L133.976 149.132C133.976 178.755 145.01 206.721 164.424 226.809C183.84 206.721 194.875 178.755 194.875 149.132L194.875 129.146C184.935 126.382 177.61 117.28 177.61 106.476C177.61 95.6718 184.935 86.5636 194.875 83.8025L194.875 33.0932C194.875 31.1043 195.815 29.2323 197.412 28.0501C199.009 26.868 201.072 26.5073 202.974 27.0836C229.637 35.1694 253.598 51.9434 270.446 74.3106C287.867 97.4401 297.076 125.012 297.076 154.047C297.076 187.833 284.258 220.07 260.98 244.823C260.938 244.866 260.89 244.914 260.847 244.96C248.186 257.629 248.186 278.249 260.847 290.922C266.982 297.06 275.142 300.437 283.82 300.437C292.499 300.437 300.659 297.057 306.793 290.921C319.458 278.251 319.461 257.634 306.801 244.958C304.352 242.505 304.353 238.53 306.806 236.077C309.26 233.627 313.234 233.629 315.686 236.084C333.24 253.651 333.235 282.234 315.676 299.798C307.169 308.307 295.856 312.996 283.82 312.996C271.785 312.996 260.472 308.307 251.963 299.798C234.435 282.255 234.407 253.727 251.89 236.151C272.931 213.748 284.517 184.592 284.517 154.047C284.517 103.624 253.878 59.5616 207.429 41.872L207.429 83.7958C217.382 86.5487 224.719 95.6619 224.719 106.477C224.719 117.291 217.382 126.406 207.429 129.154L207.429 149.131C207.429 184.358 193.303 217.556 168.673 240.208C168.579 240.297 168.469 240.356 168.37 240.439C168.202 240.574 168.039 240.7 167.862 240.816C167.689 240.931 167.509 241.033 167.326 241.127C167.149 241.222 166.966 241.309 166.78 241.385C166.587 241.463 166.395 241.527 166.197 241.585C166.006 241.639 165.817 241.69 165.621 241.729C165.422 241.767 165.221 241.794 165.018 241.812C164.819 241.833 164.623 241.846 164.424 241.846C164.223 241.846 164.025 241.831 163.826 241.812C163.624 241.794 163.426 241.771 163.227 241.729C163.031 241.693 162.84 241.639 162.646 241.585C162.451 241.527 162.26 241.464 162.069 241.387C161.878 241.31 161.694 241.217 161.513 241.122C161.332 241.028 161.157 240.931 160.984 240.816C160.807 240.699 160.639 240.569 160.471 240.43C160.372 240.351 160.265 240.294 160.169 240.206C135.54 217.551 121.415 184.353 121.415 149.129L121.415 129.153C111.464 126.401 104.125 117.29 104.125 106.474C104.125 95.6603 111.464 86.5455 121.415 83.7942L121.415 41.8704C74.965 59.5599 44.3293 103.623 44.3293 154.045C44.3293 184.591 55.9138 213.746 76.9539 236.15C94.4394 253.729 94.4179 282.255 76.8848 299.8ZM201.174 117.471C207.233 117.471 212.165 112.543 212.165 106.479C212.165 100.417 207.233 95.4825 201.174 95.4825C195.104 95.4825 190.169 100.417 190.169 106.479C190.169 112.543 195.104 117.471 201.174 117.471ZM127.678 95.4825C121.616 95.4824 116.685 100.417 116.685 106.479C116.685 112.543 121.616 117.471 127.678 117.471C133.747 117.471 138.683 112.543 138.683 106.479C138.683 100.419 133.747 95.4825 127.678 95.4825Z" fill="white"/>
</svg>
