<svg width="356" height="375" viewBox="0 0 356 375" fill="none" xmlns="http://www.w3.org/2000/svg">
<path d="M104.171 115.383C102.671 113.879 101.842 111.881 101.842 109.757C101.842 107.671 102.643 105.712 104.092 104.221C125.168 84.6825 152.495 73.9223 181.038 73.9223C219.382 73.9223 254.845 93.0931 275.901 125.2C278.066 128.506 282.501 129.424 285.802 127.262C289.104 125.095 290.027 120.659 287.863 117.359C264.152 81.2058 224.22 59.6215 181.038 59.6215C148.817 59.6215 117.994 71.7751 94.2472 93.8432C94.1872 93.9032 94.1253 93.9632 94.0616 94.0232C89.8535 98.2257 87.5375 103.818 87.5375 109.764C87.5394 115.705 89.8515 121.29 94.0558 125.498C98.3952 129.835 104.096 132.003 109.795 132.003C115.49 132.003 121.189 129.837 125.527 125.496C128.319 122.704 128.319 118.175 125.527 115.383C122.734 112.59 118.207 112.59 115.413 115.384C112.312 118.479 107.271 118.477 104.171 115.383ZM42.3455 314.526C37.466 319.41 37.4661 327.351 42.3437 332.229C47.2268 337.112 55.178 337.11 60.0593 332.231C62.8516 329.44 67.382 329.444 70.1762 332.236C72.9647 335.032 72.963 339.561 70.1689 342.353C59.7086 352.799 42.6943 352.799 32.2341 342.344C21.7739 331.889 21.7758 314.873 32.2341 304.411C42.6925 293.955 59.7104 293.957 70.0375 304.282C100.156 332.865 139.576 348.607 181.038 348.607C262.53 348.607 329.906 289.402 340.843 209.633H301.948C297.997 209.633 294.796 206.43 294.796 202.481V172.064C294.796 168.117 297.997 164.916 301.948 164.916H340.843C329.906 85.1476 262.53 25.9398 181.038 25.9398C139.576 25.9398 100.152 41.6808 70.1707 70.1323C59.7104 80.5888 42.6943 80.587 32.2341 70.1323C27.1671 65.0691 24.3784 58.3313 24.3784 51.1678C24.3784 44.0024 27.1671 37.2665 32.2359 32.1995C42.6924 21.7505 59.7067 21.7468 70.1707 32.1939C72.9648 34.9861 72.9668 39.513 70.1783 42.309C67.386 45.1013 62.859 45.1032 60.0612 42.3147C55.1779 37.4353 47.2305 37.4353 42.3473 42.3147C39.9826 44.6832 38.6812 47.8242 38.6812 51.1697C38.6812 54.5114 39.9826 57.6581 42.3473 60.019C47.2305 64.8985 55.1759 64.9004 60.1942 59.8896C92.9794 28.7752 135.899 11.6409 181.042 11.6409C225.195 11.6409 267.396 28.0851 299.876 57.9431C332.158 87.6192 352.079 127.924 355.971 171.432C356.152 173.433 355.481 175.415 354.127 176.897C352.773 178.378 350.857 179.222 348.852 179.222H309.102V195.333H348.852C350.857 195.333 352.775 196.176 354.127 197.658C355.485 199.137 356.152 201.12 355.971 203.119C352.079 246.625 332.158 286.93 299.876 316.608C267.396 346.468 225.195 362.912 181.042 362.912C135.899 362.912 92.9796 345.774 60.0593 314.53C55.1761 309.647 47.2324 309.645 42.3455 314.526ZM181.038 300.625C219.382 300.625 254.845 281.454 275.901 249.348C278.065 246.043 282.503 245.121 285.802 247.289C289.104 249.455 290.027 253.888 287.863 257.19C264.152 293.341 224.22 314.928 181.038 314.928C148.817 314.928 117.994 302.772 94.2472 280.706C94.1872 280.648 94.1253 280.586 94.0616 280.524C89.8535 276.322 87.5375 270.731 87.5375 264.787C87.5394 258.846 89.8516 253.258 94.0616 249.046C102.738 240.375 116.853 240.376 125.525 249.051C128.315 251.844 128.315 256.372 125.525 259.168C122.731 261.959 118.204 261.961 115.41 259.167C112.31 256.072 107.267 256.067 104.175 259.161C102.669 260.665 101.842 262.666 101.842 264.791C101.842 266.874 102.641 268.835 104.091 270.326C125.17 289.867 152.495 300.625 181.038 300.625ZM15.0342 286.979C5.3428 296.67 0 309.555 0 323.259C0 336.969 5.3428 349.854 15.0342 359.546C25.0368 369.545 38.1841 374.548 51.326 374.548C64.466 374.548 77.6024 369.55 87.605 359.557C90.4011 356.765 90.403 352.236 87.6126 349.44C84.8222 346.651 80.2952 346.65 77.4973 349.434C63.0653 363.859 39.5794 363.855 25.1474 349.427C18.1545 342.44 14.3083 333.146 14.3083 323.259C14.3083 313.377 18.1583 304.083 25.1474 297.094C39.5813 282.673 63.0653 282.675 77.4955 297.094C77.548 297.144 77.6024 297.199 77.6512 297.246C105.846 323.76 142.563 338.359 181.042 338.359C214.112 338.359 245.516 327.871 271.859 308.027C297.335 288.841 316.436 261.546 325.649 231.18C326.306 229.012 325.897 226.665 324.548 224.846C323.198 223.023 321.07 221.954 318.805 221.954H261.048C257.902 210.633 247.53 202.29 235.224 202.29C222.919 202.29 212.552 210.633 209.403 221.954H186.64C152.9 221.954 121.048 209.386 98.1683 187.275C121.048 165.16 152.9 152.592 186.64 152.592H209.403C212.552 163.913 222.919 172.256 235.224 172.256C247.53 172.256 257.904 163.913 261.048 152.592H318.805C321.07 152.592 323.202 151.521 324.548 149.702C325.895 147.883 326.306 145.533 325.649 143.367C316.44 112.999 297.335 85.7083 271.859 66.5187C245.516 46.6765 214.112 36.1882 181.042 36.1882C142.561 36.1882 105.844 50.7871 77.6512 77.2996C77.6024 77.3484 77.548 77.4028 77.4955 77.4515C63.0653 91.8723 39.5795 91.8723 25.1455 77.4515C18.1546 70.4643 14.3083 61.1705 14.3083 51.286C14.3083 41.4014 18.1583 32.1076 25.1474 25.1204C39.5775 10.6958 63.0597 10.6921 77.4973 25.111C80.2915 27.9014 84.8185 27.8995 87.6126 25.1054C90.403 22.3112 90.4011 17.7843 87.605 14.9921C67.5959 -5.00202 35.0414 -4.99643 15.036 15.0033C5.34464 24.6928 0.00390625 37.5778 0.00390625 51.286C0.00390625 64.9941 5.34464 77.8791 15.036 87.5705C35.017 107.535 67.5096 107.566 87.5281 87.6529C113.045 63.6889 146.252 50.4927 181.042 50.4927C238.472 50.4927 288.658 85.3895 308.806 138.293H261.056C257.92 126.957 247.541 118.6 235.222 118.6C222.905 118.6 212.524 126.957 209.394 138.293H186.642C146.518 138.293 108.707 154.382 82.9075 182.435C82.8062 182.541 82.7387 182.667 82.6449 182.78C82.4911 182.971 82.3467 183.156 82.2155 183.359C82.0842 183.556 81.968 183.76 81.8611 183.968C81.7523 184.171 81.653 184.379 81.5667 184.591C81.4786 184.81 81.4053 185.03 81.3397 185.255C81.2778 185.472 81.2196 185.688 81.1746 185.911C81.1315 186.138 81.1016 186.367 81.081 186.598C81.0566 186.824 81.0416 187.048 81.0416 187.275C81.0416 187.503 81.0585 187.728 81.081 187.955C81.1016 188.186 81.1277 188.411 81.1746 188.638C81.2159 188.861 81.2778 189.079 81.3397 189.3C81.4053 189.521 81.4765 189.739 81.5647 189.956C81.6528 190.174 81.7578 190.384 81.8666 190.59C81.9735 190.796 82.0842 190.995 82.2155 191.192C82.3486 191.395 82.4968 191.586 82.6543 191.777C82.7443 191.89 82.8099 192.011 82.9093 192.12C108.713 220.172 146.524 236.26 186.643 236.26H209.396C212.529 247.594 222.907 255.952 235.226 255.952C247.543 255.952 257.924 247.594 261.058 236.26H308.808C288.66 289.165 238.474 324.058 181.044 324.058C146.254 324.058 113.047 310.864 87.5299 286.9C67.5078 266.985 35.017 267.009 15.0342 286.979ZM222.701 145.417C222.701 138.516 228.314 132.899 235.22 132.899C242.125 132.899 247.745 138.516 247.745 145.417C247.745 152.331 242.125 157.951 235.22 157.951C228.314 157.951 222.701 152.331 222.701 145.417ZM247.745 229.127C247.745 236.031 242.125 241.648 235.22 241.648C228.314 241.648 222.701 236.031 222.701 229.127C222.701 222.215 228.314 216.592 235.22 216.592C242.123 216.592 247.745 222.215 247.745 229.127Z" fill="white"/>
</svg>
