<svg width="55" height="8" viewBox="0 0 55 8" fill="none" xmlns="http://www.w3.org/2000/svg">
<path d="M54.4942 5.27334C52.7367 7.09087 50.4279 8.00003 48.1191 8.00003C45.8087 8.00003 43.4991 7.09083 41.7408 5.27078C41.7392 5.2691 41.7375 5.26576 41.7343 5.26408C40.6851 4.17892 39.292 3.57977 37.8081 3.57977L37.8065 3.57977C36.3307 3.57977 34.944 4.17224 33.8964 5.24567C33.8883 5.25488 33.8835 5.26411 33.8762 5.27165C32.1179 7.09002 29.8091 7.99921 27.5003 7.99921C25.1907 7.99921 22.8827 7.08919 21.1244 5.26914C21.122 5.26663 21.1204 5.26327 21.118 5.26075C20.0696 4.17643 18.6756 3.57813 17.1917 3.57813L17.1901 3.57813C15.7143 3.57813 14.3276 4.1697 13.2809 5.24229C13.2736 5.25151 13.2687 5.26076 13.2606 5.26914C11.5048 7.08751 9.19599 7.9967 6.88721 7.9967C4.57842 7.9967 2.26803 7.08751 0.507302 5.26914C-0.16785 4.57112 -0.169509 3.43816 0.50483 2.7393C1.17836 2.04045 2.27369 2.03962 2.94884 2.7368C5.11434 4.97583 8.6293 4.9834 10.7964 2.75946C10.8045 2.75108 10.8094 2.74185 10.8167 2.73347C12.5183 0.970408 14.7818 3.177e-05 17.1901 3.19805e-05L17.1925 3.19807e-05C19.6033 0.000869994 21.8676 0.972089 23.5684 2.73767C23.5701 2.73935 23.5709 2.74186 23.5733 2.74437C25.7339 4.97586 29.2416 4.98169 31.4128 2.76109C31.4209 2.75188 31.4265 2.74349 31.4338 2.73511C33.1363 0.972047 35.3981 0.0017211 37.8065 0.00172131L37.8089 0.00172131C40.2197 0.00255932 42.4815 0.973728 44.1831 2.73931C44.1856 2.74098 44.1864 2.74436 44.1888 2.74688C46.36 4.98507 49.8839 4.98339 52.0518 2.74268C52.7262 2.04383 53.8198 2.04383 54.4949 2.74268C55.1685 3.44238 55.1685 4.57532 54.4942 5.27334Z" fill="#EC5F65"/>
</svg>
