<svg width="154" height="109" viewBox="0 0 154 109" fill="none" xmlns="http://www.w3.org/2000/svg">
<path d="M89.8439 68.7687C89.8439 72.5768 92.9384 75.6736 96.7426 75.6736C100.55 75.6736 103.645 72.576 103.645 68.7687C103.645 64.9653 100.549 61.8716 96.7426 61.8716C92.9384 61.8716 89.8439 64.9653 89.8439 68.7687ZM98.8921 68.7687C98.8921 69.9552 97.9292 70.9205 96.7434 70.9205C95.5592 70.9205 94.5971 69.956 94.5971 68.7687C94.5971 67.5868 95.56 66.6247 96.7434 66.6247C97.9284 66.6247 98.8921 67.5868 98.8921 68.7687ZM29.4776 95.3678C28.1648 95.3678 27.1006 94.3036 27.1006 92.9908C27.1006 88.3328 30.89 84.5426 35.5473 84.5426L109.363 84.5426C111.401 84.5426 113.059 82.8886 113.059 80.8568C113.059 78.8203 111.401 77.1624 109.363 77.1624C108.05 77.1624 106.987 76.0982 106.987 74.7855C106.987 73.472 108.05 72.4093 109.363 72.4093C114.022 72.4093 117.813 76.1979 117.813 80.8568C117.813 85.511 114.023 89.2972 109.363 89.2972L35.5473 89.2972C33.5108 89.2972 31.8545 90.9543 31.8545 92.9908C31.8545 94.3036 30.7911 95.3678 29.4776 95.3678ZM146.564 86.3921C146.564 98.7941 136.475 108.884 124.074 108.884C122.761 108.884 121.697 107.82 121.697 106.507C121.697 105.194 122.761 104.13 124.074 104.13C133.854 104.13 141.811 96.1726 141.811 86.3913C141.811 76.6101 133.854 68.6526 124.074 68.6526L121.198 68.6526C124.434 71.7572 126.451 76.1239 126.451 80.9526C126.451 90.3591 118.8 98.0127 109.393 98.0127L83.1891 98.0127C81.5032 98.0127 80.1313 99.3847 80.1313 101.071C80.1313 102.757 81.5032 104.129 83.1891 104.129C84.5018 104.129 85.5661 105.193 85.5661 106.506C85.5661 107.819 84.5018 108.883 83.1891 108.883C78.8816 108.883 75.3773 105.379 75.3773 101.071C75.3773 96.7647 78.8816 93.2604 83.1891 93.2604L109.393 93.2604C116.177 93.2604 121.697 87.7391 121.697 80.9534C121.697 74.1708 116.177 68.6534 109.393 68.6534C108.08 68.6534 107.017 67.5892 107.017 66.2757C107.017 64.9621 108.08 63.8987 109.393 63.8987L124.074 63.8987C136.475 63.8995 146.564 73.9893 146.564 86.3921ZM96.7434 33.2103C92.9384 33.2103 89.8447 36.3079 89.8447 40.1152C89.8447 43.9186 92.9392 47.0124 96.7434 47.0124C100.551 47.0124 103.646 43.9186 103.646 40.1152C103.646 36.3079 100.551 33.2103 96.7434 33.2103ZM98.8921 40.116C98.8921 41.2978 97.9292 42.26 96.7434 42.26C95.5592 42.26 94.5971 41.2978 94.5971 40.116C94.5971 38.9294 95.56 37.9634 96.7434 37.9634C97.9284 37.9634 98.8921 38.9287 98.8921 40.116ZM17.1643 73.1113C10.6723 68.6152 5.02949 62.7738 0.393234 55.7512C-0.131081 54.9573 -0.131081 53.9266 0.393234 53.1335C5.02949 46.1102 10.6723 40.2687 17.1643 35.7735C18.2433 35.0255 19.7243 35.2943 20.4715 36.3741C20.7574 36.7862 20.8953 37.2591 20.8953 37.725C20.8953 38.4784 20.5369 39.2193 19.8716 39.6813C14.2857 43.5494 9.37203 48.5105 5.24762 54.4424C9.37203 60.375 14.2857 65.3361 19.8716 69.2042C20.9491 69.9521 21.2186 71.4324 20.4723 72.5114C19.7251 73.5904 18.2433 73.8592 17.1643 73.1113ZM109.363 31.7215C111.401 31.7215 113.059 30.0636 113.059 28.0271C113.059 25.9953 111.401 24.3413 109.363 24.3413L35.5473 24.3413C30.89 24.3413 27.1006 20.552 27.1006 15.8939C27.1006 14.5796 28.1648 13.5162 29.4775 13.5162C30.7911 13.5162 31.8545 14.5796 31.8545 15.8939C31.8545 17.9296 33.5108 19.5867 35.5473 19.5867L109.363 19.5867C114.022 19.5867 117.813 23.373 117.813 28.0271C117.813 32.6852 114.023 36.4754 109.363 36.4754C108.05 36.4754 106.987 35.4119 106.987 34.0984C106.987 32.7857 108.051 31.7215 109.363 31.7215ZM124.074 4.79823e-05C136.475 4.74402e-05 146.564 10.0898 146.564 22.4918C146.564 34.8947 136.475 44.9844 124.074 44.9844L109.393 44.9844C108.08 44.9844 107.017 43.921 107.017 42.6067C107.017 41.2939 108.08 40.2298 109.393 40.2298C116.177 40.2298 121.697 34.7124 121.697 27.9298C121.697 21.144 116.177 15.6228 109.393 15.6228L83.1891 15.6228C78.8816 15.6228 75.3773 12.1185 75.3773 7.81022C75.3773 3.50428 78.8816 4.99577e-05 83.1891 4.97695e-05C84.5018 4.97121e-05 85.5661 1.06347 85.5661 2.37621C85.5661 3.68895 84.5018 4.75312 83.1891 4.75312C81.5032 4.75312 80.1313 6.12511 80.1313 7.81102C80.1313 9.49772 81.5032 10.8704 83.1891 10.8704L109.393 10.8704C118.799 10.8704 126.451 18.5232 126.451 27.9305C126.451 32.7592 124.434 37.1251 121.198 40.2305L124.074 40.2305C133.854 40.2305 141.811 32.2731 141.811 22.4918C141.811 12.7098 133.854 4.75237 124.074 4.75237C122.761 4.75237 121.697 3.68814 121.697 2.3754C121.697 1.06266 122.761 4.80397e-05 124.074 4.79823e-05ZM86.2283 77.3626L54.0853 77.3626C36.8156 77.3626 20.7512 69.5447 10.0109 55.9132C9.32997 55.0508 9.32997 53.8339 10.0109 52.9715C20.7504 39.34 36.8149 31.5221 54.0853 31.5221L86.2283 31.5221C87.0782 31.5221 87.8628 31.9747 88.2874 32.7094C88.7119 33.444 88.712 34.3501 88.2881 35.0863C87.3665 36.6826 86.9006 38.3678 86.9006 40.0942C86.9006 43.9132 89.0524 47.3606 92.5169 49.0917C93.3505 49.5085 93.832 50.3476 93.832 51.2201C93.832 51.5769 93.751 51.9392 93.5812 52.2804C92.9945 53.4545 91.5673 53.9305 90.3924 53.3438C85.3066 50.8025 82.1467 45.7261 82.1467 40.0934C82.1467 38.7955 82.3204 37.5194 82.6648 36.2744L54.0853 36.2744C38.9129 36.2744 24.7556 42.8723 14.9471 54.4416C24.7556 66.0123 38.9137 72.6088 54.0853 72.6088L82.6648 72.6087C82.3204 71.3638 82.1467 70.0877 82.1467 68.7898C82.1467 63.1586 85.3066 58.0814 90.3924 55.5401C91.5673 54.9534 92.9945 55.4294 93.5812 56.6035C94.1686 57.7783 93.6918 59.2056 92.5169 59.793C89.0524 61.5233 86.9006 64.9707 86.9006 68.7898C86.9006 70.517 87.3673 72.2013 88.2881 73.7984C88.712 74.5338 88.712 75.4399 88.2874 76.1753C87.8628 76.9092 87.0782 77.3626 86.2283 77.3626ZM151.549 26.2002C152.862 26.2002 153.926 27.2644 153.926 28.5772C153.926 41.5285 143.39 52.0662 130.44 52.0662L109.394 52.0662C108.084 52.0662 107.018 53.1319 107.018 54.4415C107.018 55.7519 108.084 56.8178 109.394 56.8178L130.44 56.8178C143.39 56.8178 153.926 67.3555 153.926 80.3067C153.926 81.6195 152.862 82.6837 151.549 82.6837C150.235 82.6837 149.171 81.6195 149.171 80.3067C149.171 69.9763 140.769 61.5716 130.439 61.5716L109.393 61.5716C105.462 61.5716 102.264 58.3727 102.264 54.4415C102.264 50.5111 105.462 47.3123 109.393 47.3123L130.439 47.3123C140.769 47.3123 149.171 38.9084 149.171 28.5772C149.171 27.2644 150.235 26.2002 151.549 26.2002Z" fill="#EC5F65"/>
</svg>
