<svg width="105" height="75" viewBox="0 0 105 75" fill="none" xmlns="http://www.w3.org/2000/svg">
<path d="M61.2434 46.8772C61.2434 49.473 63.3528 51.584 65.946 51.584C68.5414 51.584 70.6513 49.4725 70.6513 46.8772C70.6513 44.2845 68.5408 42.1757 65.946 42.1757C63.3528 42.1757 61.2434 44.2845 61.2434 46.8772ZM67.4112 46.8772C67.4112 47.686 66.7549 48.344 65.9466 48.344C65.1393 48.344 64.4835 47.6865 64.4835 46.8772C64.4835 46.0715 65.1399 45.4157 65.9466 45.4157C66.7543 45.4157 67.4112 46.0715 67.4112 46.8772ZM20.0938 65.0088C19.199 65.0088 18.4735 64.2834 18.4735 63.3885C18.4735 60.2133 21.0566 57.6297 24.2313 57.6297L74.5488 57.6297C75.938 57.6297 77.0681 56.5022 77.0681 55.1172C77.0681 53.729 75.938 52.5989 74.5488 52.5989C73.6539 52.5989 72.929 51.8734 72.929 50.9786C72.929 50.0832 73.6539 49.3589 74.5488 49.3589C77.7251 49.3589 80.3087 51.9414 80.3087 55.1172C80.3087 58.2898 77.7256 60.8707 74.5488 60.8707L24.2313 60.8708C22.8431 60.8708 21.7141 62.0003 21.7141 63.3885C21.7141 64.2834 20.9892 65.0088 20.0938 65.0088ZM99.9077 58.8904C99.9077 67.3444 93.0304 74.2223 84.5769 74.2223C83.682 74.2223 82.9566 73.4968 82.9566 72.602C82.9566 71.7071 83.682 70.9817 84.5769 70.9817C91.2439 70.9817 96.6677 65.5574 96.6677 58.8899C96.6677 52.2224 91.2439 46.798 84.5769 46.798L82.6162 46.798C84.8222 48.9143 86.1972 51.891 86.1972 55.1825C86.1972 61.5946 80.9816 66.8118 74.5695 66.8118L56.7071 66.8118C55.5579 66.8118 54.6227 67.747 54.6227 68.8962C54.6227 70.046 55.5579 70.9812 56.7071 70.9812C57.6019 70.9812 58.3274 71.7061 58.3274 72.6015C58.3274 73.4963 57.6019 74.2218 56.7071 74.2218C53.7708 74.2218 51.3821 71.833 51.3821 68.8968C51.3821 65.961 53.7708 63.5723 56.7071 63.5723L74.5695 63.5723C79.194 63.5723 82.9566 59.8086 82.9566 55.183C82.9566 50.5596 79.194 46.7986 74.5695 46.7986C73.6746 46.7986 72.9497 46.0731 72.9497 45.1777C72.9497 44.2824 73.6746 43.5575 74.5695 43.5575L84.5769 43.5575C93.0304 43.558 99.9077 50.4358 99.9077 58.8904ZM65.9466 22.6383C63.3528 22.6383 61.244 24.7498 61.244 27.3451C61.244 29.9378 63.3534 32.0466 65.9466 32.0466C68.5419 32.0466 70.6518 29.9378 70.6518 27.3451C70.6518 24.7498 68.5419 22.6383 65.9466 22.6383ZM67.4112 27.3456C67.4112 28.1512 66.7549 28.8071 65.9466 28.8071C65.1393 28.8071 64.4835 28.1512 64.4835 27.3456C64.4835 26.5368 65.1399 25.8783 65.9466 25.8783C66.7543 25.8783 67.4112 26.5363 67.4112 27.3456ZM11.7003 49.8373C7.27494 46.7726 3.42843 42.7906 0.268054 38.0036C-0.0893534 37.4624 -0.0893535 36.7598 0.268054 36.2192C3.42843 31.4317 7.27494 27.4497 11.7003 24.3855C12.4358 23.8756 13.4454 24.0589 13.9547 24.7949C14.1496 25.0759 14.2436 25.3982 14.2436 25.7158C14.2436 26.2293 13.9993 26.7344 13.5458 27.0493C9.73803 29.686 6.38858 33.0679 3.57712 37.1114C6.38858 41.1555 9.73803 44.5373 13.5458 47.174C14.2802 47.6839 14.464 48.6929 13.9552 49.4284C13.4459 50.1639 12.4358 50.3472 11.7003 49.8373ZM74.5488 21.6234C75.938 21.6234 77.0681 20.4933 77.0681 19.1051C77.0681 17.7201 75.938 16.5926 74.5488 16.5926L24.2313 16.5926C21.0566 16.5926 18.4735 14.0095 18.4735 10.8343C18.4735 9.93837 19.199 9.21347 20.0938 9.21347C20.9892 9.21347 21.7141 9.93837 21.7141 10.8343C21.7141 12.222 22.8431 13.3515 24.2313 13.3515L74.5488 13.3515C77.7251 13.3515 80.3087 15.9325 80.3087 19.1051C80.3087 22.2803 77.7256 24.864 74.5488 24.864C73.6539 24.864 72.929 24.139 72.929 23.2437C72.929 22.3488 73.6545 21.6234 74.5488 21.6234ZM84.5769 3.93242e-06C93.0304 3.56291e-06 99.9077 6.87783 99.9077 15.3319C99.9077 23.7864 93.0304 30.6643 84.5769 30.6643L74.5695 30.6643C73.6746 30.6643 72.9497 29.9394 72.9497 29.0434C72.9497 28.1486 73.6746 27.4232 74.5695 27.4232C79.194 27.4232 82.9566 23.6622 82.9566 19.0387C82.9566 14.4131 79.194 10.6495 74.5695 10.6495L56.7071 10.6495C53.7708 10.6495 51.3821 8.26072 51.3821 5.32392C51.3821 2.38872 53.7708 5.279e-06 56.7071 5.15065e-06C57.6019 5.11153e-06 58.3274 0.724904 58.3274 1.61975C58.3274 2.51459 57.6019 3.24001 56.7071 3.24001C55.5579 3.24001 54.6227 4.17524 54.6227 5.32447C54.6227 6.47423 55.5579 7.40993 56.7071 7.40993L74.5695 7.40993C80.981 7.40993 86.1972 12.6266 86.1972 19.0392C86.1972 22.3308 84.8222 25.3069 82.6162 27.4237L84.5769 27.4237C91.2439 27.4237 96.6677 21.9994 96.6677 15.3319C96.6677 8.66381 91.2439 3.23949 84.5769 3.23949C83.682 3.23949 82.9566 2.51404 82.9566 1.6192C82.9566 0.724354 83.682 3.97154e-06 84.5769 3.93242e-06ZM58.7788 52.7354L36.8681 52.7354C25.0959 52.7354 14.1453 47.4061 6.82406 38.1141C6.35991 37.5262 6.35991 36.6966 6.82406 36.1088C14.1448 26.8167 25.0954 21.4875 36.8681 21.4875L58.7788 21.4875C59.3582 21.4875 59.8929 21.796 60.1824 22.2968C60.4718 22.7976 60.4718 23.4152 60.1829 23.9171C59.5547 25.0052 59.2371 26.1539 59.2371 27.3308C59.2371 29.9341 60.7039 32.284 63.0655 33.4641C63.6338 33.7482 63.962 34.3201 63.962 34.9149C63.962 35.1582 63.9067 35.4051 63.791 35.6377C63.3911 36.438 62.4182 36.7625 61.6173 36.3626C58.1505 34.6302 55.9965 31.1698 55.9965 27.3302C55.9965 26.4455 56.1149 25.5756 56.3497 24.7269L36.8681 24.7269C26.5255 24.7269 16.875 29.2245 10.1889 37.1109C16.875 44.9982 26.5261 49.4948 36.8681 49.4948L56.3497 49.4948C56.1149 48.6462 55.9965 47.7763 55.9965 46.8915C55.9965 43.053 58.1505 39.592 61.6173 37.8597C62.4182 37.4598 63.3911 37.7843 63.791 38.5846C64.1914 39.3854 63.8664 40.3583 63.0655 40.7588C60.7039 41.9383 59.2371 44.2882 59.2371 46.8915C59.2371 48.0689 59.5552 49.217 60.1829 50.3057C60.4718 50.807 60.4718 51.4247 60.1824 51.926C59.8929 52.4263 59.3582 52.7354 58.7788 52.7354ZM103.305 17.8597C104.2 17.8597 104.926 18.5852 104.926 19.48C104.926 28.3085 97.7436 35.4917 88.9162 35.4917L74.57 35.4917C73.6768 35.4917 72.9503 36.2181 72.9503 37.1109C72.9503 38.0041 73.6768 38.7306 74.57 38.7306L88.9162 38.7306C97.7436 38.7306 104.926 45.9138 104.926 54.7422C104.926 55.6371 104.2 56.3625 103.305 56.3625C102.41 56.3625 101.685 55.6371 101.685 54.7422C101.685 47.7003 95.9571 41.9712 88.9157 41.9712L74.5695 41.9712C71.8897 41.9712 69.7097 39.7906 69.7097 37.1109C69.7097 34.4316 71.8897 32.2511 74.5695 32.2511L88.9157 32.2511C95.9571 32.2511 101.685 26.5225 101.685 19.48C101.685 18.5852 102.41 17.8597 103.305 17.8597Z" fill="#EC5F65"/>
</svg>
