<svg width="75" height="53" viewBox="0 0 75 53" fill="none" xmlns="http://www.w3.org/2000/svg">
<path d="M43.7322 33.4736C43.7322 35.3273 45.2384 36.8347 47.0902 36.8347C48.9434 36.8347 50.45 35.3269 50.45 33.4736C50.45 31.6223 48.943 30.1164 47.0902 30.1164C45.2384 30.1164 43.7322 31.6223 43.7322 33.4736ZM48.1364 33.4736C48.1364 34.0512 47.6677 34.521 47.0905 34.521C46.5141 34.521 46.0458 34.0516 46.0458 33.4736C46.0458 32.8984 46.5145 32.43 47.0905 32.43C47.6673 32.43 48.1364 32.8984 48.1364 33.4736ZM14.3484 46.4209C13.7094 46.4209 13.1914 45.9029 13.1914 45.2639C13.1914 42.9966 15.0359 41.1517 17.3029 41.1517L53.2331 41.1517C54.2252 41.1517 55.0321 40.3466 55.0321 39.3576C55.0321 38.3663 54.2252 37.5593 53.2331 37.5593C52.5941 37.5593 52.0765 37.0413 52.0765 36.4023C52.0765 35.763 52.5941 35.2457 53.2331 35.2457C55.5012 35.2457 57.3461 37.0899 57.3461 39.3576C57.3461 41.6231 55.5016 43.466 53.2331 43.466L17.3029 43.4661C16.3116 43.4661 15.5054 44.2726 15.5054 45.2639C15.5054 45.9029 14.9878 46.4209 14.3484 46.4209ZM71.3412 42.0519C71.3412 48.0887 66.4303 53 60.3939 53C59.7549 53 59.2369 52.482 59.2369 51.843C59.2369 51.204 59.7549 50.686 60.3939 50.686C65.1546 50.686 69.0276 46.8127 69.0276 42.0516C69.0276 37.2905 65.1546 33.4171 60.3939 33.4171L58.9938 33.4171C60.5691 34.9283 61.5509 37.0538 61.5509 39.4042C61.5509 43.9829 57.8266 47.7084 53.2479 47.7084L40.4929 47.7084C39.6723 47.7084 39.0045 48.3762 39.0045 49.1968C39.0045 50.0178 39.6723 50.6856 40.4929 50.6856C41.1319 50.6856 41.6499 51.2033 41.6499 51.8426C41.6499 52.4816 41.1319 52.9996 40.4929 52.9996C38.3962 52.9996 36.6905 51.2939 36.6905 49.1972C36.6905 47.1009 38.3962 45.3951 40.4929 45.3951L53.2479 45.3951C56.5502 45.3951 59.2369 42.7076 59.2369 39.4046C59.2369 36.1031 56.5502 33.4175 53.2479 33.4175C52.6089 33.4175 52.0913 32.8995 52.0913 32.2601C52.0913 31.6208 52.6089 31.1031 53.2479 31.1031L60.3939 31.1031C66.4303 31.1035 71.3412 36.0148 71.3412 42.0519ZM47.0905 16.1653C45.2384 16.1653 43.7326 17.6731 43.7326 19.5264C43.7326 21.3777 45.2388 22.8836 47.0905 22.8836C48.9438 22.8836 50.4504 21.3777 50.4504 19.5263C50.4504 17.6731 48.9438 16.1653 47.0905 16.1653ZM48.1364 19.5267C48.1364 20.102 47.6677 20.5703 47.0905 20.5703C46.5141 20.5703 46.0458 20.102 46.0458 19.5267C46.0458 18.9492 46.5145 18.4789 47.0905 18.4789C47.6673 18.4789 48.1364 18.9488 48.1364 19.5267ZM8.35486 35.5874C5.19483 33.3989 2.44814 30.5556 0.19141 27.1373C-0.0638047 26.7509 -0.0638047 26.2491 0.19141 25.8631C2.44814 22.4444 5.19483 19.6011 8.35486 17.413C8.88007 17.0489 9.60097 17.1797 9.96464 17.7053C10.1038 17.9059 10.1709 18.1361 10.1709 18.3629C10.1709 18.7296 9.9965 19.0902 9.67264 19.3151C6.95364 21.1979 4.5619 23.6128 2.55432 26.5002C4.5619 29.3879 6.95365 31.8028 9.67264 33.6856C10.1971 34.0497 10.3283 34.7702 9.96502 35.2954C9.60135 35.8206 8.88007 35.9515 8.35486 35.5874ZM53.2331 15.4406C54.2252 15.4406 55.0321 14.6337 55.0321 13.6424C55.0321 12.6534 54.2252 11.8483 53.2331 11.8483L17.3029 11.8483C15.0359 11.8483 13.1914 10.0038 13.1914 7.73645C13.1914 7.09671 13.7094 6.57907 14.3484 6.57907C14.9878 6.57907 15.5054 7.09671 15.5054 7.73645C15.5054 8.72735 16.3116 9.53394 17.3029 9.53394L53.2331 9.53394C55.5012 9.53394 57.3461 11.3769 57.3461 13.6424C57.3461 15.9097 55.5016 17.7546 53.2331 17.7546C52.5941 17.7546 52.0765 17.237 52.0765 16.5976C52.0765 15.9587 52.5945 15.4406 53.2331 15.4406ZM60.3939 4.98949e-06C66.4303 4.72563e-06 71.3412 4.91127 71.3412 10.948C71.3412 16.9852 66.4303 21.8965 60.3939 21.8965L53.2479 21.8965C52.6089 21.8965 52.0913 21.3788 52.0913 20.7391C52.0913 20.1001 52.6089 19.5821 53.2479 19.5821C56.5502 19.5821 59.2369 16.8965 59.2369 13.595C59.2369 10.292 56.5502 7.60447 53.2479 7.60447L40.4929 7.60447C38.3962 7.60447 36.6905 5.89874 36.6905 3.80166C36.6905 1.70572 38.3962 5.95104e-06 40.4929 5.85939e-06C41.1319 5.83146e-06 41.6499 0.517637 41.6499 1.15662C41.6499 1.7956 41.1319 2.3136 40.4929 2.3136C39.6723 2.3136 39.0045 2.98142 39.0045 3.80205C39.0045 4.62306 39.6723 5.29122 40.4929 5.29122L53.2479 5.29122C57.8262 5.29122 61.5509 9.01629 61.5509 13.5954C61.5509 15.9458 60.5691 18.0709 58.9938 19.5825L60.3939 19.5825C65.1546 19.5825 69.0276 15.7091 69.0276 10.948C69.0276 6.18658 65.1546 2.31323 60.3939 2.31323C59.7549 2.31323 59.2369 1.79521 59.2369 1.15622C59.2369 0.51724 59.7549 5.01742e-06 60.3939 4.98949e-06ZM41.9722 37.6568L26.3264 37.6568C17.9203 37.6568 10.1008 33.8513 4.87287 27.2162C4.54143 26.7964 4.54143 26.204 4.87287 25.7842C10.1004 19.149 17.9199 15.3436 26.3264 15.3436L41.9722 15.3436C42.386 15.3436 42.7678 15.5639 42.9745 15.9215C43.1812 16.2791 43.1812 16.7201 42.9749 17.0785C42.5263 17.8555 42.2995 18.6758 42.2995 19.5161C42.2995 21.375 43.3469 23.0531 45.0333 23.8957C45.439 24.0986 45.6734 24.507 45.6734 24.9317C45.6734 25.1054 45.634 25.2817 45.5513 25.4478C45.2657 26.0193 44.571 26.251 43.9991 25.9655C41.5236 24.7285 39.9855 22.2575 39.9855 19.5157C39.9855 18.8839 40.0701 18.2628 40.2377 17.6568L26.3264 17.6568C18.9411 17.6568 12.05 20.8684 7.2756 26.4998C12.05 32.132 18.9415 35.3428 26.3264 35.3428L40.2377 35.3428C40.0701 34.7368 39.9855 34.1157 39.9855 33.4839C39.9855 30.7429 41.5236 28.2715 43.9991 27.0345C44.571 26.749 45.2657 26.9807 45.5513 27.5521C45.8372 28.124 45.6051 28.8187 45.0333 29.1047C43.3469 29.9469 42.2995 31.625 42.2995 33.4839C42.2995 34.3246 42.5266 35.1445 42.9749 35.9219C43.1812 36.2799 43.1812 36.7209 42.9745 37.0789C42.7678 37.4361 42.386 37.6568 41.9722 37.6568ZM73.7674 12.7531C74.4064 12.7531 74.9245 13.2711 74.9245 13.9101C74.9245 20.2142 69.7959 25.3436 63.4925 25.3436L53.2483 25.3436C52.6105 25.3436 52.0917 25.8623 52.0917 26.4998C52.0917 27.1376 52.6105 27.6564 53.2483 27.6564L63.4925 27.6564C69.7959 27.6564 74.9245 32.7857 74.9245 39.0899C74.9245 39.7288 74.4064 40.2469 73.7674 40.2469C73.1281 40.2469 72.6101 39.7288 72.6101 39.0899C72.6101 34.0614 68.5202 29.9704 63.4921 29.9704L53.2479 29.9704C51.3344 29.9704 49.7777 28.4133 49.7777 26.4998C49.7777 24.5866 51.3344 23.0296 53.2479 23.0296L63.4921 23.0296C68.5202 23.0296 72.6101 18.9389 72.6101 13.9101C72.6101 13.2711 73.1281 12.7531 73.7674 12.7531Z" fill="#EC5F65"/>
</svg>
